<mxfile host="65bd71144e" pages="15">
    <diagram id="GkwNmuh2zX79aZFKKMFi" name="페이지-1">
        <mxGraphModel dx="1140" dy="884" grid="1" gridSize="10" guides="1" tooltips="1" connect="1" arrows="1" fold="1" page="1" pageScale="1" pageWidth="827" pageHeight="1169" math="0" shadow="0">
            <root>
                <mxCell id="0"/>
                <mxCell id="1" parent="0"/>
                <mxCell id="ZPWshyS_SpANVJxTo8L1-1" value="" style="rounded=1;whiteSpace=wrap;html=1;arcSize=3;fillColor=#f5f5f5;fontColor=#333333;strokeColor=#666666;" parent="1" vertex="1">
                    <mxGeometry x="200" y="120" width="360" height="280" as="geometry"/>
                </mxCell>
                <mxCell id="ZPWshyS_SpANVJxTo8L1-2" value="" style="rounded=1;whiteSpace=wrap;html=1;arcSize=3;fillColor=#f5f5f5;fontColor=#333333;strokeColor=#666666;" parent="1" vertex="1">
                    <mxGeometry x="200" y="120" width="360" height="40" as="geometry"/>
                </mxCell>
                <mxCell id="ZPWshyS_SpANVJxTo8L1-9" value="" style="group" parent="1" vertex="1" connectable="0">
                    <mxGeometry x="200" y="120" width="360" height="280" as="geometry"/>
                </mxCell>
                <mxCell id="ZPWshyS_SpANVJxTo8L1-5" value="" style="endArrow=none;dashed=1;html=1;rounded=0;" parent="ZPWshyS_SpANVJxTo8L1-9" edge="1">
                    <mxGeometry width="50" height="50" relative="1" as="geometry">
                        <mxPoint x="20" y="280" as="sourcePoint"/>
                        <mxPoint x="20" as="targetPoint"/>
                    </mxGeometry>
                </mxCell>
                <mxCell id="ZPWshyS_SpANVJxTo8L1-6" value="" style="endArrow=none;dashed=1;html=1;rounded=0;" parent="ZPWshyS_SpANVJxTo8L1-9" edge="1">
                    <mxGeometry width="50" height="50" relative="1" as="geometry">
                        <mxPoint x="340" y="280" as="sourcePoint"/>
                        <mxPoint x="340" as="targetPoint"/>
                    </mxGeometry>
                </mxCell>
                <mxCell id="ZPWshyS_SpANVJxTo8L1-7" value="" style="endArrow=none;dashed=1;html=1;rounded=0;" parent="ZPWshyS_SpANVJxTo8L1-9" edge="1">
                    <mxGeometry width="50" height="50" relative="1" as="geometry">
                        <mxPoint y="40" as="sourcePoint"/>
                        <mxPoint x="360" y="40" as="targetPoint"/>
                    </mxGeometry>
                </mxCell>
                <mxCell id="ZPWshyS_SpANVJxTo8L1-8" value="" style="endArrow=none;dashed=1;html=1;rounded=0;" parent="ZPWshyS_SpANVJxTo8L1-9" edge="1">
                    <mxGeometry width="50" height="50" relative="1" as="geometry">
                        <mxPoint y="260" as="sourcePoint"/>
                        <mxPoint x="359.9999999999998" y="260" as="targetPoint"/>
                    </mxGeometry>
                </mxCell>
                <mxCell id="ZPWshyS_SpANVJxTo8L1-22" value="" style="endArrow=classic;startArrow=classic;html=1;rounded=0;" parent="ZPWshyS_SpANVJxTo8L1-9" edge="1">
                    <mxGeometry width="50" height="50" relative="1" as="geometry">
                        <mxPoint y="120" as="sourcePoint"/>
                        <mxPoint x="20" y="120" as="targetPoint"/>
                    </mxGeometry>
                </mxCell>
                <mxCell id="ZPWshyS_SpANVJxTo8L1-10" value="" style="endArrow=none;html=1;rounded=0;" parent="1" edge="1">
                    <mxGeometry width="50" height="50" relative="1" as="geometry">
                        <mxPoint x="199.64" y="90" as="sourcePoint"/>
                        <mxPoint x="559.64" y="90" as="targetPoint"/>
                    </mxGeometry>
                </mxCell>
                <mxCell id="ZPWshyS_SpANVJxTo8L1-11" value="" style="endArrow=none;html=1;rounded=0;" parent="1" edge="1">
                    <mxGeometry width="50" height="50" relative="1" as="geometry">
                        <mxPoint x="199.64" y="110" as="sourcePoint"/>
                        <mxPoint x="199.64" y="80" as="targetPoint"/>
                    </mxGeometry>
                </mxCell>
                <mxCell id="ZPWshyS_SpANVJxTo8L1-12" value="" style="endArrow=none;html=1;rounded=0;" parent="1" edge="1">
                    <mxGeometry width="50" height="50" relative="1" as="geometry">
                        <mxPoint x="559.3100000000001" y="110" as="sourcePoint"/>
                        <mxPoint x="559.3100000000001" y="80" as="targetPoint"/>
                    </mxGeometry>
                </mxCell>
                <mxCell id="ZPWshyS_SpANVJxTo8L1-16" value="" style="endArrow=none;html=1;rounded=0;" parent="1" edge="1">
                    <mxGeometry width="50" height="50" relative="1" as="geometry">
                        <mxPoint x="170" y="400" as="sourcePoint"/>
                        <mxPoint x="170" y="120" as="targetPoint"/>
                    </mxGeometry>
                </mxCell>
                <mxCell id="ZPWshyS_SpANVJxTo8L1-17" value="" style="endArrow=none;html=1;rounded=0;" parent="1" edge="1">
                    <mxGeometry width="50" height="50" relative="1" as="geometry">
                        <mxPoint x="160" y="120" as="sourcePoint"/>
                        <mxPoint x="190" y="120" as="targetPoint"/>
                    </mxGeometry>
                </mxCell>
                <mxCell id="ZPWshyS_SpANVJxTo8L1-18" value="" style="endArrow=none;html=1;rounded=0;" parent="1" edge="1">
                    <mxGeometry width="50" height="50" relative="1" as="geometry">
                        <mxPoint x="160" y="400" as="sourcePoint"/>
                        <mxPoint x="190" y="400" as="targetPoint"/>
                    </mxGeometry>
                </mxCell>
                <mxCell id="ZPWshyS_SpANVJxTo8L1-19" value="width" style="text;html=1;strokeColor=none;fillColor=none;align=center;verticalAlign=middle;whiteSpace=wrap;rounded=0;" parent="1" vertex="1">
                    <mxGeometry x="350" y="60" width="60" height="30" as="geometry"/>
                </mxCell>
                <mxCell id="ZPWshyS_SpANVJxTo8L1-20" value="height" style="text;html=1;strokeColor=none;fillColor=none;align=center;verticalAlign=middle;whiteSpace=wrap;rounded=0;rotation=-90;" parent="1" vertex="1">
                    <mxGeometry x="120" y="245" width="60" height="30" as="geometry"/>
                </mxCell>
                <mxCell id="ZPWshyS_SpANVJxTo8L1-21" value="" style="endArrow=classic;startArrow=classic;html=1;rounded=0;" parent="1" edge="1">
                    <mxGeometry width="50" height="50" relative="1" as="geometry">
                        <mxPoint x="280" y="160" as="sourcePoint"/>
                        <mxPoint x="280" y="120" as="targetPoint"/>
                    </mxGeometry>
                </mxCell>
                <mxCell id="ZPWshyS_SpANVJxTo8L1-23" value="" style="endArrow=classic;startArrow=classic;html=1;rounded=0;" parent="1" edge="1">
                    <mxGeometry width="50" height="50" relative="1" as="geometry">
                        <mxPoint x="540" y="240" as="sourcePoint"/>
                        <mxPoint x="560" y="240" as="targetPoint"/>
                    </mxGeometry>
                </mxCell>
                <mxCell id="ZPWshyS_SpANVJxTo8L1-24" value="" style="endArrow=classic;startArrow=classic;html=1;rounded=0;" parent="1" edge="1">
                    <mxGeometry width="50" height="50" relative="1" as="geometry">
                        <mxPoint x="280" y="400" as="sourcePoint"/>
                        <mxPoint x="280" y="380" as="targetPoint"/>
                    </mxGeometry>
                </mxCell>
                <mxCell id="ZPWshyS_SpANVJxTo8L1-27" value="insets.bottom" style="whiteSpace=wrap;html=1;rounded=1;arcSize=50;align=center;verticalAlign=middle;strokeWidth=1;autosize=1;spacing=4;treeFolding=1;treeMoving=1;newEdgeStyle={&quot;edgeStyle&quot;:&quot;entityRelationEdgeStyle&quot;,&quot;startArrow&quot;:&quot;none&quot;,&quot;endArrow&quot;:&quot;none&quot;,&quot;segment&quot;:10,&quot;curved&quot;:1,&quot;sourcePerimeterSpacing&quot;:0,&quot;targetPerimeterSpacing&quot;:0};" parent="1" vertex="1">
                    <mxGeometry x="310" y="418" width="120" height="30" as="geometry"/>
                </mxCell>
                <mxCell id="ZPWshyS_SpANVJxTo8L1-28" value="" style="edgeStyle=entityRelationEdgeStyle;startArrow=none;endArrow=none;segment=10;curved=1;sourcePerimeterSpacing=0;targetPerimeterSpacing=0;rounded=0;" parent="1" target="ZPWshyS_SpANVJxTo8L1-27" edge="1">
                    <mxGeometry relative="1" as="geometry">
                        <mxPoint x="280" y="390" as="sourcePoint"/>
                    </mxGeometry>
                </mxCell>
                <mxCell id="ZPWshyS_SpANVJxTo8L1-29" value="insets.right" style="whiteSpace=wrap;html=1;rounded=1;arcSize=50;align=center;verticalAlign=middle;strokeWidth=1;autosize=1;spacing=4;treeFolding=1;treeMoving=1;newEdgeStyle={&quot;edgeStyle&quot;:&quot;entityRelationEdgeStyle&quot;,&quot;startArrow&quot;:&quot;none&quot;,&quot;endArrow&quot;:&quot;none&quot;,&quot;segment&quot;:10,&quot;curved&quot;:1,&quot;sourcePerimeterSpacing&quot;:0,&quot;targetPerimeterSpacing&quot;:0};" parent="1" vertex="1">
                    <mxGeometry x="580" y="260" width="100" height="30" as="geometry"/>
                </mxCell>
                <mxCell id="ZPWshyS_SpANVJxTo8L1-30" value="" style="edgeStyle=entityRelationEdgeStyle;startArrow=none;endArrow=none;segment=10;curved=1;sourcePerimeterSpacing=0;targetPerimeterSpacing=0;rounded=0;" parent="1" target="ZPWshyS_SpANVJxTo8L1-29" edge="1">
                    <mxGeometry relative="1" as="geometry">
                        <mxPoint x="550" y="240" as="sourcePoint"/>
                    </mxGeometry>
                </mxCell>
                <mxCell id="ZPWshyS_SpANVJxTo8L1-35" style="edgeStyle=entityRelationEdgeStyle;curved=1;rounded=0;orthogonalLoop=1;jettySize=auto;html=1;startArrow=none;endArrow=none;segment=10;sourcePerimeterSpacing=0;targetPerimeterSpacing=0;exitX=1;exitY=0.5;exitDx=0;exitDy=0;" parent="1" source="ZPWshyS_SpANVJxTo8L1-33" edge="1">
                    <mxGeometry relative="1" as="geometry">
                        <mxPoint x="210" y="240" as="targetPoint"/>
                    </mxGeometry>
                </mxCell>
                <mxCell id="ZPWshyS_SpANVJxTo8L1-33" value="insets.left" style="whiteSpace=wrap;html=1;rounded=1;arcSize=50;align=center;verticalAlign=middle;strokeWidth=1;autosize=1;spacing=4;treeFolding=1;treeMoving=1;newEdgeStyle={&quot;edgeStyle&quot;:&quot;entityRelationEdgeStyle&quot;,&quot;startArrow&quot;:&quot;none&quot;,&quot;endArrow&quot;:&quot;none&quot;,&quot;segment&quot;:10,&quot;curved&quot;:1,&quot;sourcePerimeterSpacing&quot;:0,&quot;targetPerimeterSpacing&quot;:0};" parent="1" vertex="1">
                    <mxGeometry x="60" y="188" width="100" height="30" as="geometry"/>
                </mxCell>
                <mxCell id="ZPWshyS_SpANVJxTo8L1-37" style="edgeStyle=entityRelationEdgeStyle;curved=1;rounded=0;orthogonalLoop=1;jettySize=auto;html=1;startArrow=none;endArrow=none;segment=10;sourcePerimeterSpacing=0;targetPerimeterSpacing=0;exitX=1;exitY=0.5;exitDx=0;exitDy=0;" parent="1" source="ZPWshyS_SpANVJxTo8L1-36" edge="1">
                    <mxGeometry relative="1" as="geometry">
                        <mxPoint x="280" y="140" as="targetPoint"/>
                    </mxGeometry>
                </mxCell>
                <mxCell id="ZPWshyS_SpANVJxTo8L1-36" value="insets.top" style="whiteSpace=wrap;html=1;rounded=1;arcSize=50;align=center;verticalAlign=middle;strokeWidth=1;autosize=1;spacing=4;treeFolding=1;treeMoving=1;newEdgeStyle={&quot;edgeStyle&quot;:&quot;entityRelationEdgeStyle&quot;,&quot;startArrow&quot;:&quot;none&quot;,&quot;endArrow&quot;:&quot;none&quot;,&quot;segment&quot;:10,&quot;curved&quot;:1,&quot;sourcePerimeterSpacing&quot;:0,&quot;targetPerimeterSpacing&quot;:0};" parent="1" vertex="1">
                    <mxGeometry x="70" y="80" width="100" height="30" as="geometry"/>
                </mxCell>
            </root>
        </mxGraphModel>
    </diagram>
    <diagram id="0vyVX7j_J3QMyQz2kDLh" name="좌표계">
        <mxGraphModel dx="750" dy="1056" grid="1" gridSize="10" guides="1" tooltips="1" connect="1" arrows="1" fold="1" page="1" pageScale="1" pageWidth="827" pageHeight="1169" math="0" shadow="0">
            <root>
                <mxCell id="0"/>
                <mxCell id="1" parent="0"/>
                <mxCell id="c_IJmWB-044H6bpr5G8b-1" value="" style="endArrow=classic;html=1;rounded=0;curved=1;entryX=1;entryY=1;entryDx=0;entryDy=0;" parent="1" target="c_IJmWB-044H6bpr5G8b-5" edge="1">
                    <mxGeometry width="50" height="50" relative="1" as="geometry">
                        <mxPoint x="120" y="160" as="sourcePoint"/>
                        <mxPoint x="120" y="400" as="targetPoint"/>
                    </mxGeometry>
                </mxCell>
                <mxCell id="c_IJmWB-044H6bpr5G8b-2" value="" style="endArrow=classic;html=1;rounded=0;curved=1;" parent="1" edge="1">
                    <mxGeometry width="50" height="50" relative="1" as="geometry">
                        <mxPoint x="120" y="160" as="sourcePoint"/>
                        <mxPoint x="360" y="160" as="targetPoint"/>
                    </mxGeometry>
                </mxCell>
                <mxCell id="c_IJmWB-044H6bpr5G8b-3" value="(0, 0)" style="text;html=1;strokeColor=none;fillColor=none;align=center;verticalAlign=middle;whiteSpace=wrap;rounded=0;" parent="1" vertex="1">
                    <mxGeometry x="80" y="140" width="40" height="20" as="geometry"/>
                </mxCell>
                <mxCell id="c_IJmWB-044H6bpr5G8b-4" value="X" style="text;html=1;strokeColor=none;fillColor=none;align=center;verticalAlign=middle;whiteSpace=wrap;rounded=0;" parent="1" vertex="1">
                    <mxGeometry x="320" y="130" width="40" height="30" as="geometry"/>
                </mxCell>
                <mxCell id="c_IJmWB-044H6bpr5G8b-5" value="Y" style="text;html=1;strokeColor=none;fillColor=none;align=center;verticalAlign=middle;whiteSpace=wrap;rounded=0;" parent="1" vertex="1">
                    <mxGeometry x="80" y="290" width="40" height="30" as="geometry"/>
                </mxCell>
                <mxCell id="c_IJmWB-044H6bpr5G8b-6" value="" style="rounded=0;whiteSpace=wrap;html=1;" parent="1" vertex="1">
                    <mxGeometry x="200" y="230" width="120" height="60" as="geometry"/>
                </mxCell>
                <mxCell id="c_IJmWB-044H6bpr5G8b-7" value="" style="endArrow=none;dashed=1;html=1;dashPattern=1 3;strokeWidth=2;rounded=0;curved=1;entryX=0;entryY=0;entryDx=0;entryDy=0;" parent="1" target="c_IJmWB-044H6bpr5G8b-6" edge="1">
                    <mxGeometry width="50" height="50" relative="1" as="geometry">
                        <mxPoint x="120" y="230" as="sourcePoint"/>
                        <mxPoint x="440" y="520" as="targetPoint"/>
                    </mxGeometry>
                </mxCell>
                <mxCell id="c_IJmWB-044H6bpr5G8b-8" value="" style="endArrow=none;dashed=1;html=1;dashPattern=1 3;strokeWidth=2;rounded=0;curved=1;entryX=0;entryY=0;entryDx=0;entryDy=0;" parent="1" target="c_IJmWB-044H6bpr5G8b-6" edge="1">
                    <mxGeometry width="50" height="50" relative="1" as="geometry">
                        <mxPoint x="200" y="160" as="sourcePoint"/>
                        <mxPoint x="210" y="240" as="targetPoint"/>
                    </mxGeometry>
                </mxCell>
                <mxCell id="c_IJmWB-044H6bpr5G8b-9" value="(100, 90)" style="text;html=1;strokeColor=none;fillColor=none;align=center;verticalAlign=middle;whiteSpace=wrap;rounded=0;" parent="1" vertex="1">
                    <mxGeometry x="200" y="210" width="80" height="20" as="geometry"/>
                </mxCell>
            </root>
        </mxGraphModel>
    </diagram>
    <diagram id="5xoR27qzuELElAgmXHFO" name="페이지-3">
        <mxGraphModel dx="926" dy="566" grid="1" gridSize="10" guides="1" tooltips="1" connect="1" arrows="1" fold="1" page="1" pageScale="1" pageWidth="827" pageHeight="1169" math="0" shadow="0">
            <root>
                <mxCell id="0"/>
                <mxCell id="1" parent="0"/>
                <mxCell id="fXStqqzOpga8X6frDP_B-4" value="" style="rounded=0;whiteSpace=wrap;html=1;fillColor=#0050ef;fontColor=#ffffff;strokeColor=#001DBC;" parent="1" vertex="1">
                    <mxGeometry x="110" y="70" width="380" height="260" as="geometry"/>
                </mxCell>
                <mxCell id="fXStqqzOpga8X6frDP_B-1" value="" style="rounded=0;whiteSpace=wrap;html=1;fillColor=#60a917;fontColor=#ffffff;strokeColor=#2D7600;" parent="1" vertex="1">
                    <mxGeometry x="120" y="80" width="360" height="240" as="geometry"/>
                </mxCell>
                <mxCell id="fXStqqzOpga8X6frDP_B-5" style="edgeStyle=none;rounded=0;orthogonalLoop=1;jettySize=auto;html=1;exitX=1;exitY=0;exitDx=0;exitDy=0;entryX=0.361;entryY=0.208;entryDx=0;entryDy=0;entryPerimeter=0;" parent="1" source="fXStqqzOpga8X6frDP_B-2" target="fXStqqzOpga8X6frDP_B-1" edge="1">
                    <mxGeometry relative="1" as="geometry"/>
                </mxCell>
                <mxCell id="fXStqqzOpga8X6frDP_B-2" value="" style="ellipse;whiteSpace=wrap;html=1;aspect=fixed;" parent="1" vertex="1">
                    <mxGeometry x="190" y="160" width="30" height="30" as="geometry"/>
                </mxCell>
            </root>
        </mxGraphModel>
    </diagram>
    <diagram id="mY6X_Htxn0EPVNp5Oze3" name="볼">
        <mxGraphModel dx="1504" dy="1104" grid="1" gridSize="10" guides="1" tooltips="1" connect="1" arrows="1" fold="1" page="1" pageScale="1" pageWidth="827" pageHeight="1169" math="0" shadow="0">
            <root>
                <mxCell id="0"/>
                <mxCell id="1" parent="0"/>
                <mxCell id="2NY9t7oRoGkKIb1ZpfCp-1" value="" style="ellipse;whiteSpace=wrap;html=1;aspect=fixed;" parent="1" vertex="1">
                    <mxGeometry x="120" y="160" width="160" height="160" as="geometry"/>
                </mxCell>
                <mxCell id="2NY9t7oRoGkKIb1ZpfCp-2" value="" style="rounded=0;whiteSpace=wrap;html=1;fillColor=none;dashed=1;" parent="1" vertex="1">
                    <mxGeometry x="120" y="160" width="160" height="160" as="geometry"/>
                </mxCell>
                <mxCell id="2NY9t7oRoGkKIb1ZpfCp-3" value="" style="endArrow=none;html=1;rounded=0;exitX=0;exitY=0.5;exitDx=0;exitDy=0;" parent="1" source="2NY9t7oRoGkKIb1ZpfCp-2" edge="1">
                    <mxGeometry width="50" height="50" relative="1" as="geometry">
                        <mxPoint x="400" y="320" as="sourcePoint"/>
                        <mxPoint x="200" y="240" as="targetPoint"/>
                    </mxGeometry>
                </mxCell>
                <mxCell id="2NY9t7oRoGkKIb1ZpfCp-4" value="r" style="text;html=1;strokeColor=none;fillColor=none;align=center;verticalAlign=middle;whiteSpace=wrap;rounded=0;dashed=1;" parent="1" vertex="1">
                    <mxGeometry x="140" y="210" width="40" height="40" as="geometry"/>
                </mxCell>
                <mxCell id="2NY9t7oRoGkKIb1ZpfCp-5" value="(x, y)" style="text;html=1;strokeColor=none;fillColor=none;align=center;verticalAlign=middle;whiteSpace=wrap;rounded=0;dashed=1;" parent="1" vertex="1">
                    <mxGeometry x="180" y="220" width="40" height="20" as="geometry"/>
                </mxCell>
            </root>
        </mxGraphModel>
    </diagram>
    <diagram name="영역" id="BNWAxp1djCb5d0faUwLY">
        <mxGraphModel dx="266" dy="181" grid="1" gridSize="10" guides="1" tooltips="1" connect="1" arrows="1" fold="1" page="1" pageScale="1" pageWidth="827" pageHeight="1169" math="0" shadow="0">
            <root>
                <mxCell id="19Oa8O1KaFgnwdUxJWiD-0"/>
                <mxCell id="19Oa8O1KaFgnwdUxJWiD-1" parent="19Oa8O1KaFgnwdUxJWiD-0"/>
                <mxCell id="19Oa8O1KaFgnwdUxJWiD-2" value="" style="ellipse;whiteSpace=wrap;html=1;aspect=fixed;strokeWidth=3;" vertex="1" parent="19Oa8O1KaFgnwdUxJWiD-1">
                    <mxGeometry x="120" y="160" width="160" height="160" as="geometry"/>
                </mxCell>
                <mxCell id="19Oa8O1KaFgnwdUxJWiD-3" value="" style="rounded=0;whiteSpace=wrap;html=1;fillColor=none;dashed=1;" vertex="1" parent="19Oa8O1KaFgnwdUxJWiD-1">
                    <mxGeometry x="120" y="160" width="160" height="160" as="geometry"/>
                </mxCell>
                <mxCell id="19Oa8O1KaFgnwdUxJWiD-4" value="" style="endArrow=none;html=1;rounded=0;exitX=0;exitY=0.5;exitDx=0;exitDy=0;" edge="1" parent="19Oa8O1KaFgnwdUxJWiD-1" source="19Oa8O1KaFgnwdUxJWiD-3">
                    <mxGeometry width="50" height="50" relative="1" as="geometry">
                        <mxPoint x="400" y="320" as="sourcePoint"/>
                        <mxPoint x="200" y="240" as="targetPoint"/>
                    </mxGeometry>
                </mxCell>
                <mxCell id="19Oa8O1KaFgnwdUxJWiD-6" value="(x, y)" style="text;html=1;strokeColor=none;fillColor=none;align=center;verticalAlign=middle;whiteSpace=wrap;rounded=0;dashed=1;" vertex="1" parent="19Oa8O1KaFgnwdUxJWiD-1">
                    <mxGeometry x="180" y="240" width="40" height="20" as="geometry"/>
                </mxCell>
                <mxCell id="FSdJ7k41mtUZ681im93f-0" value="Region" style="text;html=1;strokeColor=none;fillColor=none;align=center;verticalAlign=middle;whiteSpace=wrap;rounded=0;" vertex="1" parent="19Oa8O1KaFgnwdUxJWiD-1">
                    <mxGeometry x="170" y="130" width="60" height="30" as="geometry"/>
                </mxCell>
                <mxCell id="C_zngJiH5KZMtGDeAc79-6" value="r" style="text;html=1;strokeColor=none;fillColor=default;align=center;verticalAlign=middle;whiteSpace=wrap;rounded=0;dashed=1;" vertex="1" parent="19Oa8O1KaFgnwdUxJWiD-1">
                    <mxGeometry x="150" y="235" width="20" height="10" as="geometry"/>
                </mxCell>
            </root>
        </mxGraphModel>
    </diagram>
    <diagram id="lrCqu5RbPzDehJRBketG" name="이동">
        <mxGraphModel dx="1504" dy="1104" grid="1" gridSize="10" guides="1" tooltips="1" connect="1" arrows="1" fold="1" page="1" pageScale="1" pageWidth="827" pageHeight="1169" math="0" shadow="0">
            <root>
                <mxCell id="0"/>
                <mxCell id="1" parent="0"/>
                <mxCell id="-vdaZOA1BRxVRppYoBbc-1" value="" style="ellipse;whiteSpace=wrap;html=1;aspect=fixed;" parent="1" vertex="1">
                    <mxGeometry x="160" y="240" width="80" height="80" as="geometry"/>
                </mxCell>
                <mxCell id="-vdaZOA1BRxVRppYoBbc-2" value="" style="ellipse;whiteSpace=wrap;html=1;aspect=fixed;" parent="1" vertex="1">
                    <mxGeometry x="320" y="160" width="80" height="80" as="geometry"/>
                </mxCell>
                <mxCell id="-vdaZOA1BRxVRppYoBbc-3" value="" style="endArrow=classic;html=1;rounded=0;strokeColor=default;entryX=0.5;entryY=0.5;entryDx=0;entryDy=0;entryPerimeter=0;exitX=0.5;exitY=0.5;exitDx=0;exitDy=0;exitPerimeter=0;" parent="1" edge="1">
                    <mxGeometry width="50" height="50" relative="1" as="geometry">
                        <mxPoint x="199.99999999999997" y="280" as="sourcePoint"/>
                        <mxPoint x="360" y="200" as="targetPoint"/>
                    </mxGeometry>
                </mxCell>
                <mxCell id="-vdaZOA1BRxVRppYoBbc-7" value="" style="endArrow=none;dashed=1;html=1;dashPattern=1 3;strokeWidth=2;rounded=0;strokeColor=default;" parent="1" edge="1">
                    <mxGeometry width="50" height="50" relative="1" as="geometry">
                        <mxPoint x="200" y="279.8" as="sourcePoint"/>
                        <mxPoint x="360" y="279.8" as="targetPoint"/>
                    </mxGeometry>
                </mxCell>
                <mxCell id="-vdaZOA1BRxVRppYoBbc-8" value="" style="endArrow=none;dashed=1;html=1;dashPattern=1 3;strokeWidth=2;rounded=0;strokeColor=default;" parent="1" edge="1">
                    <mxGeometry width="50" height="50" relative="1" as="geometry">
                        <mxPoint x="360" y="200" as="sourcePoint"/>
                        <mxPoint x="360" y="280" as="targetPoint"/>
                    </mxGeometry>
                </mxCell>
                <mxCell id="-vdaZOA1BRxVRppYoBbc-9" value="dx" style="text;html=1;strokeColor=none;fillColor=none;align=center;verticalAlign=middle;whiteSpace=wrap;rounded=0;" parent="1" vertex="1">
                    <mxGeometry x="270" y="280" width="60" height="30" as="geometry"/>
                </mxCell>
                <mxCell id="-vdaZOA1BRxVRppYoBbc-10" value="dy" style="text;html=1;strokeColor=none;fillColor=none;align=center;verticalAlign=middle;whiteSpace=wrap;rounded=0;" parent="1" vertex="1">
                    <mxGeometry x="360" y="230" width="60" height="30" as="geometry"/>
                </mxCell>
            </root>
        </mxGraphModel>
    </diagram>
    <diagram id="Mw3XrfnN4hxLy-T143WJ" name="볼 월드">
        <mxGraphModel dx="1504" dy="1104" grid="1" gridSize="10" guides="1" tooltips="1" connect="1" arrows="1" fold="1" page="1" pageScale="1" pageWidth="827" pageHeight="1169" math="0" shadow="0">
            <root>
                <mxCell id="0"/>
                <mxCell id="1" parent="0"/>
                <mxCell id="s-IcAwwm1OIMDEhnEFkE-1" value="BallWorld" style="swimlane;whiteSpace=wrap;html=1;fillColor=#bac8d3;startSize=20;strokeColor=#23445d;" parent="1" vertex="1">
                    <mxGeometry x="160" y="80" width="200" height="200" as="geometry"/>
                </mxCell>
                <mxCell id="s-IcAwwm1OIMDEhnEFkE-2" value="" style="rounded=0;whiteSpace=wrap;html=1;fillColor=#60a917;fontColor=#ffffff;strokeColor=#2D7600;" parent="s-IcAwwm1OIMDEhnEFkE-1" vertex="1">
                    <mxGeometry y="20" width="200" height="180" as="geometry"/>
                </mxCell>
                <mxCell id="s-IcAwwm1OIMDEhnEFkE-3" value="Bound Area" style="text;html=1;strokeColor=none;fillColor=none;align=center;verticalAlign=middle;whiteSpace=wrap;rounded=0;" parent="s-IcAwwm1OIMDEhnEFkE-1" vertex="1">
                    <mxGeometry x="110" y="160" width="80" height="30" as="geometry"/>
                </mxCell>
                <mxCell id="s-IcAwwm1OIMDEhnEFkE-4" value="" style="ellipse;whiteSpace=wrap;html=1;aspect=fixed;fillColor=#0050ef;fontColor=#ffffff;strokeColor=#001DBC;" parent="s-IcAwwm1OIMDEhnEFkE-1" vertex="1">
                    <mxGeometry x="30" y="60" width="10" height="10" as="geometry"/>
                </mxCell>
            </root>
        </mxGraphModel>
    </diagram>
    <diagram id="Q9tcpl2ZhnJXWqUK91Qo" name="타원">
        <mxGraphModel dx="602" dy="442" grid="1" gridSize="10" guides="1" tooltips="1" connect="1" arrows="1" fold="1" page="1" pageScale="1" pageWidth="827" pageHeight="1169" math="0" shadow="0">
            <root>
                <mxCell id="0"/>
                <mxCell id="1" parent="0"/>
                <mxCell id="wEGVAeGN6HF9wvIm5Uhr-14" value="" style="group" vertex="1" connectable="0" parent="1">
                    <mxGeometry x="40" y="240" width="339" height="220" as="geometry"/>
                </mxCell>
                <mxCell id="wEGVAeGN6HF9wvIm5Uhr-12" value="" style="group" vertex="1" connectable="0" parent="wEGVAeGN6HF9wvIm5Uhr-14">
                    <mxGeometry width="339" height="220" as="geometry"/>
                </mxCell>
                <mxCell id="5EBT9D75zRO0ZO8j_2tC-1" value="" style="ellipse;whiteSpace=wrap;html=1;" vertex="1" parent="wEGVAeGN6HF9wvIm5Uhr-12">
                    <mxGeometry x="80" y="60" width="200" height="160" as="geometry"/>
                </mxCell>
                <mxCell id="5EBT9D75zRO0ZO8j_2tC-2" value="" style="rounded=0;whiteSpace=wrap;html=1;fillColor=none;dashed=1;" vertex="1" parent="wEGVAeGN6HF9wvIm5Uhr-12">
                    <mxGeometry x="80" y="60" width="200" height="160" as="geometry"/>
                </mxCell>
                <mxCell id="wEGVAeGN6HF9wvIm5Uhr-1" value="" style="endArrow=none;html=1;rounded=0;" edge="1" parent="wEGVAeGN6HF9wvIm5Uhr-12">
                    <mxGeometry width="50" height="50" relative="1" as="geometry">
                        <mxPoint x="80" y="50" as="sourcePoint"/>
                        <mxPoint x="80" y="20" as="targetPoint"/>
                    </mxGeometry>
                </mxCell>
                <mxCell id="wEGVAeGN6HF9wvIm5Uhr-2" value="" style="endArrow=none;html=1;rounded=0;" edge="1" parent="wEGVAeGN6HF9wvIm5Uhr-12">
                    <mxGeometry width="50" height="50" relative="1" as="geometry">
                        <mxPoint x="280" y="50" as="sourcePoint"/>
                        <mxPoint x="280" y="20" as="targetPoint"/>
                    </mxGeometry>
                </mxCell>
                <mxCell id="wEGVAeGN6HF9wvIm5Uhr-3" value="" style="endArrow=none;html=1;rounded=0;" edge="1" parent="wEGVAeGN6HF9wvIm5Uhr-12">
                    <mxGeometry width="50" height="50" relative="1" as="geometry">
                        <mxPoint x="290" y="60" as="sourcePoint"/>
                        <mxPoint x="320" y="60" as="targetPoint"/>
                    </mxGeometry>
                </mxCell>
                <mxCell id="wEGVAeGN6HF9wvIm5Uhr-4" value="" style="endArrow=none;html=1;rounded=0;" edge="1" parent="wEGVAeGN6HF9wvIm5Uhr-12">
                    <mxGeometry width="50" height="50" relative="1" as="geometry">
                        <mxPoint x="290" y="220" as="sourcePoint"/>
                        <mxPoint x="320" y="220" as="targetPoint"/>
                    </mxGeometry>
                </mxCell>
                <mxCell id="wEGVAeGN6HF9wvIm5Uhr-6" value="" style="endArrow=classic;startArrow=classic;html=1;rounded=0;" edge="1" parent="wEGVAeGN6HF9wvIm5Uhr-12">
                    <mxGeometry width="50" height="50" relative="1" as="geometry">
                        <mxPoint x="80" y="30" as="sourcePoint"/>
                        <mxPoint x="280" y="30" as="targetPoint"/>
                    </mxGeometry>
                </mxCell>
                <mxCell id="wEGVAeGN6HF9wvIm5Uhr-7" value="" style="endArrow=classic;startArrow=classic;html=1;rounded=0;" edge="1" parent="wEGVAeGN6HF9wvIm5Uhr-12">
                    <mxGeometry width="50" height="50" relative="1" as="geometry">
                        <mxPoint x="310" y="60" as="sourcePoint"/>
                        <mxPoint x="310" y="220" as="targetPoint"/>
                    </mxGeometry>
                </mxCell>
                <mxCell id="wEGVAeGN6HF9wvIm5Uhr-8" value="width" style="text;html=1;strokeColor=none;fillColor=none;align=center;verticalAlign=middle;whiteSpace=wrap;rounded=0;dashed=1;" vertex="1" parent="wEGVAeGN6HF9wvIm5Uhr-12">
                    <mxGeometry x="150" width="60" height="30" as="geometry"/>
                </mxCell>
                <mxCell id="wEGVAeGN6HF9wvIm5Uhr-9" value="height" style="text;html=1;strokeColor=none;fillColor=none;align=center;verticalAlign=middle;whiteSpace=wrap;rounded=0;dashed=1;rotation=90;" vertex="1" parent="wEGVAeGN6HF9wvIm5Uhr-12">
                    <mxGeometry x="294" y="125" width="60" height="30" as="geometry"/>
                </mxCell>
                <mxCell id="wEGVAeGN6HF9wvIm5Uhr-10" value="" style="endArrow=classic;html=1;rounded=0;entryX=0;entryY=0;entryDx=0;entryDy=0;exitX=1;exitY=0.75;exitDx=0;exitDy=0;" edge="1" parent="wEGVAeGN6HF9wvIm5Uhr-12" source="wEGVAeGN6HF9wvIm5Uhr-11" target="5EBT9D75zRO0ZO8j_2tC-2">
                    <mxGeometry width="50" height="50" relative="1" as="geometry">
                        <mxPoint x="40" y="100" as="sourcePoint"/>
                        <mxPoint x="300" y="80" as="targetPoint"/>
                    </mxGeometry>
                </mxCell>
                <mxCell id="wEGVAeGN6HF9wvIm5Uhr-11" value="(x,y)" style="text;html=1;strokeColor=none;fillColor=none;align=center;verticalAlign=middle;whiteSpace=wrap;rounded=0;dashed=1;" vertex="1" parent="wEGVAeGN6HF9wvIm5Uhr-12">
                    <mxGeometry y="20" width="40" height="30" as="geometry"/>
                </mxCell>
                <mxCell id="wEGVAeGN6HF9wvIm5Uhr-17" value="" style="ellipse;whiteSpace=wrap;html=1;" vertex="1" parent="1">
                    <mxGeometry x="480" y="300" width="160" height="160" as="geometry"/>
                </mxCell>
                <mxCell id="wEGVAeGN6HF9wvIm5Uhr-18" value="" style="rounded=0;whiteSpace=wrap;html=1;fillColor=none;dashed=1;" vertex="1" parent="1">
                    <mxGeometry x="480" y="300" width="160" height="160" as="geometry"/>
                </mxCell>
                <mxCell id="wEGVAeGN6HF9wvIm5Uhr-19" value="" style="endArrow=none;html=1;rounded=0;" edge="1" parent="1">
                    <mxGeometry width="50" height="50" relative="1" as="geometry">
                        <mxPoint x="480" y="290" as="sourcePoint"/>
                        <mxPoint x="480" y="260" as="targetPoint"/>
                    </mxGeometry>
                </mxCell>
                <mxCell id="wEGVAeGN6HF9wvIm5Uhr-20" value="" style="endArrow=none;html=1;rounded=0;" edge="1" parent="1">
                    <mxGeometry width="50" height="50" relative="1" as="geometry">
                        <mxPoint x="640" y="290" as="sourcePoint"/>
                        <mxPoint x="640" y="260" as="targetPoint"/>
                    </mxGeometry>
                </mxCell>
                <mxCell id="wEGVAeGN6HF9wvIm5Uhr-21" value="" style="endArrow=none;html=1;rounded=0;" edge="1" parent="1">
                    <mxGeometry width="50" height="50" relative="1" as="geometry">
                        <mxPoint x="650" y="300" as="sourcePoint"/>
                        <mxPoint x="680" y="300" as="targetPoint"/>
                    </mxGeometry>
                </mxCell>
                <mxCell id="wEGVAeGN6HF9wvIm5Uhr-22" value="" style="endArrow=none;html=1;rounded=0;" edge="1" parent="1">
                    <mxGeometry width="50" height="50" relative="1" as="geometry">
                        <mxPoint x="650" y="460" as="sourcePoint"/>
                        <mxPoint x="680" y="460" as="targetPoint"/>
                    </mxGeometry>
                </mxCell>
                <mxCell id="wEGVAeGN6HF9wvIm5Uhr-23" value="" style="endArrow=classic;startArrow=classic;html=1;rounded=0;" edge="1" parent="1">
                    <mxGeometry width="50" height="50" relative="1" as="geometry">
                        <mxPoint x="480" y="270" as="sourcePoint"/>
                        <mxPoint x="640" y="270" as="targetPoint"/>
                    </mxGeometry>
                </mxCell>
                <mxCell id="wEGVAeGN6HF9wvIm5Uhr-24" value="" style="endArrow=classic;startArrow=classic;html=1;rounded=0;" edge="1" parent="1">
                    <mxGeometry width="50" height="50" relative="1" as="geometry">
                        <mxPoint x="670" y="300" as="sourcePoint"/>
                        <mxPoint x="670" y="460" as="targetPoint"/>
                    </mxGeometry>
                </mxCell>
                <mxCell id="wEGVAeGN6HF9wvIm5Uhr-25" value="width" style="text;html=1;strokeColor=none;fillColor=none;align=center;verticalAlign=middle;whiteSpace=wrap;rounded=0;dashed=1;" vertex="1" parent="1">
                    <mxGeometry x="530" y="240" width="60" height="30" as="geometry"/>
                </mxCell>
                <mxCell id="wEGVAeGN6HF9wvIm5Uhr-26" value="height" style="text;html=1;strokeColor=none;fillColor=none;align=center;verticalAlign=middle;whiteSpace=wrap;rounded=0;dashed=1;rotation=90;" vertex="1" parent="1">
                    <mxGeometry x="650" y="365" width="60" height="30" as="geometry"/>
                </mxCell>
                <mxCell id="wEGVAeGN6HF9wvIm5Uhr-27" value="" style="endArrow=classic;html=1;rounded=0;entryX=0;entryY=0;entryDx=0;entryDy=0;exitX=1;exitY=0.75;exitDx=0;exitDy=0;" edge="1" parent="1" source="wEGVAeGN6HF9wvIm5Uhr-28" target="wEGVAeGN6HF9wvIm5Uhr-18">
                    <mxGeometry width="50" height="50" relative="1" as="geometry">
                        <mxPoint x="440" y="340" as="sourcePoint"/>
                        <mxPoint x="700" y="320" as="targetPoint"/>
                    </mxGeometry>
                </mxCell>
                <mxCell id="wEGVAeGN6HF9wvIm5Uhr-28" value="(x,y)" style="text;html=1;strokeColor=none;fillColor=none;align=center;verticalAlign=middle;whiteSpace=wrap;rounded=0;dashed=1;" vertex="1" parent="1">
                    <mxGeometry x="400" y="260" width="40" height="30" as="geometry"/>
                </mxCell>
                <mxCell id="wEGVAeGN6HF9wvIm5Uhr-45" value="width != height" style="text;html=1;strokeColor=none;fillColor=none;align=center;verticalAlign=middle;whiteSpace=wrap;rounded=0;dashed=1;" vertex="1" parent="1">
                    <mxGeometry x="170" y="470" width="100.5" height="30" as="geometry"/>
                </mxCell>
                <mxCell id="wEGVAeGN6HF9wvIm5Uhr-46" value="width = height" style="text;html=1;strokeColor=none;fillColor=none;align=center;verticalAlign=middle;whiteSpace=wrap;rounded=0;dashed=1;" vertex="1" parent="1">
                    <mxGeometry x="509.75" y="470" width="100.5" height="30" as="geometry"/>
                </mxCell>
            </root>
        </mxGraphModel>
    </diagram>
    <diagram id="-83uRwIlhXB1wlXh7c63" name="시간">
        <mxGraphModel dx="1504" dy="1104" grid="1" gridSize="10" guides="1" tooltips="1" connect="1" arrows="1" fold="1" page="1" pageScale="1" pageWidth="827" pageHeight="1169" math="0" shadow="0">
            <root>
                <mxCell id="0"/>
                <mxCell id="1" parent="0"/>
                <mxCell id="5RAWQ9sMt7nMGDpxwitx-2" value="" style="endArrow=classic;html=1;rounded=0;" edge="1" parent="1">
                    <mxGeometry width="50" height="50" relative="1" as="geometry">
                        <mxPoint x="80" y="280" as="sourcePoint"/>
                        <mxPoint x="600" y="280" as="targetPoint"/>
                    </mxGeometry>
                </mxCell>
                <mxCell id="5RAWQ9sMt7nMGDpxwitx-4" value="" style="endArrow=none;dashed=1;html=1;rounded=0;" edge="1" parent="1">
                    <mxGeometry width="50" height="50" relative="1" as="geometry">
                        <mxPoint x="120" y="200" as="sourcePoint"/>
                        <mxPoint x="120" y="280" as="targetPoint"/>
                    </mxGeometry>
                </mxCell>
                <mxCell id="5RAWQ9sMt7nMGDpxwitx-5" value="" style="endArrow=none;dashed=1;html=1;rounded=0;" edge="1" parent="1">
                    <mxGeometry width="50" height="50" relative="1" as="geometry">
                        <mxPoint x="240" y="200" as="sourcePoint"/>
                        <mxPoint x="240" y="280" as="targetPoint"/>
                    </mxGeometry>
                </mxCell>
                <mxCell id="5RAWQ9sMt7nMGDpxwitx-6" value="" style="endArrow=none;dashed=1;html=1;rounded=0;" edge="1" parent="1">
                    <mxGeometry width="50" height="50" relative="1" as="geometry">
                        <mxPoint x="360" y="200" as="sourcePoint"/>
                        <mxPoint x="360" y="280" as="targetPoint"/>
                    </mxGeometry>
                </mxCell>
                <mxCell id="5RAWQ9sMt7nMGDpxwitx-7" value="" style="endArrow=none;dashed=1;html=1;rounded=0;" edge="1" parent="1">
                    <mxGeometry width="50" height="50" relative="1" as="geometry">
                        <mxPoint x="560" y="200" as="sourcePoint"/>
                        <mxPoint x="560" y="280" as="targetPoint"/>
                    </mxGeometry>
                </mxCell>
                <mxCell id="5RAWQ9sMt7nMGDpxwitx-8" value="" style="ellipse;whiteSpace=wrap;html=1;aspect=fixed;fillColor=#000000;" vertex="1" parent="1">
                    <mxGeometry x="400" y="230" width="10" height="10" as="geometry"/>
                </mxCell>
                <mxCell id="5RAWQ9sMt7nMGDpxwitx-10" value="" style="ellipse;whiteSpace=wrap;html=1;aspect=fixed;fillColor=#000000;" vertex="1" parent="1">
                    <mxGeometry x="440" y="230" width="10" height="10" as="geometry"/>
                </mxCell>
                <mxCell id="5RAWQ9sMt7nMGDpxwitx-11" value="" style="ellipse;whiteSpace=wrap;html=1;aspect=fixed;fillColor=#000000;" vertex="1" parent="1">
                    <mxGeometry x="480" y="230" width="10" height="10" as="geometry"/>
                </mxCell>
                <mxCell id="5RAWQ9sMt7nMGDpxwitx-12" value="" style="ellipse;whiteSpace=wrap;html=1;aspect=fixed;fillColor=#000000;" vertex="1" parent="1">
                    <mxGeometry x="520" y="230" width="10" height="10" as="geometry"/>
                </mxCell>
                <mxCell id="5RAWQ9sMt7nMGDpxwitx-13" value="" style="endArrow=classic;startArrow=classic;html=1;rounded=0;" edge="1" parent="1">
                    <mxGeometry width="50" height="50" relative="1" as="geometry">
                        <mxPoint x="120" y="220" as="sourcePoint"/>
                        <mxPoint x="240" y="220" as="targetPoint"/>
                    </mxGeometry>
                </mxCell>
                <mxCell id="5RAWQ9sMt7nMGDpxwitx-14" value="dt" style="text;html=1;strokeColor=none;fillColor=none;align=center;verticalAlign=middle;whiteSpace=wrap;rounded=0;" vertex="1" parent="1">
                    <mxGeometry x="150" y="190" width="60" height="30" as="geometry"/>
                </mxCell>
                <mxCell id="5RAWQ9sMt7nMGDpxwitx-15" value="" style="endArrow=classic;startArrow=classic;html=1;rounded=0;" edge="1" parent="1">
                    <mxGeometry width="50" height="50" relative="1" as="geometry">
                        <mxPoint x="240" y="220" as="sourcePoint"/>
                        <mxPoint x="360" y="220" as="targetPoint"/>
                    </mxGeometry>
                </mxCell>
                <mxCell id="5RAWQ9sMt7nMGDpxwitx-16" value="dt" style="text;html=1;strokeColor=none;fillColor=none;align=center;verticalAlign=middle;whiteSpace=wrap;rounded=0;" vertex="1" parent="1">
                    <mxGeometry x="270" y="190" width="60" height="30" as="geometry"/>
                </mxCell>
            </root>
        </mxGraphModel>
    </diagram>
    <diagram id="9ZlWW6elT1Wvqgo8thkB" name="시간2">
        <mxGraphModel dx="602" dy="442" grid="1" gridSize="10" guides="1" tooltips="1" connect="1" arrows="1" fold="1" page="1" pageScale="1" pageWidth="1169" pageHeight="827" math="0" shadow="0">
            <root>
                <mxCell id="0"/>
                <mxCell id="1" parent="0"/>
                <mxCell id="atVpR7FsbyMv0hLBZnF2-1" value="" style="endArrow=classic;html=1;rounded=0;" edge="1" parent="1">
                    <mxGeometry width="50" height="50" relative="1" as="geometry">
                        <mxPoint x="80" y="280" as="sourcePoint"/>
                        <mxPoint x="520" y="280" as="targetPoint"/>
                    </mxGeometry>
                </mxCell>
                <mxCell id="atVpR7FsbyMv0hLBZnF2-2" value="" style="endArrow=none;dashed=1;html=1;rounded=0;" edge="1" parent="1">
                    <mxGeometry width="50" height="50" relative="1" as="geometry">
                        <mxPoint x="120" y="200" as="sourcePoint"/>
                        <mxPoint x="120" y="280" as="targetPoint"/>
                    </mxGeometry>
                </mxCell>
                <mxCell id="atVpR7FsbyMv0hLBZnF2-3" value="" style="endArrow=none;dashed=1;html=1;rounded=0;" edge="1" parent="1">
                    <mxGeometry width="50" height="50" relative="1" as="geometry">
                        <mxPoint x="130" y="200" as="sourcePoint"/>
                        <mxPoint x="130" y="280" as="targetPoint"/>
                    </mxGeometry>
                </mxCell>
                <mxCell id="atVpR7FsbyMv0hLBZnF2-4" value="" style="endArrow=none;dashed=1;html=1;rounded=0;" edge="1" parent="1">
                    <mxGeometry width="50" height="50" relative="1" as="geometry">
                        <mxPoint x="140" y="200" as="sourcePoint"/>
                        <mxPoint x="140" y="280" as="targetPoint"/>
                    </mxGeometry>
                </mxCell>
                <mxCell id="atVpR7FsbyMv0hLBZnF2-5" value="" style="endArrow=none;dashed=1;html=1;rounded=0;" edge="1" parent="1">
                    <mxGeometry width="50" height="50" relative="1" as="geometry">
                        <mxPoint x="480" y="200" as="sourcePoint"/>
                        <mxPoint x="480" y="280" as="targetPoint"/>
                    </mxGeometry>
                </mxCell>
                <mxCell id="atVpR7FsbyMv0hLBZnF2-6" value="" style="ellipse;whiteSpace=wrap;html=1;aspect=fixed;fillColor=#000000;" vertex="1" parent="1">
                    <mxGeometry x="340" y="230" width="10" height="10" as="geometry"/>
                </mxCell>
                <mxCell id="atVpR7FsbyMv0hLBZnF2-7" value="" style="ellipse;whiteSpace=wrap;html=1;aspect=fixed;fillColor=#000000;" vertex="1" parent="1">
                    <mxGeometry x="380" y="230" width="10" height="10" as="geometry"/>
                </mxCell>
                <mxCell id="atVpR7FsbyMv0hLBZnF2-8" value="" style="ellipse;whiteSpace=wrap;html=1;aspect=fixed;fillColor=#000000;" vertex="1" parent="1">
                    <mxGeometry x="420" y="230" width="10" height="10" as="geometry"/>
                </mxCell>
                <mxCell id="atVpR7FsbyMv0hLBZnF2-9" value="" style="ellipse;whiteSpace=wrap;html=1;aspect=fixed;fillColor=#000000;" vertex="1" parent="1">
                    <mxGeometry x="460" y="230" width="10" height="10" as="geometry"/>
                </mxCell>
                <mxCell id="atVpR7FsbyMv0hLBZnF2-10" value="" style="endArrow=classic;startArrow=classic;html=1;rounded=0;" edge="1" parent="1">
                    <mxGeometry width="50" height="50" relative="1" as="geometry">
                        <mxPoint x="120" y="220" as="sourcePoint"/>
                        <mxPoint x="130" y="220" as="targetPoint"/>
                    </mxGeometry>
                </mxCell>
                <mxCell id="atVpR7FsbyMv0hLBZnF2-11" value="dt" style="text;html=1;strokeColor=none;fillColor=none;align=center;verticalAlign=middle;whiteSpace=wrap;rounded=0;" vertex="1" parent="1">
                    <mxGeometry x="120" y="180" width="10" height="20" as="geometry"/>
                </mxCell>
                <mxCell id="atVpR7FsbyMv0hLBZnF2-13" value="dt" style="text;html=1;strokeColor=none;fillColor=none;align=center;verticalAlign=middle;whiteSpace=wrap;rounded=0;" vertex="1" parent="1">
                    <mxGeometry x="130" y="175" width="10" height="30" as="geometry"/>
                </mxCell>
                <mxCell id="SOjmMxLc10WTQaUIFX4U-1" value="" style="endArrow=classic;startArrow=classic;html=1;rounded=0;" edge="1" parent="1">
                    <mxGeometry width="50" height="50" relative="1" as="geometry">
                        <mxPoint x="130" y="220" as="sourcePoint"/>
                        <mxPoint x="140" y="220" as="targetPoint"/>
                    </mxGeometry>
                </mxCell>
                <mxCell id="SOjmMxLc10WTQaUIFX4U-2" value="" style="endArrow=none;dashed=1;html=1;rounded=0;" edge="1" parent="1">
                    <mxGeometry width="50" height="50" relative="1" as="geometry">
                        <mxPoint x="150" y="200" as="sourcePoint"/>
                        <mxPoint x="150" y="280" as="targetPoint"/>
                    </mxGeometry>
                </mxCell>
                <mxCell id="SOjmMxLc10WTQaUIFX4U-3" value="" style="endArrow=classic;startArrow=classic;html=1;rounded=0;" edge="1" parent="1">
                    <mxGeometry width="50" height="50" relative="1" as="geometry">
                        <mxPoint x="140" y="220" as="sourcePoint"/>
                        <mxPoint x="150" y="220" as="targetPoint"/>
                    </mxGeometry>
                </mxCell>
                <mxCell id="SOjmMxLc10WTQaUIFX4U-4" value="" style="endArrow=none;dashed=1;html=1;rounded=0;" edge="1" parent="1">
                    <mxGeometry width="50" height="50" relative="1" as="geometry">
                        <mxPoint x="160" y="200" as="sourcePoint"/>
                        <mxPoint x="160" y="280" as="targetPoint"/>
                    </mxGeometry>
                </mxCell>
                <mxCell id="SOjmMxLc10WTQaUIFX4U-5" value="" style="endArrow=classic;startArrow=classic;html=1;rounded=0;" edge="1" parent="1">
                    <mxGeometry width="50" height="50" relative="1" as="geometry">
                        <mxPoint x="150" y="220" as="sourcePoint"/>
                        <mxPoint x="160" y="220" as="targetPoint"/>
                    </mxGeometry>
                </mxCell>
                <mxCell id="SOjmMxLc10WTQaUIFX4U-7" value="dt" style="text;html=1;strokeColor=none;fillColor=none;align=center;verticalAlign=middle;whiteSpace=wrap;rounded=0;" vertex="1" parent="1">
                    <mxGeometry x="140" y="180" width="10" height="20" as="geometry"/>
                </mxCell>
                <mxCell id="SOjmMxLc10WTQaUIFX4U-8" value="dt" style="text;html=1;strokeColor=none;fillColor=none;align=center;verticalAlign=middle;whiteSpace=wrap;rounded=0;" vertex="1" parent="1">
                    <mxGeometry x="150" y="175" width="10" height="30" as="geometry"/>
                </mxCell>
                <mxCell id="SOjmMxLc10WTQaUIFX4U-9" value="" style="ellipse;whiteSpace=wrap;html=1;aspect=fixed;fillColor=#000000;" vertex="1" parent="1">
                    <mxGeometry x="180" y="230" width="10" height="10" as="geometry"/>
                </mxCell>
                <mxCell id="SOjmMxLc10WTQaUIFX4U-10" value="" style="ellipse;whiteSpace=wrap;html=1;aspect=fixed;fillColor=#000000;" vertex="1" parent="1">
                    <mxGeometry x="220" y="230" width="10" height="10" as="geometry"/>
                </mxCell>
                <mxCell id="SOjmMxLc10WTQaUIFX4U-11" value="" style="ellipse;whiteSpace=wrap;html=1;aspect=fixed;fillColor=#000000;" vertex="1" parent="1">
                    <mxGeometry x="260" y="230" width="10" height="10" as="geometry"/>
                </mxCell>
                <mxCell id="SOjmMxLc10WTQaUIFX4U-12" value="" style="ellipse;whiteSpace=wrap;html=1;aspect=fixed;fillColor=#000000;" vertex="1" parent="1">
                    <mxGeometry x="300" y="230" width="10" height="10" as="geometry"/>
                </mxCell>
                <mxCell id="SOjmMxLc10WTQaUIFX4U-18" value="" style="endArrow=classic;startArrow=classic;html=1;rounded=0;strokeColor=#1A1A1A;strokeWidth=1;fontSize=16;dashed=1;" edge="1" parent="1">
                    <mxGeometry width="50" height="50" relative="1" as="geometry">
                        <mxPoint x="120" y="160" as="sourcePoint"/>
                        <mxPoint x="480" y="160" as="targetPoint"/>
                    </mxGeometry>
                </mxCell>
                <mxCell id="SOjmMxLc10WTQaUIFX4U-19" value="" style="endArrow=none;html=1;rounded=0;" edge="1" parent="1">
                    <mxGeometry width="50" height="50" relative="1" as="geometry">
                        <mxPoint x="120" y="150" as="sourcePoint"/>
                        <mxPoint x="120" y="180" as="targetPoint"/>
                    </mxGeometry>
                </mxCell>
                <mxCell id="SOjmMxLc10WTQaUIFX4U-20" value="" style="endArrow=none;html=1;rounded=0;" edge="1" parent="1">
                    <mxGeometry width="50" height="50" relative="1" as="geometry">
                        <mxPoint x="480" y="150" as="sourcePoint"/>
                        <mxPoint x="480" y="180" as="targetPoint"/>
                    </mxGeometry>
                </mxCell>
                <mxCell id="SOjmMxLc10WTQaUIFX4U-21" value="n x dt" style="text;html=1;align=center;verticalAlign=middle;whiteSpace=wrap;rounded=0;fontSize=16;fillColor=default;" vertex="1" parent="1">
                    <mxGeometry x="275" y="150" width="60" height="20" as="geometry"/>
                </mxCell>
                <mxCell id="SOjmMxLc10WTQaUIFX4U-22" value="" style="endArrow=classic;html=1;rounded=0;strokeColor=#1A1A1A;strokeWidth=1;fontSize=16;exitX=0.5;exitY=0;exitDx=0;exitDy=0;" edge="1" parent="1" source="aQTwmeN-ietjjW_num-0-1">
                    <mxGeometry width="50" height="50" relative="1" as="geometry">
                        <mxPoint x="80" y="320" as="sourcePoint"/>
                        <mxPoint x="120" y="280" as="targetPoint"/>
                    </mxGeometry>
                </mxCell>
                <mxCell id="aQTwmeN-ietjjW_num-0-1" value="BallWorld" style="swimlane;whiteSpace=wrap;html=1;fillColor=#bac8d3;startSize=20;strokeColor=#23445d;" vertex="1" parent="1">
                    <mxGeometry x="40" y="320" width="120" height="90" as="geometry"/>
                </mxCell>
                <mxCell id="aQTwmeN-ietjjW_num-0-2" value="" style="rounded=0;whiteSpace=wrap;html=1;fillColor=#60a917;fontColor=#ffffff;strokeColor=#2D7600;" vertex="1" parent="aQTwmeN-ietjjW_num-0-1">
                    <mxGeometry y="20" width="120" height="70" as="geometry"/>
                </mxCell>
                <mxCell id="aQTwmeN-ietjjW_num-0-4" value="" style="ellipse;whiteSpace=wrap;html=1;aspect=fixed;fillColor=#0050ef;fontColor=#ffffff;strokeColor=#001DBC;" vertex="1" parent="aQTwmeN-ietjjW_num-0-1">
                    <mxGeometry x="20" y="30" width="10" height="10" as="geometry"/>
                </mxCell>
                <mxCell id="aQTwmeN-ietjjW_num-0-5" value="BallWorld" style="swimlane;whiteSpace=wrap;html=1;fillColor=#bac8d3;startSize=20;strokeColor=#23445d;" vertex="1" parent="1">
                    <mxGeometry x="170" y="320" width="120" height="90" as="geometry"/>
                </mxCell>
                <mxCell id="aQTwmeN-ietjjW_num-0-6" value="" style="rounded=0;whiteSpace=wrap;html=1;fillColor=#60a917;fontColor=#ffffff;strokeColor=#2D7600;" vertex="1" parent="aQTwmeN-ietjjW_num-0-5">
                    <mxGeometry y="20" width="120" height="70" as="geometry"/>
                </mxCell>
                <mxCell id="aQTwmeN-ietjjW_num-0-7" value="" style="ellipse;whiteSpace=wrap;html=1;aspect=fixed;fillColor=#0050ef;fontColor=#ffffff;strokeColor=#001DBC;" vertex="1" parent="aQTwmeN-ietjjW_num-0-5">
                    <mxGeometry x="30" y="40" width="10" height="10" as="geometry"/>
                </mxCell>
                <mxCell id="aQTwmeN-ietjjW_num-0-8" value="BallWorld" style="swimlane;whiteSpace=wrap;html=1;fillColor=#bac8d3;startSize=20;strokeColor=#23445d;" vertex="1" parent="1">
                    <mxGeometry x="300" y="320" width="120" height="90" as="geometry"/>
                </mxCell>
                <mxCell id="aQTwmeN-ietjjW_num-0-9" value="" style="rounded=0;whiteSpace=wrap;html=1;fillColor=#60a917;fontColor=#ffffff;strokeColor=#2D7600;" vertex="1" parent="aQTwmeN-ietjjW_num-0-8">
                    <mxGeometry y="20" width="120" height="70" as="geometry"/>
                </mxCell>
                <mxCell id="aQTwmeN-ietjjW_num-0-10" value="" style="ellipse;whiteSpace=wrap;html=1;aspect=fixed;fillColor=#0050ef;fontColor=#ffffff;strokeColor=#001DBC;" vertex="1" parent="aQTwmeN-ietjjW_num-0-8">
                    <mxGeometry x="40" y="50" width="10" height="10" as="geometry"/>
                </mxCell>
                <mxCell id="aQTwmeN-ietjjW_num-0-11" value="BallWorld" style="swimlane;whiteSpace=wrap;html=1;fillColor=#bac8d3;startSize=20;strokeColor=#23445d;" vertex="1" parent="1">
                    <mxGeometry x="440" y="320" width="120" height="90" as="geometry"/>
                </mxCell>
                <mxCell id="aQTwmeN-ietjjW_num-0-12" value="" style="rounded=0;whiteSpace=wrap;html=1;fillColor=#60a917;fontColor=#ffffff;strokeColor=#2D7600;" vertex="1" parent="aQTwmeN-ietjjW_num-0-11">
                    <mxGeometry y="20" width="120" height="70" as="geometry"/>
                </mxCell>
                <mxCell id="aQTwmeN-ietjjW_num-0-14" value="" style="endArrow=classic;html=1;rounded=0;strokeColor=#1A1A1A;strokeWidth=1;fontSize=16;exitX=0.5;exitY=0;exitDx=0;exitDy=0;" edge="1" parent="1" source="aQTwmeN-ietjjW_num-0-5">
                    <mxGeometry width="50" height="50" relative="1" as="geometry">
                        <mxPoint x="90" y="330" as="sourcePoint"/>
                        <mxPoint x="130" y="280" as="targetPoint"/>
                    </mxGeometry>
                </mxCell>
                <mxCell id="aQTwmeN-ietjjW_num-0-15" value="" style="endArrow=classic;html=1;rounded=0;strokeColor=#1A1A1A;strokeWidth=1;fontSize=16;exitX=0.5;exitY=0;exitDx=0;exitDy=0;" edge="1" parent="1">
                    <mxGeometry width="50" height="50" relative="1" as="geometry">
                        <mxPoint x="360" y="320" as="sourcePoint"/>
                        <mxPoint x="140" y="280" as="targetPoint"/>
                    </mxGeometry>
                </mxCell>
                <mxCell id="aQTwmeN-ietjjW_num-0-16" value="" style="endArrow=classic;html=1;rounded=0;strokeColor=#1A1A1A;strokeWidth=1;fontSize=16;exitX=0.5;exitY=0;exitDx=0;exitDy=0;" edge="1" parent="1" source="aQTwmeN-ietjjW_num-0-11">
                    <mxGeometry width="50" height="50" relative="1" as="geometry">
                        <mxPoint x="250" y="340" as="sourcePoint"/>
                        <mxPoint x="480" y="280" as="targetPoint"/>
                    </mxGeometry>
                </mxCell>
            </root>
        </mxGraphModel>
    </diagram>
    <diagram id="5sE-0t7m7_bvo5wm3CGN" name="페이지-10">
        <mxGraphModel dx="926" dy="566" grid="1" gridSize="10" guides="1" tooltips="1" connect="1" arrows="1" fold="1" page="1" pageScale="1" pageWidth="827" pageHeight="1169" math="0" shadow="0">
            <root>
                <mxCell id="0"/>
                <mxCell id="1" parent="0"/>
                <mxCell id="v2NCOjaRFuTE-1-w71II-20" value="" style="rounded=0;whiteSpace=wrap;html=1;fillColor=#000000;" vertex="1" parent="1">
                    <mxGeometry x="140" y="20" width="20" height="360" as="geometry"/>
                </mxCell>
                <mxCell id="v2NCOjaRFuTE-1-w71II-21" value="" style="rounded=0;whiteSpace=wrap;html=1;fillColor=#000000;" vertex="1" parent="1">
                    <mxGeometry x="560" y="20" width="20" height="360" as="geometry"/>
                </mxCell>
                <mxCell id="v2NCOjaRFuTE-1-w71II-22" value="" style="rounded=0;whiteSpace=wrap;html=1;fillColor=#000000;" vertex="1" parent="1">
                    <mxGeometry x="140" y="360" width="440" height="20" as="geometry"/>
                </mxCell>
                <mxCell id="v2NCOjaRFuTE-1-w71II-23" value="" style="rounded=0;whiteSpace=wrap;html=1;fillColor=#000000;container=0;" vertex="1" parent="1">
                    <mxGeometry x="140" y="20" width="440" height="20" as="geometry"/>
                </mxCell>
                <mxCell id="v2NCOjaRFuTE-1-w71II-2" value="&lt;p style=&quot;box-sizing: border-box; line-height: inherit; orphans: 4; margin: 0.8em 0px; position: relative; caret-color: rgb(51, 51, 51); color: rgb(51, 51, 51); font-family: &amp;quot;Open Sans&amp;quot;, &amp;quot;Clear Sans&amp;quot;, &amp;quot;Helvetica Neue&amp;quot;, Helvetica, Arial, &amp;quot;Segoe UI Emoji&amp;quot;, sans-serif; font-size: 16px; font-style: normal; font-variant-caps: normal; font-weight: 400; letter-spacing: normal; text-align: start; text-indent: 0px; text-transform: none; word-spacing: 0px; -webkit-text-stroke-width: 0px; background-color: rgb(255, 255, 255); text-decoration: none;&quot; class=&quot;md-end-block md-p&quot;&gt;&lt;/p&gt;" style="ellipse;whiteSpace=wrap;html=1;aspect=fixed;container=0;dashed=1;" vertex="1" parent="1">
                    <mxGeometry x="200" y="120" width="40" height="40" as="geometry"/>
                </mxCell>
                <mxCell id="v2NCOjaRFuTE-1-w71II-3" value="" style="endArrow=classic;html=1;rounded=0;exitX=0;exitY=1;exitDx=0;exitDy=0;entryX=0;entryY=0;entryDx=0;entryDy=0;" edge="1" parent="1" source="v2NCOjaRFuTE-1-w71II-2" target="v2NCOjaRFuTE-1-w71II-4">
                    <mxGeometry width="50" height="50" relative="1" as="geometry">
                        <mxPoint x="390" y="350" as="sourcePoint"/>
                        <mxPoint x="160" y="200" as="targetPoint"/>
                        <Array as="points">
                            <mxPoint x="160" y="200"/>
                        </Array>
                    </mxGeometry>
                </mxCell>
                <mxCell id="v2NCOjaRFuTE-1-w71II-4" value="&lt;p style=&quot;box-sizing: border-box; line-height: inherit; orphans: 4; margin: 0.8em 0px; position: relative; caret-color: rgb(51, 51, 51); color: rgb(51, 51, 51); font-family: &amp;quot;Open Sans&amp;quot;, &amp;quot;Clear Sans&amp;quot;, &amp;quot;Helvetica Neue&amp;quot;, Helvetica, Arial, &amp;quot;Segoe UI Emoji&amp;quot;, sans-serif; font-size: 16px; font-style: normal; font-variant-caps: normal; font-weight: 400; letter-spacing: normal; text-align: start; text-indent: 0px; text-transform: none; word-spacing: 0px; -webkit-text-stroke-width: 0px; background-color: rgb(255, 255, 255); text-decoration: none;&quot; class=&quot;md-end-block md-p&quot;&gt;&lt;/p&gt;" style="ellipse;whiteSpace=wrap;html=1;aspect=fixed;container=0;" vertex="1" parent="1">
                    <mxGeometry x="200" y="240" width="40" height="40" as="geometry"/>
                </mxCell>
                <mxCell id="v2NCOjaRFuTE-1-w71II-7" value="&lt;p style=&quot;box-sizing: border-box; line-height: inherit; orphans: 4; margin: 0.8em 0px; position: relative; caret-color: rgb(51, 51, 51); color: rgb(51, 51, 51); font-family: &amp;quot;Open Sans&amp;quot;, &amp;quot;Clear Sans&amp;quot;, &amp;quot;Helvetica Neue&amp;quot;, Helvetica, Arial, &amp;quot;Segoe UI Emoji&amp;quot;, sans-serif; font-size: 16px; font-style: normal; font-variant-caps: normal; font-weight: 400; letter-spacing: normal; text-align: start; text-indent: 0px; text-transform: none; word-spacing: 0px; -webkit-text-stroke-width: 0px; background-color: rgb(255, 255, 255); text-decoration: none;&quot; class=&quot;md-end-block md-p&quot;&gt;&lt;/p&gt;" style="ellipse;whiteSpace=wrap;html=1;aspect=fixed;rotation=-90;container=0;dashed=1;" vertex="1" parent="1">
                    <mxGeometry x="280" y="280" width="40" height="40" as="geometry"/>
                </mxCell>
                <mxCell id="v2NCOjaRFuTE-1-w71II-8" value="" style="endArrow=classic;html=1;rounded=0;exitX=0;exitY=1;exitDx=0;exitDy=0;entryX=0;entryY=0;entryDx=0;entryDy=0;" edge="1" parent="1" source="v2NCOjaRFuTE-1-w71II-7" target="v2NCOjaRFuTE-1-w71II-9">
                    <mxGeometry width="50" height="50" relative="1" as="geometry">
                        <mxPoint x="510" y="130" as="sourcePoint"/>
                        <mxPoint x="360" y="360" as="targetPoint"/>
                        <Array as="points">
                            <mxPoint x="360" y="360"/>
                        </Array>
                    </mxGeometry>
                </mxCell>
                <mxCell id="v2NCOjaRFuTE-1-w71II-9" value="" style="ellipse;whiteSpace=wrap;html=1;aspect=fixed;rotation=-90;container=0;" vertex="1" parent="1">
                    <mxGeometry x="400" y="280" width="40" height="40" as="geometry"/>
                </mxCell>
                <mxCell id="v2NCOjaRFuTE-1-w71II-11" value="" style="ellipse;whiteSpace=wrap;html=1;aspect=fixed;rotation=-180;container=0;dashed=1;" vertex="1" parent="1">
                    <mxGeometry x="480" y="240" width="40" height="40" as="geometry"/>
                </mxCell>
                <mxCell id="v2NCOjaRFuTE-1-w71II-12" value="" style="endArrow=classic;html=1;rounded=0;exitX=0;exitY=1;exitDx=0;exitDy=0;entryX=0;entryY=0;entryDx=0;entryDy=0;" edge="1" parent="1" source="v2NCOjaRFuTE-1-w71II-11" target="v2NCOjaRFuTE-1-w71II-13">
                    <mxGeometry width="50" height="50" relative="1" as="geometry">
                        <mxPoint x="330" y="50" as="sourcePoint"/>
                        <mxPoint x="560" y="200" as="targetPoint"/>
                        <Array as="points">
                            <mxPoint x="560" y="200"/>
                        </Array>
                    </mxGeometry>
                </mxCell>
                <mxCell id="v2NCOjaRFuTE-1-w71II-13" value="&lt;p style=&quot;box-sizing: border-box; line-height: inherit; orphans: 4; margin: 0.8em 0px; position: relative; caret-color: rgb(51, 51, 51); color: rgb(51, 51, 51); font-family: &amp;quot;Open Sans&amp;quot;, &amp;quot;Clear Sans&amp;quot;, &amp;quot;Helvetica Neue&amp;quot;, Helvetica, Arial, &amp;quot;Segoe UI Emoji&amp;quot;, sans-serif; font-size: 16px; font-style: normal; font-variant-caps: normal; font-weight: 400; letter-spacing: normal; text-align: start; text-indent: 0px; text-transform: none; word-spacing: 0px; -webkit-text-stroke-width: 0px; background-color: rgb(255, 255, 255); text-decoration: none;&quot; class=&quot;md-end-block md-p&quot;&gt;&lt;/p&gt;" style="ellipse;whiteSpace=wrap;html=1;aspect=fixed;rotation=-180;container=0;" vertex="1" parent="1">
                    <mxGeometry x="480" y="120" width="40" height="40" as="geometry"/>
                </mxCell>
                <mxCell id="v2NCOjaRFuTE-1-w71II-15" value="&lt;p style=&quot;box-sizing: border-box; line-height: inherit; orphans: 4; margin: 0.8em 0px; position: relative; caret-color: rgb(51, 51, 51); color: rgb(51, 51, 51); font-family: &amp;quot;Open Sans&amp;quot;, &amp;quot;Clear Sans&amp;quot;, &amp;quot;Helvetica Neue&amp;quot;, Helvetica, Arial, &amp;quot;Segoe UI Emoji&amp;quot;, sans-serif; font-size: 16px; font-style: normal; font-variant-caps: normal; font-weight: 400; letter-spacing: normal; text-align: start; text-indent: 0px; text-transform: none; word-spacing: 0px; -webkit-text-stroke-width: 0px; background-color: rgb(255, 255, 255); text-decoration: none;&quot; class=&quot;md-end-block md-p&quot;&gt;&lt;/p&gt;" style="ellipse;whiteSpace=wrap;html=1;aspect=fixed;rotation=90;container=0;dashed=1;" vertex="1" parent="1">
                    <mxGeometry x="400" y="80" width="40" height="40" as="geometry"/>
                </mxCell>
                <mxCell id="v2NCOjaRFuTE-1-w71II-16" value="" style="endArrow=classic;html=1;rounded=0;exitX=0;exitY=1;exitDx=0;exitDy=0;entryX=0;entryY=0;entryDx=0;entryDy=0;" edge="1" parent="1" source="v2NCOjaRFuTE-1-w71II-15" target="v2NCOjaRFuTE-1-w71II-17">
                    <mxGeometry width="50" height="50" relative="1" as="geometry">
                        <mxPoint x="210" y="270" as="sourcePoint"/>
                        <mxPoint x="360" y="40" as="targetPoint"/>
                        <Array as="points">
                            <mxPoint x="360" y="40"/>
                        </Array>
                    </mxGeometry>
                </mxCell>
                <mxCell id="v2NCOjaRFuTE-1-w71II-17" value="&lt;p style=&quot;box-sizing: border-box; line-height: inherit; orphans: 4; margin: 0.8em 0px; position: relative; caret-color: rgb(51, 51, 51); color: rgb(51, 51, 51); font-family: &amp;quot;Open Sans&amp;quot;, &amp;quot;Clear Sans&amp;quot;, &amp;quot;Helvetica Neue&amp;quot;, Helvetica, Arial, &amp;quot;Segoe UI Emoji&amp;quot;, sans-serif; font-size: 16px; font-style: normal; font-variant-caps: normal; font-weight: 400; letter-spacing: normal; text-align: start; text-indent: 0px; text-transform: none; word-spacing: 0px; -webkit-text-stroke-width: 0px; background-color: rgb(255, 255, 255); text-decoration: none;&quot; class=&quot;md-end-block md-p&quot;&gt;&lt;/p&gt;" style="ellipse;whiteSpace=wrap;html=1;aspect=fixed;rotation=90;container=0;" vertex="1" parent="1">
                    <mxGeometry x="280" y="80" width="40" height="40" as="geometry"/>
                </mxCell>
                <mxCell id="v2NCOjaRFuTE-1-w71II-24" value="1" style="text;html=1;strokeColor=none;fillColor=none;align=center;verticalAlign=middle;whiteSpace=wrap;rounded=0;dashed=1;fontStyle=1;fontSize=16;" vertex="1" parent="1">
                    <mxGeometry x="200" y="185" width="40" height="30" as="geometry"/>
                </mxCell>
                <mxCell id="v2NCOjaRFuTE-1-w71II-25" value="2" style="text;html=1;strokeColor=none;fillColor=none;align=center;verticalAlign=middle;whiteSpace=wrap;rounded=0;dashed=1;fontStyle=1;fontSize=16;" vertex="1" parent="1">
                    <mxGeometry x="340" y="285" width="40" height="30" as="geometry"/>
                </mxCell>
                <mxCell id="v2NCOjaRFuTE-1-w71II-26" value="3" style="text;html=1;strokeColor=none;fillColor=none;align=center;verticalAlign=middle;whiteSpace=wrap;rounded=0;dashed=1;fontStyle=1;fontSize=16;" vertex="1" parent="1">
                    <mxGeometry x="480" y="185" width="40" height="30" as="geometry"/>
                </mxCell>
                <mxCell id="v2NCOjaRFuTE-1-w71II-27" value="4" style="text;html=1;strokeColor=none;fillColor=none;align=center;verticalAlign=middle;whiteSpace=wrap;rounded=0;dashed=1;fontStyle=1;fontSize=16;" vertex="1" parent="1">
                    <mxGeometry x="340" y="85" width="40" height="30" as="geometry"/>
                </mxCell>
            </root>
        </mxGraphModel>
    </diagram>
    <diagram id="j90_qNGVC6bsTskb812Q" name="페이지-11">
        <mxGraphModel dx="517" dy="728" grid="1" gridSize="10" guides="1" tooltips="1" connect="1" arrows="1" fold="1" page="1" pageScale="1" pageWidth="827" pageHeight="1169" math="0" shadow="0">
            <root>
                <mxCell id="0"/>
                <mxCell id="1" parent="0"/>
                <mxCell id="DPYocG8ji3bvTCHekHMo-1" value="Ball World" style="swimlane;whiteSpace=wrap;html=1;startSize=20;fillColor=#f9f7ed;strokeColor=#36393d;" vertex="1" parent="1">
                    <mxGeometry x="160" y="80" width="280" height="200" as="geometry"/>
                </mxCell>
                <mxCell id="DPYocG8ji3bvTCHekHMo-2" value="" style="rounded=0;whiteSpace=wrap;html=1;fillColor=#eeeeee;strokeColor=#36393d;" vertex="1" parent="DPYocG8ji3bvTCHekHMo-1">
                    <mxGeometry y="20" width="280" height="180" as="geometry"/>
                </mxCell>
                <mxCell id="DPYocG8ji3bvTCHekHMo-3" value="Bound Area" style="text;html=1;strokeColor=none;fillColor=none;align=center;verticalAlign=middle;whiteSpace=wrap;rounded=0;" vertex="1" parent="DPYocG8ji3bvTCHekHMo-1">
                    <mxGeometry x="110" y="160" width="80" height="30" as="geometry"/>
                </mxCell>
                <mxCell id="DPYocG8ji3bvTCHekHMo-4" value="" style="ellipse;whiteSpace=wrap;html=1;aspect=fixed;fillColor=#000000;fontColor=#ffffff;strokeColor=#001DBC;" vertex="1" parent="DPYocG8ji3bvTCHekHMo-1">
                    <mxGeometry x="135" y="95" width="20" height="20" as="geometry"/>
                </mxCell>
                <mxCell id="DPYocG8ji3bvTCHekHMo-9" value="" style="ellipse;whiteSpace=wrap;html=1;aspect=fixed;fillColor=#000000;fontColor=#ffffff;strokeColor=#001DBC;" vertex="1" parent="DPYocG8ji3bvTCHekHMo-1">
                    <mxGeometry x="180" y="140" width="20" height="20" as="geometry"/>
                </mxCell>
                <mxCell id="DPYocG8ji3bvTCHekHMo-10" value="" style="endArrow=classic;html=1;rounded=0;fontSize=16;exitX=1;exitY=1;exitDx=0;exitDy=0;entryX=0;entryY=0;entryDx=0;entryDy=0;" edge="1" parent="DPYocG8ji3bvTCHekHMo-1" source="DPYocG8ji3bvTCHekHMo-4" target="DPYocG8ji3bvTCHekHMo-9">
                    <mxGeometry width="50" height="50" relative="1" as="geometry">
                        <mxPoint x="230" y="240" as="sourcePoint"/>
                        <mxPoint x="280" y="190" as="targetPoint"/>
                    </mxGeometry>
                </mxCell>
            </root>
        </mxGraphModel>
    </diagram>
    <diagram id="kv8dxY6vY9AwekiJQ8N3" name="페이지-12">
        <mxGraphModel dx="500" dy="704" grid="1" gridSize="10" guides="1" tooltips="1" connect="1" arrows="1" fold="1" page="1" pageScale="1" pageWidth="827" pageHeight="1169" math="0" shadow="0">
            <root>
                <mxCell id="0"/>
                <mxCell id="1" parent="0"/>
                <mxCell id="ycCfplkiSQTm6ZFdAVDq-1" value="" style="rounded=0;whiteSpace=wrap;html=1;fontSize=16;fillColor=none;dashed=1;" vertex="1" parent="1">
                    <mxGeometry x="160" y="160" width="240" height="160" as="geometry"/>
                </mxCell>
                <mxCell id="ycCfplkiSQTm6ZFdAVDq-2" value="" style="rounded=0;whiteSpace=wrap;html=1;fontSize=16;fillColor=#eeeeee;strokeColor=#36393d;" vertex="1" parent="1">
                    <mxGeometry x="240" y="200" width="80" height="40" as="geometry"/>
                </mxCell>
                <mxCell id="ycCfplkiSQTm6ZFdAVDq-4" value="" style="endArrow=classic;html=1;rounded=0;fontSize=16;exitX=0;exitY=1;exitDx=0;exitDy=0;" edge="1" parent="1" source="ycCfplkiSQTm6ZFdAVDq-1">
                    <mxGeometry width="50" height="50" relative="1" as="geometry">
                        <mxPoint x="240" y="330" as="sourcePoint"/>
                        <mxPoint x="160" y="120" as="targetPoint"/>
                    </mxGeometry>
                </mxCell>
                <mxCell id="ycCfplkiSQTm6ZFdAVDq-5" value="" style="endArrow=classic;html=1;rounded=0;fontSize=16;exitX=0;exitY=1;exitDx=0;exitDy=0;" edge="1" parent="1" source="ycCfplkiSQTm6ZFdAVDq-1">
                    <mxGeometry width="50" height="50" relative="1" as="geometry">
                        <mxPoint x="310" y="470" as="sourcePoint"/>
                        <mxPoint x="440" y="320" as="targetPoint"/>
                    </mxGeometry>
                </mxCell>
                <mxCell id="ycCfplkiSQTm6ZFdAVDq-6" value="(0, 0)" style="text;html=1;strokeColor=none;fillColor=none;align=center;verticalAlign=middle;whiteSpace=wrap;rounded=0;dashed=1;fontSize=16;" vertex="1" parent="1">
                    <mxGeometry x="120" y="320" width="40" height="30" as="geometry"/>
                </mxCell>
                <mxCell id="ycCfplkiSQTm6ZFdAVDq-7" value="(300, 200)" style="text;html=1;strokeColor=none;fillColor=none;align=center;verticalAlign=middle;whiteSpace=wrap;rounded=0;dashed=1;fontSize=16;" vertex="1" parent="1">
                    <mxGeometry x="400" y="130" width="80" height="30" as="geometry"/>
                </mxCell>
                <mxCell id="ycCfplkiSQTm6ZFdAVDq-9" value="" style="endArrow=none;dashed=1;html=1;dashPattern=1 3;strokeWidth=2;rounded=0;fontSize=16;entryX=0;entryY=1;entryDx=0;entryDy=0;" edge="1" parent="1" target="ycCfplkiSQTm6ZFdAVDq-2">
                    <mxGeometry width="50" height="50" relative="1" as="geometry">
                        <mxPoint x="160" y="240" as="sourcePoint"/>
                        <mxPoint x="290" y="280" as="targetPoint"/>
                    </mxGeometry>
                </mxCell>
                <mxCell id="ycCfplkiSQTm6ZFdAVDq-10" value="" style="endArrow=none;dashed=1;html=1;dashPattern=1 3;strokeWidth=2;rounded=0;fontSize=16;" edge="1" parent="1">
                    <mxGeometry width="50" height="50" relative="1" as="geometry">
                        <mxPoint x="240" y="320" as="sourcePoint"/>
                        <mxPoint x="240" y="240" as="targetPoint"/>
                    </mxGeometry>
                </mxCell>
                <mxCell id="ycCfplkiSQTm6ZFdAVDq-12" value="100" style="text;html=1;strokeColor=none;fillColor=none;align=center;verticalAlign=middle;whiteSpace=wrap;rounded=0;dashed=1;fontSize=16;" vertex="1" parent="1">
                    <mxGeometry x="120" y="225" width="40" height="30" as="geometry"/>
                </mxCell>
                <mxCell id="ycCfplkiSQTm6ZFdAVDq-13" value="100" style="text;html=1;strokeColor=none;fillColor=none;align=center;verticalAlign=middle;whiteSpace=wrap;rounded=0;dashed=1;fontSize=16;" vertex="1" parent="1">
                    <mxGeometry x="220" y="320" width="40" height="30" as="geometry"/>
                </mxCell>
                <mxCell id="ycCfplkiSQTm6ZFdAVDq-14" value="Y" style="text;html=1;strokeColor=none;fillColor=none;align=center;verticalAlign=middle;whiteSpace=wrap;rounded=0;dashed=1;fontSize=16;" vertex="1" parent="1">
                    <mxGeometry x="140" y="90" width="40" height="30" as="geometry"/>
                </mxCell>
                <mxCell id="ycCfplkiSQTm6ZFdAVDq-15" value="X" style="text;html=1;strokeColor=none;fillColor=none;align=center;verticalAlign=middle;whiteSpace=wrap;rounded=0;dashed=1;fontSize=16;" vertex="1" parent="1">
                    <mxGeometry x="440" y="300" width="40" height="30" as="geometry"/>
                </mxCell>
            </root>
        </mxGraphModel>
    </diagram>
    <diagram id="XXclDk8NU4XWS7UaaEvB" name="페이지-13">
        <mxGraphModel dx="750" dy="1056" grid="1" gridSize="10" guides="1" tooltips="1" connect="1" arrows="1" fold="1" page="1" pageScale="1" pageWidth="827" pageHeight="1169" math="0" shadow="0">
            <root>
                <mxCell id="0"/>
                <mxCell id="1" parent="0"/>
                <mxCell id="DtsbOFzCsyIKta8KuOOq-1" value="" style="rounded=0;whiteSpace=wrap;html=1;fontSize=16;fillColor=none;dashed=1;" vertex="1" parent="1">
                    <mxGeometry x="160" y="160" width="240" height="160" as="geometry"/>
                </mxCell>
                <mxCell id="DtsbOFzCsyIKta8KuOOq-2" value="" style="rounded=0;whiteSpace=wrap;html=1;fontSize=16;fillColor=#eeeeee;strokeColor=#36393d;" vertex="1" parent="1">
                    <mxGeometry x="240" y="240" width="80" height="40" as="geometry"/>
                </mxCell>
                <mxCell id="DtsbOFzCsyIKta8KuOOq-3" value="" style="endArrow=classic;html=1;rounded=0;fontSize=16;" edge="1" parent="1">
                    <mxGeometry width="50" height="50" relative="1" as="geometry">
                        <mxPoint x="160" y="160" as="sourcePoint"/>
                        <mxPoint x="160" y="360" as="targetPoint"/>
                    </mxGeometry>
                </mxCell>
                <mxCell id="DtsbOFzCsyIKta8KuOOq-4" value="" style="endArrow=classic;html=1;rounded=0;fontSize=16;" edge="1" parent="1">
                    <mxGeometry width="50" height="50" relative="1" as="geometry">
                        <mxPoint x="160" y="160" as="sourcePoint"/>
                        <mxPoint x="440" y="160" as="targetPoint"/>
                    </mxGeometry>
                </mxCell>
                <mxCell id="DtsbOFzCsyIKta8KuOOq-5" value="(0, 0)" style="text;html=1;strokeColor=none;fillColor=none;align=center;verticalAlign=middle;whiteSpace=wrap;rounded=0;dashed=1;fontSize=16;" vertex="1" parent="1">
                    <mxGeometry x="120" y="130" width="40" height="30" as="geometry"/>
                </mxCell>
                <mxCell id="DtsbOFzCsyIKta8KuOOq-6" value="(300, 200)" style="text;html=1;strokeColor=none;fillColor=none;align=center;verticalAlign=middle;whiteSpace=wrap;rounded=0;dashed=1;fontSize=16;" vertex="1" parent="1">
                    <mxGeometry x="400" y="320" width="80" height="30" as="geometry"/>
                </mxCell>
                <mxCell id="DtsbOFzCsyIKta8KuOOq-7" value="" style="endArrow=none;dashed=1;html=1;dashPattern=1 3;strokeWidth=2;rounded=0;fontSize=16;" edge="1" parent="1">
                    <mxGeometry width="50" height="50" relative="1" as="geometry">
                        <mxPoint x="160" y="240" as="sourcePoint"/>
                        <mxPoint x="240" y="240" as="targetPoint"/>
                    </mxGeometry>
                </mxCell>
                <mxCell id="DtsbOFzCsyIKta8KuOOq-8" value="" style="endArrow=none;dashed=1;html=1;dashPattern=1 3;strokeWidth=2;rounded=0;fontSize=16;exitX=0.5;exitY=1;exitDx=0;exitDy=0;" edge="1" parent="1" source="DtsbOFzCsyIKta8KuOOq-10">
                    <mxGeometry width="50" height="50" relative="1" as="geometry">
                        <mxPoint x="240" y="320" as="sourcePoint"/>
                        <mxPoint x="240" y="240" as="targetPoint"/>
                    </mxGeometry>
                </mxCell>
                <mxCell id="DtsbOFzCsyIKta8KuOOq-9" value="100" style="text;html=1;strokeColor=none;fillColor=none;align=center;verticalAlign=middle;whiteSpace=wrap;rounded=0;dashed=1;fontSize=16;" vertex="1" parent="1">
                    <mxGeometry x="120" y="225" width="40" height="30" as="geometry"/>
                </mxCell>
                <mxCell id="DtsbOFzCsyIKta8KuOOq-10" value="100" style="text;html=1;strokeColor=none;fillColor=none;align=center;verticalAlign=middle;whiteSpace=wrap;rounded=0;dashed=1;fontSize=16;" vertex="1" parent="1">
                    <mxGeometry x="220" y="120" width="40" height="40" as="geometry"/>
                </mxCell>
                <mxCell id="DtsbOFzCsyIKta8KuOOq-11" value="Y" style="text;html=1;strokeColor=none;fillColor=none;align=center;verticalAlign=middle;whiteSpace=wrap;rounded=0;dashed=1;fontSize=16;" vertex="1" parent="1">
                    <mxGeometry x="140" y="360" width="40" height="30" as="geometry"/>
                </mxCell>
                <mxCell id="DtsbOFzCsyIKta8KuOOq-12" value="X" style="text;html=1;strokeColor=none;fillColor=none;align=center;verticalAlign=middle;whiteSpace=wrap;rounded=0;dashed=1;fontSize=16;" vertex="1" parent="1">
                    <mxGeometry x="440" y="140" width="40" height="30" as="geometry"/>
                </mxCell>
            </root>
        </mxGraphModel>
    </diagram>
    <diagram id="9QXDuUIACJN7Muu4eWqc" name="페이지-14">
        <mxGraphModel dx="2172" dy="736" grid="1" gridSize="10" guides="1" tooltips="1" connect="1" arrows="1" fold="1" page="1" pageScale="1" pageWidth="1169" pageHeight="827" math="0" shadow="0">
            <root>
                <mxCell id="0"/>
                <mxCell id="1" parent="0"/>
                <mxCell id="FWLjK4Na1bXz4KOxD3bO-22" value="" style="ellipse;whiteSpace=wrap;html=1;fontSize=16;" vertex="1" parent="1">
                    <mxGeometry x="170" y="500" width="20" height="20" as="geometry"/>
                </mxCell>
                <mxCell id="FWLjK4Na1bXz4KOxD3bO-1" value="" style="endArrow=classic;html=1;rounded=0;fontSize=16;" edge="1" parent="1">
                    <mxGeometry width="50" height="50" relative="1" as="geometry">
                        <mxPoint x="120" y="600" as="sourcePoint"/>
                        <mxPoint x="120" y="200" as="targetPoint"/>
                    </mxGeometry>
                </mxCell>
                <mxCell id="FWLjK4Na1bXz4KOxD3bO-2" value="" style="endArrow=classic;html=1;rounded=0;fontSize=16;" edge="1" parent="1">
                    <mxGeometry width="50" height="50" relative="1" as="geometry">
                        <mxPoint x="120" y="600" as="sourcePoint"/>
                        <mxPoint x="960" y="600" as="targetPoint"/>
                    </mxGeometry>
                </mxCell>
                <mxCell id="FWLjK4Na1bXz4KOxD3bO-3" value="" style="curved=1;endArrow=classic;html=1;rounded=0;fontSize=16;dashed=1;strokeWidth=2;" edge="1" parent="1">
                    <mxGeometry width="50" height="50" relative="1" as="geometry">
                        <mxPoint x="120" y="600" as="sourcePoint"/>
                        <mxPoint x="920" y="600" as="targetPoint"/>
                        <Array as="points">
                            <mxPoint x="320" y="280"/>
                            <mxPoint x="720" y="280"/>
                        </Array>
                    </mxGeometry>
                </mxCell>
                <mxCell id="FWLjK4Na1bXz4KOxD3bO-4" value="" style="endArrow=classic;html=1;rounded=0;fontSize=16;strokeWidth=3;" edge="1" parent="1">
                    <mxGeometry width="50" height="50" relative="1" as="geometry">
                        <mxPoint x="120" y="600" as="sourcePoint"/>
                        <mxPoint x="180" y="510" as="targetPoint"/>
                    </mxGeometry>
                </mxCell>
                <mxCell id="FWLjK4Na1bXz4KOxD3bO-5" value="" style="endArrow=none;dashed=1;html=1;dashPattern=1 4;strokeWidth=1;rounded=0;fontSize=16;" edge="1" parent="1">
                    <mxGeometry width="50" height="50" relative="1" as="geometry">
                        <mxPoint x="120" y="510" as="sourcePoint"/>
                        <mxPoint x="180" y="510" as="targetPoint"/>
                    </mxGeometry>
                </mxCell>
                <mxCell id="FWLjK4Na1bXz4KOxD3bO-6" value="" style="endArrow=none;dashed=1;html=1;dashPattern=1 4;strokeWidth=1;rounded=0;fontSize=16;startArrow=none;" edge="1" parent="1" source="FWLjK4Na1bXz4KOxD3bO-22">
                    <mxGeometry width="50" height="50" relative="1" as="geometry">
                        <mxPoint x="180" y="600" as="sourcePoint"/>
                        <mxPoint x="180" y="510" as="targetPoint"/>
                    </mxGeometry>
                </mxCell>
                <mxCell id="FWLjK4Na1bXz4KOxD3bO-10" value="" style="endArrow=none;dashed=1;html=1;dashPattern=1 4;strokeWidth=1;rounded=0;fontSize=16;startArrow=none;" edge="1" parent="1" source="FWLjK4Na1bXz4KOxD3bO-24">
                    <mxGeometry width="50" height="50" relative="1" as="geometry">
                        <mxPoint x="120" y="360" as="sourcePoint"/>
                        <mxPoint x="720" y="360" as="targetPoint"/>
                    </mxGeometry>
                </mxCell>
                <mxCell id="FWLjK4Na1bXz4KOxD3bO-11" value="" style="endArrow=none;dashed=1;html=1;dashPattern=1 4;strokeWidth=1;rounded=0;fontSize=16;" edge="1" parent="1">
                    <mxGeometry width="50" height="50" relative="1" as="geometry">
                        <mxPoint x="720" y="600" as="sourcePoint"/>
                        <mxPoint x="720" y="360" as="targetPoint"/>
                    </mxGeometry>
                </mxCell>
                <mxCell id="FWLjK4Na1bXz4KOxD3bO-12" value="" style="endArrow=classic;html=1;rounded=0;strokeWidth=3;fontSize=16;strokeColor=#FF3333;" edge="1" parent="1">
                    <mxGeometry width="50" height="50" relative="1" as="geometry">
                        <mxPoint x="120" y="600" as="sourcePoint"/>
                        <mxPoint x="120" y="510" as="targetPoint"/>
                    </mxGeometry>
                </mxCell>
                <mxCell id="FWLjK4Na1bXz4KOxD3bO-13" value="" style="endArrow=classic;html=1;rounded=0;strokeWidth=3;fontSize=16;strokeColor=#3333FF;" edge="1" parent="1">
                    <mxGeometry width="50" height="50" relative="1" as="geometry">
                        <mxPoint x="120" y="600" as="sourcePoint"/>
                        <mxPoint x="180" y="600" as="targetPoint"/>
                    </mxGeometry>
                </mxCell>
                <mxCell id="FWLjK4Na1bXz4KOxD3bO-14" value="" style="shape=image;verticalLabelPosition=bottom;labelBackgroundColor=default;verticalAlign=top;aspect=fixed;imageAspect=0;image=data:image/png,iVBORw0KGgoAAAANSUhEUgAAAVMAAABZCAYAAACDp8emAAABWGlDQ1BJQ0MgUHJvZmlsZQAAeJx1kEFLAlEUhc/khJFCErUICqRlWYi2iwIzsMDFOBVUq8anaaD2ejMRQX9AimhZi6BFPyEiXAVt2wVFEG1bhyBByes+p1KLLlzux+G8x+EAHV0W5wUdQLHkCDMxE1xeWQ16X6BhAAHoGLWYzWOGkSQLvm/71O7JTXM3pv46OJzueb7ZvwiI3tTrZHXkr79tujNZm9H9oA0zLhxACxEbOw5XvEfcJygU8ZHinMvnitMuXzU8i2ac+JY4wPJWhviJOJRu0XMtXCxss68MKr0/W1paUP/QDiKJBIKYwyxMuilF//gnGv44NsGxC4EN5JCHQ69ipHAUkCWeRwkM4wgRRxCmjaqef/fX1BzqbaoMeHxNbe0YuHwA+k+a2jDl9Z0BlTK3hPXTqlbT7fVoxGW/ADrfpKwOAd4KUBdSvp9KWacOPY/A9dYnwiph00vHiA0AACH5SURBVHhe7Z0JvFVT+8fvvd3mpFJSipQkJAklU5SpaKJQIpnipTJESMosZEp6Q1IJmUKJDKWBhCgqpDKEDKV5utP/+9vvPve/77ln2Od2zx3Oefbnsz/n3r3X3nut31rrWc+8UlLsMAQMAUPAEDAEDAFDwBAwBAwBQ8AQMAQMAUPAEDAEDAFDwBAwBAwBQ8AQMAQMAUPAEDAEDAFDwBAwBAyBBEHgxx9/bNypU6dZ48aN65cgTSpwM9IL/KQ9aAgYAkmJwM6dO8stWrTomGnTpp3To0ePCzIyMqps3759elKC4Wm0EdNkHwHWfkPABwLLli079OGHH77r33//3atNmzZNdu3aVcF9rBK/WZypPl6T0EXSErp11jhDwBAoFAS2bdtW+eeff26Ynp6e1b59+9dvu+22gRDV93h5NmcZI6YpKcaZFspQs5cYAomNwFFHHbWQFh7hbeWgQYNaewipcaaJPQSsdYaAIRBHBCTZJj0RDeBrYn4cR5q92hBIAgRy3DYGfpOgyaGbaMQ0abveGm4IFBoCSU9IhaQR00IbT/YiQyBpETBiasQ0aQe/NdwQKAwERESNkLpIGmdaGEPK3mEIJC8CRkyNmCbv6LeWGwKFiIARUyOmhTic7FWGQHIiILcoxzUqJycn6aVcc9pPzklgrTYECgsBh4hCTJPe3zTpV5PCGlH2HkMgmREwYmquUck8/q3thkChIWBivsXmF9pgshcZAkmIgIxPSnQiEb/UG6I2bdpU9bXXXuv51VdftSbNYMV69eqtbteu3QwSunzsp29NzPeDkpUxBAyBUAiIgCr9XqknpCtWrGjSrVu3uYsXL27VokWLhQ0aNFjxzjvvdLvyyiunXnPNNRPImlUx2hAwA1Q0hOy+IWAIRELAcdwvzTpTuND0rl27TrrkkktG9erV6+lAY1evXj2uZ8+e73788cfdSDm4i+uXRQLCOFObKIaAIVBQBAJZo0RMldO0VB5z5sw59ddff20yf/78k//444+6gUYccMABqy666KLRUmN88MEHPUiQ3cyIaansYqu0IVBqEMiGmJaaygZXlKTXjbiWPnfu3K5Tp07t6b1/3HHHzeZ/6YXLL1y48HgjpqW2m63ihkDJQyA7Ozt17dq1deDmHCKkE5H4oD///HMf9oMqdarDI444YmGZMmU2paWlbW3WrNmXXsSrVq26MfD/li1b9ojUG6Wu4SVvaFmN4oXAjh07yn/xxRet2XeoRuPGjb8/+OCDl8XrW/beyAj8888/NbFsL6JURYhPGVesF/3I0JOzZ8/uytmBP3cefvjhmXvsscdfiM1HlgZctYsA4r1T1zp16vzurfMvv/zSkP/lrZDdsGHDFUZMS0OPFmEdxVmIQFWvXn09q3GJk89UvxdffPGSU0899UbcVfYoW7bsDowEVa677rqp991338AKFSrsLEK47FMgUL58+R1s6fxKxYoVd9AfGRo3qamp2TpFbGSAot/S1Hdwp2X1CzEtNdgFE9FAxdGVnsXfZWvWrPnTySefPKPUNMgqGn8E/vrrr1rnnHPOh4gzGzt37jxnzZo19eL/Vf9fEDc6cODAZ1W/G2644b/r16+vwU6YZW+66abHufbXvffeO8z/26ykIVBwBNClHgAX/lfz5s3Xw3WfVvA32ZMJicATTzxxI0RpO2cW5zY4veElpaFZWVlp11577fOqF/59L+r/QN1WrlzZiOt/4gO4Bt1c7eKus8Retj6+/c033+xe3HWx70dGYMaMGZ0efPDBYdLz+sUKSajcBRdc8C4qi3U48vfy85zpTP2glEBlXF2XdEByti6TmZlZrqQ0D0J/s3RvVapUWXvXXXcNwCggEdI5GjVqtPLII4/cgQhZ9f333z+TS+OLs95Dhgx5DDG2I+LuNoj+a966Fme97Nt5ESCa6cg+ffo8g9qhUuXKlTdz92E/GN1///13/vDDDwc/9NBDF5122mnT/TxjfqZ+UEqgMueee+6kfffdV4acXeiBVp133nnPl4Tm4XZy7HPPPXc9dUm/9NJLR+69995/BdeLybBN177++uuji7POUj18+umn7bQYEXL4ixHS4uyNyN9+9913u0BIK1Mqdb/99vvZT02fffbZq2fOnNnp6aef7u6XkPp5r5VJQATgRsugK91PusiS0DzV46yzzlog9cOxxx67CheUKqHq1bp161WU2cwC8G5x1huxsTP12CC97q233vp4cdbFvh0ZAYxm8zRm1Fe4cu0fDa833njj/FNOOeUrcaXesi+99NLFb731VrdIzxtnGg3dBLyfnp6eJY6qXLlyjltLcR+vvPJKb5T9GryZHTp0mIKYvyW4Tps3b66ydevWquJcsfDXKM46L1q06Fi+r4WoDKqHhcVZF/t2eATWrVu3108//dSEEjlIOn/Ur18/Imc6a9as08eOHXsjElK3gw466Dvvmz/88MOzNG+MmNqIK7EIiCsdN27cdVRQiSQy4CSmhKosTuEHBghYcYcuQkwVCSN7Q3arVq3mllhwk7xi9FNrxoojfdFPH0WCA9XRkbfccsto1GCTly9f3hz1QGcSnXR9++23z4Ur7YPu9SgxIJHe4csAJasqg76cfMyStX/kN6e2R/LLVPSHfOwqVaq0vahwUr1+//33+n///XdtVs7M/ffffyVRG5tEpMiE0/TQQw9dEqkuslriQ6gkDmEPqQV007sy67vbt29nSFTcvju+quimzsJdqwGvL4Ov3xrEsa9CVYQBrrhoZ7zyTUd3WhzHxo0bq5544olNVRc4nWXRuJ3iqGOiflNjjvFa3i8dEjEFCxHTDNLozQqHC1JRAxKcTELyqf3oo4/eQTnNdUntmZziRvV3FjrX1ZGwjUhMNYlGjRo1iIpcRgqqqui1Vg4aNOj2k0466YNQL5WD9ejRo2/EqXobaaseZPLlWmNLawcz0fceOXLkEHR5HSFQlXHZmXPHHXdcV7du3d+8bfryyy+Pbt++/QT0fXsiLlyMg+/78WwzHV8Zju4avnmxCCnGma34aFZQjPSAAQNmYMSpTd33oQ5HBOpx/fXXj6NsXdWRszr9VZ3+eoL7dwfKoCtqigXzTt3TNyhXjVW9KuXOo8y8zz//vDWK+YFHH310GxFsVAWZffv2XXD55Zc/BkbzYm0zOqrePFNJAx7MpocjzCSZaE4ZEfVsDGd/xPqdgpZfunRpsxdeeOFyFklhm4rva00mtcIKs1lMFEjwHAYoqUuy8dt96YQTTphd0G/Zc/kREAHFcb7Dq6++2hudeSswr3TGGWf82r9//7tRCU398ccfD2Kc11HOUbxBbsIW0BDmz1n84S5PdAlh2ddff703fXeGggxgdrbceeedkoacgwW9A/StHMEIf/NvYPuVwDbW+k2rUaPGP9WqVdsQqY8iEtPhw4ePIP3U6QyYe9A/1B4zZswQ/p6AHuI48v3lo9Lcv56B158PZp1++ulv81uqw//kl3bhhRe+Dae35e677x44ZcqUPp988kkXOrI2ndzWO/GHDh06GiuvFNyp6F0G8Rs3YkrHV7r44otnQPia4+A+pEuXLi8omkmcMVbmU+65555H4FYPhuAv93Y+906AOO7FtfKcFdyBk0dvjv9kLVnWGZCygGp8aGXPpL3pDzzwwDC+14NjorwAIKbln3zyyZshsB1YTE7EZakPUUu+o0Qg7LUIUTzJHfA7mBBhRbFvv/32KLe+GXCDq4qK8CxYsOC49957r7OwEDEVUeVvR9cMl7onGYdk1RfTkNGxY8dXiqpeyfAdiGTtyy67bAzj65QDDzxwCca+WyBo6xlnHW+++eYxgwcPbo9Yfr4k548++uh83NX6wrlWE/1xFz8R1UwRUPKUttTfnDnoQ/PQJRgBZYbSuVtHWGIKJT8Ph+5OEydO7KyYaHzq2qoy8vNjALXn79y8f4Ea4CN4tiYfxybSV62MpWboJ7popfc8E26DLj8bd3lDJLMRy96vVatWPlebaPVjMXlQIjsK6bOJNd6M429LJleH77//vqWiI3g+d1K7IrAzyX777Tfdi9tBn1z13XfftSYH4xhyMD7B6XwL3DVYZlK3s0l0+5kGjrcSENPGGHL2IIrovmnTpvXlnghpnjIQtDkMzv1k7Wclf462OkSMBeI6FpfaGItO9XLltPXLs88++zPGxV4jRoy4l2ff8+sqpHEEgRJhFzEqyxhrhyTUgkUqSxy2tsIQlwEhL0MftHDLZQdPhrgBzYvh8Mfwo9M5mLyzwER1yYHzaYZh48/APTjreFYlqd7NuKrXu3fvt8QUMCanPfbYY709YcQzIZwpBExo4EuqyYJzXA+jk2uBx2DUgYX/BfUTffYMzM4NAQBZ+OOCZUhiinhXCc5yKNzP2EByCSi7fPucyQelzxfPTePrw34rKUBW06ZNl8QSP02ceDU4msdYVapr4rrf8RLNwN/BvwLFu2WClzVX3HAW506AHEC5F2NBEIV0Czqz3TPPPHOuCKmeRQdzQmBCSz/pfR9E4Dzweg9uq47rHBzL52IqO2/ePCWUkN9cyAULvekqJIjpiMb5Ek2oLQzCORDTPi7O+b7tEsOfEPdna+GgQDoD8PiXX375pGD1Bj6rv4ITcH3dDmLbELFL1tM8HHG4xsEBC0/1n3TxmcTjX+H+L+IaUBGpTwO5MrVYZRLi90VMgBVSYcZp9bZt2zoTFsnsOy8hLaRP2GtAQAs+OswpENKm++yzzw+Mw0uD6QnRSc+6xDQTVdNm6NQ3XvAkXbnjOxWVVJEYCUMSU1bcs2lQRYly6D6dOsJGd3IrmxlqT5TPPvtME0PRNFlK+4+473tgIKJuQD+bq+uI8GAugXWTLDhEXcQ9QOADv14RnFh033UJFIRw9CXqZgX6QidbAyGMdXDgPUYdhJj5HWcey54MEeRCHH777bc/w0T7IdQHJbbIMoge7khxXxCFBdRtMjrAf2KpIH2jRScdtcOVLGKvi6AFP9+yZcv56FBDbrXA4JPByasbCvl5d8FwyuEC9AmL5LehCsK9yyCkcmWkv+LXFzH95ptvHDw1ZuAexqJ7lf423/HUU08NwqqqkL4cJIzf4Ex9vT/wIhnZWIBOYELuQO/2qV/OObgiLCjHwiVLzM8h09A86hRLt1lZnwhIcsJ7QwbHzH79+j0YYGa8j7tGSCc59SGHHPJ1MLEl25jokSPmMxc+9fnp3SoWjjOtwuB+OSAai9tApFTjUrEOfy4iE/xVl8tQ47IZaDFX3hWTI/px7VZLY3xYoqW2MIBAOk+ihjiXayJO2egoJ/J/vjcqL6Immjo3+CZcbSueexFr9RfogR7VYkCkxbXPP//8NUzSC+lw3/6KELUviVVvTtqwgyHGX6DPncDzn5CmbhnqlRUiFuh6pYbJp4rx1CvAxYdFhvcE+iMLnVVY/Td9l+uvqsxBfqDWnjoQtoATdSaqmJnBC1TgPbhLSax2iDqcYVgjVajvoiZIRVR/AYxP4X4WRtSJ/OaKfH7qGiiD7q6NW48sxvgnsTxbWsoyTo9GF6zFWkesKrVIzdR4c6RIJVwO5+OMBCyJUAmaK+Jv/Hs4PbTbF6JfqYz9eai+cr/tShCNNVeR0lYUlQQRkpiSqv9ZLyqswBeocZwZDMYpcFf5QKNxMiRItM6AM/28tAyecPXE2HK19x4ihazO2XCUO8Hg1VDPwTHKqTxFnLn3vsQWCMJERJbfUQf0dHWbKegZP4f7/wgr+3is560wdDnqhGgHCvMR6IQ6o2OuhUpmb7joAZzXaqAyANcPGzbspSuuuGJksEge9N6oxNSrzkF6CMs9g0lAJFcaNl/bV8idC52oMxk4doUT3eW2At6HUk6GsG3oZ19FbRMNotz7LDoHuoRUBCJ7+vTpvTDCDQWnrb5f4haUqoM/JX1tRXTcbWLKPOqFK84Q3ufgEKY+oa4HX8vtS7i4dTAAJwdCb2Nto1yD8Kls6z4Xrk4BNV/wGAqVzjFwTWNEC+0ujNpSlawPVbcJEyZczbiQ8TMbz4iZ4dSF0Bv1hcZalhgJ77vop1aMQ+niJeJLpRUrDAUqH9XPVK4J6ELlFsOcSduBqJtPtpF7ApzrvpTJRARbvOeee24sUG1K6EOI5c3PP//8w6heBllk5kOk1oSqqvzapL8JFitw/+mFlbweOtVHA4RUz/N3FpzpC+iEHkBkv4hLT/qBQElqGUzdSEs3ifcK99ywUAhFXbLcXIuqpjsK+d5Rtqn1w3k4nCbtCptD1CWmjsjl5reM2owNGzaIuDnP4F/6G8T631APoV46g+tONnfG1lIWqpisB6hQ/qbuG+UnrQnKd9bKNzZqBYMKUN9quASKqKdIpVMY3M4xxxyzAClFqo1QtgBvDaL1Uy4Rg5huKCgh1Qe1vbHc4fjTSzB1S3UIVg15iWcoQuptQ4AzTfFIPHlQljoGrlVJbPSdXbjazQrXT64Yn8m7djIm8kjCQVzrglj7uqDloxJTrMbNECcdQklev89CDSL0pQF/rgzEn7n4hBW0PiXyOSU9CAwk/DqnekUKb4VZcc9kAMwOnqy4cnQR4UCX+mNwA7kmI1IaZbry64uY6h2suPPgSg9l1e2BVfz0JUuWtGLC13Trmc69fXAfGce1ltH848KB7uVMQxkdA89Fuhfu3XKrcuuajQphKe5HIYtyXbhosdjBYjSKhSKmMYKVdwP91w+9600sXrvwk76jIDpTl9tx3MQ0xkOpeWKqGIVZFNX3u+2SE+t3I5VHXykJJ64HnkIh348U0QSCKunOIdoQyZCE0MO8ZaPyWhQcfuxKECG51ng2LCox9VJ59FrvwYbnq48baSA2Pqcg4o+CAyBQV6BHkzN07goWpeGhVuuQYgZi4ivoTn4qKJC4Q0nfpvZlsnKG9IWUcQmPhGNJHfcfRPncTyHKp2HEctyLEOM3BNfB3WMmFav5EUqM7McLQlwd5bZzSlR9zj1T2GKhAZxcB7jd68SxUq4OXLH0T+EmbERuwi+XWRBclbnd7etsDGgh+4ZJ0xiJRx4JWeiCl8pJuyDfQpqayXM6U5AACvKKFHceON4sGOOKjNspUGVL6UMKPnEJaY5UXnirhPQndvvCkca0sOEFkttiV196CBfSkCB/kdRTVHBEJaY4hku8jTiIcIuRG0Kq9IkFSfwgYwSD/GJ+q7kTLFT7I7lHBcqHIg6ZcH/fUyDkhPUD9KpVqxQ+mIPVemO4fWDIKNMdjnQTTuh5ch9ibW8AQZW+OSeUqBwgKhhKysm9jHL5uNfgOuJX+naTJk1kWe/nvcfgUxtH43nwevfu3eczsOrTNwqpCyamXpEtLAQu9xhNfHO8KdxJEE0czf0W4rf8fp13oxbaEKoS6IH7cF2TZisqjVujJZrw05cFLYNYeZxbXxFT+fDmHiL66KlHoK65Cr342oJ+I9mf84j/mrPLw0XDQUwlCTuWekloXtzgSo9xPS7SULfNDZZ46KPbmcdbr7766pGFjXdUYgp3U4uPOu4rcBD5Av3lvA7nJ3eYHKzJS8PpviJVXBFG3Nekj8uB+F3g94prRtxwXIyYKL+G6mBxlBhGLiMyaLzCOr0fIypKEUc6ckLpitxrDjGC+KlsVGJKnSoon6bqForA1K5dey0BB2+gbpEyP5R13Uv0whLAoMTRYct5vuGbmCppBIN6EwvoXqE8ABTGiyVXXHUZjHeTjj/++IJ3YoF7/38PuvpScTspWgTcRSv3rYT1/ocyNfB+yXXg381PJuXjLifqGKqgCSF16OI8mWsnUyadubMlWBXgkaSzUUvmMYTjbtUIj5orUGUoSrPQj6huLK7bi8NBBGJevbXAcng+/0v/lcYqUXp20PIJpYiVK4rnoM+Rj2G+g+igARCeVIwJjwXfVLy8CKlOj9U7t5j8TQP3lcTBZ7VSINK1ldkmXHl3yw+FzuVxZlZ5d49zRy0T5XsB53no3f8SvYQ63HuO24tf1yjpLWVp5ZlsVBL5tiEh2mwo2NVAn/oFYYSyeBfbIYnBtQ6n4NqWx1MDl8DWeAh0JlrsLtoUDc9ia0Np+LCSNyP5SeJKZ0zsHVxnvFcqENU0Htetuho3uCAuDvZBlSTIPY3FbIzFuX2l+YAL4QieWUZA0lvxwCMqMXUHvCqXjlW7hbcSiLbnsipfzzWHCGCdTDhiqnZhEVcy4hzceQ4gL8EBXgwwRHQi1PEaOqq/sjUFd5IrAjuTTLHdwfdDLVA+OzqV8M0HpIwPLq/VG6PUmfIsUPIN731x0agt9IykkjQG3/64ZTkuXd5D7lyElGpgSpxKRx/bSIlPvERVA1QcJJFPUk+obWngc6C+4acNSDQvUy5Dllnvfk/keOjPQtEDndcyYv977Y512k89opVhwqpfHfcvuM/crYCFPQatp/D1fZFQ0pDJf6K92+7nRYC8F3dxZRc2hFZwmVKtOIe4SvyFX8c+I/uFog93QJvyWfvdvnL83ekrJyGOxiyujsOJCDyMEPl+8VIXRRXLNDFwAP9IjUPEWQ33NQLr2UYyI52BsaMLBEITUf6Xm+fOndvAr69kaRpEEJx9weB9Vsv9MGR9o3h4GZNo78n44PYg6ukmYuFFGPIdypOIE7JE1DLoAFuxMubhFJWVCLcrcWhpGI7aoY+LGiqJmLNQSW8ZLGtwY6nMZH5evq1SQWjQET9/CXrTumS3Gki9HGKqpC0YyLRSi9CJkMpVSERenLGc7rczUBvimdHmqquumuSWUVnpLDVONIB17hw/fnxnEo80V3Yp977iowP+pXKhUrlt4HM4ngQbw/W1HOrxmZ2iRBYQ/Qm4Hr2P5b2jtprASvv1448/fmlJ0UGSLWwyrmYdpepBfzsYW0ITjKaXY5D8kP2CBnhd3krT2C6JdYU5uQp/1/vFiMgVUQl8xMgpEQ5c6V6MPUXOpbPongX+eQiqsrcxP6dBl6ow70YSZPSVNsTDK6kp8f19IcBxMx5GJaYCW1wKHOgAtmvoDndWl4Gzk0p9iv7hFVbmsZpIiD/zJ0+eLJ/AhDzEgZF67lr0rx1FmOD6tkv5TbjbSHQzX4drNNxd/TPPPFOiS9lJkyYdT9lF3rI4SLckSEJcTSriYnM/+9RAIGfxzjcYLP8F874KqoBz3F+5COS6BmH9jNjlcYcddtiSwLek99NumnIjkdFLA1W6TnHLqCjKaqsQnOEH4Z7SWMZAhV4itirjTo7uc6bLIV9qCwbrKIm+EMv22kPdLZcig5XEfJWXyoKsPkPgKiP6dCoPBBNnMIaCbqqD8gpgwZ/EAjOxpOwEIAyVx/SRRx4ZArE/RwuYIsLot9HMgcTyAywhs5dxeBCLalfcMuspUxSc/wyNayLgfkDy2gfucheJceq7ocx5ag2jdyopI7XgHYJReDPbkMwgLH5ElCCWom+5xLGAqEc45EDtrcK5Cb1h3P3Tir61ob8ow08kHWLwUxDd37V9MS5WihfOczAgTuTev7h4/BZIwhytnV6ROFpZu1/4CCQ7/lpwYSz6a4dWstOPQkIZCuHrpIWx8NH+/zcq1667n9M2FrKoYU1F3U9hrflS9kIgrydWtg1i5WS4hclqVsDhWRXF2nopl2Agyq1DTJtCCGM8sSwx745V50Ko5CcQ0jMwGsmpPs/hWvBT4Fjn+31vQZzOSwx4CVCRZMXfTd94L7Sgu2fLcEdXLskKfeU/+KE/QE6LZ+OBkRtCKrVTDnkdZofyefcOr3jUIdLwDWuAQiS8g/Rzg2nA6WSal1I4z0HkTXdEvYYCEvCewh3H3ELCIM1iJL1llsJSg4ugFHey41DGEgsnAKFN1CbIFxxm6TWpORCZ7yf7fTMMh3Xx5mkNl/iIQs0htjXwwhiBemeUXykrgBcqoxOhI+/wjVfR92uHiHwH+ZKlRpSeP4O4/dJj8EMvNx+WOodzJ7o5WbNzDyVupTEruberZ8+eM/1abxN1oPlpFwlNPkSBvhqds0JznUN/o0D/ngxdH6Jk95UgxM+3rIwhUNgIsM3HA0hP65Cw5DCf71AyeejBn67abwvGnsF+64A9oiZqLtGT7ZxbsS1cHvysjL3uu3ditIwtpthvReJVDiPDm1Q+G0I607vfNFbkhoj32uN8i/QWMmzEqw6J9F5C5fYWXijSl2KlHsR+NTegGF/MtTdl3EqktlpbEgsBvFhqoqr6A//MxRihu4TTRULkXnYJXjZeKX/KUOsHCXLNym4g24sSCf2DR0muS5Se535bxPpfuL9DuzpoLvl5b1GXCWvNh6Vuz8ZskwnrWkVs82tyh8I/8UAszj2oZCqJfB/FTWpUSbK4FjV4sX5PrkBELp0k0V4WcKzti4nb3+1UbrHWw8obArEgAAHthDvYeJ5RAMouGK2RpI2UW1yeQ25tBC/IrU7ukhk33njjQJLT5G75Eu6b8pTAK+JjiPYBRFmuRoobK2u9/JqVB5g5c5rSkVHmed45PJQ/dyztiVfZiK5RZEJvjpK3H35dR6ADSSME8GeyIs2hUVNwwYl5T6V4NcLeawgYAvFDgF0z+uJL+zhfUFh1Kj7Ac3Cfaxv8RblNwr3KHa+6ypGYZizO8nnyR4SrpTZX5J0X4ifaRrtaSEerXY4Vdqx8H0jDU/24DcYPhehvjhibD1u9mFdc5X0NDrUpyWK1jw6flTAEEh8BiKcCTRSM4aS1IwdHvhBloeBJWOMYtjFIVfOLDgEo2mb5Eff0+1iJKhc1nLRE1dYqYwgYAkWOAJzh50TTXYPecjrBFI+TJ/e2UJVwE34HDKk5ONuvK/LK2gcNAUPAECjtCGgjTtepXl5A28mlq+2OkuYwzjRputoaagjEFwF3RwpnexjyePzKdkdvxPeL9nZDwBAwBBIMgeXLlx8qtyb5nnOuJ5uatptJqsM406TqbmusIRAfBIiSHEqIqaz9O0my818s+caVxgdqe6shYAgkKgLk8OivZEc6iZR6sKgTjCQqrtYuQ8AQSCIEcKhXWsl1imAism9wLNnUkggma6ohYAgYAuER0EaCyjdBqOnfONz3NqwMAUPAEDAEYkRA+SQIM/+SBCVrCD0/NcbHrbghYAgYAoYAzvl7ktP0I0LLV5CGr1UoREgYfTPbilxtaBkChoAhYAiEQEAx8+yH9iYpOJdr/7JwILE191fkNvWdhi8RwDbXqEToRWuDIVAECCjhM3u+jSGfcWNydHRis7qQMfpsa9KQTFDVS3piksKGLGKik8L+mL3PEDAESicCstIPGzbsfvYs68Te9Xdoi3ASNtdTa/AvTZE7VGAjRcT707hciYxPa0pnawtWa1+7kxbs1faUIWAIJAoCTz755ECIpHKYVubcwhmgHdoqXGdgLyhJu84W4uQ+bgF3+kuiYBCtHcaZRkPI7hsCSY4A3OgJbGk+HBj2cKFQ8meHKXV/8zFlbAG+tsRtrRznfjRiGmeA7fWGQGlHYPXq1Q3ZGWIz7djucqAiniKk2W7bxI06O5QGrjdq1GiJ3912Szs+Vn9DwBAwBAwBQ8AQMAQMAUPAEDAEDAFDwBAwBAwBQ8AQMAQMAUPAEDAEDAFDwBAwBAwBQ8AQMAQMAUPAEDAEDAFDwBAwBAwBQ8AQMAQMAUPAEDAEDAFDwBAwBAwBQ8AQMAQMgaRA4P8A9Cn5mj/9G5oAAAAASUVORK5CYII=;" vertex="1" parent="1">
                    <mxGeometry x="-50" y="337.37" width="162.36" height="42.63" as="geometry"/>
                </mxCell>
                <mxCell id="FWLjK4Na1bXz4KOxD3bO-16" value="" style="shape=image;verticalLabelPosition=bottom;labelBackgroundColor=default;verticalAlign=top;aspect=fixed;imageAspect=0;image=data:image/png,iVBORw0KGgoAAAANSUhEUgAAAOAAAAA6CAYAAACpiFWoAAABWGlDQ1BJQ0MgUHJvZmlsZQAAeJx1kEFLAlEUhc/khJFCErUICqRlWYi2iwIzsMDFOBVUq8anaaD2ejMRQX9AimhZi6BFPyEiXAVt2wVFEG1bhyBByes+p1KLLlzux+G8x+EAHV0W5wUdQLHkCDMxE1xeWQ16X6BhAAHoGLWYzWOGkSQLvm/71O7JTXM3pv46OJzueb7ZvwiI3tTrZHXkr79tujNZm9H9oA0zLhxACxEbOw5XvEfcJygU8ZHinMvnitMuXzU8i2ac+JY4wPJWhviJOJRu0XMtXCxss68MKr0/W1paUP/QDiKJBIKYwyxMuilF//gnGv44NsGxC4EN5JCHQ69ipHAUkCWeRwkM4wgRRxCmjaqef/fX1BzqbaoMeHxNbe0YuHwA+k+a2jDl9Z0BlTK3hPXTqlbT7fVoxGW/ADrfpKwOAd4KUBdSvp9KWacOPY/A9dYnwiph00vHiA0AABT2SURBVHhe7Z0JnE11G8dnMTMZBtnJbrzWLDG27Ft2ZacUKoQo66te6a2Xil4kRJZkDXkRQpYQhizJvmQpsjODMZj1/T6nc+7n3Lnnzr2HGY36n8/nfO7cc57zX37n/+zP/46PjzoUAgoBhYBCQCGgEFAIKAQUAgoBhYBCQCGgEFAIKAQUAgoBhYBCQCGgEFAIKAQUAgoBhYBCQCGgEFAIKAQUAgoBhYBCQCGgEFAIKAQeVQR8H9WBq3ErBP4sBKKjo/137NhR5+rVq7mKFi16rGLFinv+rLGofhUCKYrA77//nidFG0zhxmbPnv1K9erVT8F0559++umTTz755K1XXnll4a1bt9KncFeqOYXAw0Pg8uXLWZ599tnNLOgbjRo12n3ixIkiD693zz3dvXvXt1+/frMYX/TgwYOn3rhxI7M89f7774/i2u233nprnOdWFIVCII0iMGXKlH4s5ChZzPL5zjvvjElLQ3399ddnM657PXr0WGge18WLFx/n+tVy5crdPHPmTH67Y/az+4CiVwikBgL+/v7xtCtnjP6ZZuITn3zyydBNmza1zZAhw2U0Xl/z/HPnzh2RMWPGKwkJCUHfffddS7vYKAa0i5iiTxUEnnvuufnFihXbS+MJuXLlOvXCCy9MTZWObDa6e/fuyjNmzPgnj/l17959DGO7krQJGDOaa7E///xzZZvNK3KFQNpCgMji42lpRC1bttyBiRlTtWrVcwRagq3GVqtWrYPiu0K7ze7YlQa0i5iiT1UEsmfPHpGqHdho/Kuvvupy+vTpMmISP/PMM4tCQkJE07kcBGSyctE3Kioqi43mNVLFgHYRU/R/GwRmzpw5QOeRuBYtWiyymviRI0eK4/+JZvRLTEy07bf+KQx4/fr1jIR1/f82bzKVJwqWyb5HCaFHRERkSOVhuDRPKqFYeHh4zR9//LE6aYZsBgF+VRVPY0GbBHqiuXfvnp+cSemuXbuWyeq6p/bM99esWdP0woULBbkWlzNnzrOVKlXaYfX80aNHn+R6gGjA4ODgW3b6ENp0dh9wR79169Zq48eP/9exY8cKBQUF+TRv3nz5u++++1ZSeiJKg+vWrTs4R44c5y5dulQfpzbNmBwphcXDaAfssn700UejNm/e3Lhy5crBzz///J733nuvL5UZJ839s9grNWzYcA7+S/ZVq1Z1b9as2YrUHB/9BE6bNm3A0qVLu7Zt2/Zxjut37tzJSPVI+pdffnkzf2cijyYL+x/GOPr37z+bBHzh27dvZ+D5rDBf8MSJEydz/12D5pdffgllfp/cvHkzhLaCocvGvDN8+umn7aHZBKM/PXXq1CH79u2rWqdOHX8/Pz+fjh077qHPccx/jd05M/4XdMaKqV279qoNGzZYNnH48OFy+o2EbNmyXbDbT4powG+//bZ57969V5AL2Q/47R977LG4JUuWvAazvWkeENKixPTp04ejskNYQMWWLVv2vN0BK3ofH3JP2YgSbjh37lzo2LFjX0agrdy/f39DEsVOOSrBirD5uMjIyDzx8fEZeDdDUhu/bt26rfnyyy+H9uzZc8y2bduKEr4vuXPnzvyzZs1qQoAl74EDB2ozBifrB6FdBgYrzXyK4U/lYqwh0DitTRgu5Pjx48VPnjxZEs1UBCbNJqYfZ8CoUaPeh6mnValSZfOkSZM6wJSdiKgeOHToUO0BAwYsgJna2Zk3FloIY64rWo0zlsoXa+7jJvMpLzSc8QUKFPjFTj9C+8AaENPCD/t44osvvjhl0KBB/xo+fLhP48aNIwCy0Pr16yUv4qgQQDPeDQgIiI6NjQ0SgJF6BewO+GHTIyTa8fK1qof7OBItnpFr2lmvXr21TzzxhG2pCVONxdyJxkdpQQ7qDoKu4saNG2N+++238vgkpUuWLHnI6Be627I4OO+xcAvdxxy8fgTh2ouxVGM9TEdAzDA/SOnWLoRuk1atWv3M9QTzPcy9p+S7VJUsWrSot4GPmaZChQo/8T2U9ZZx4MCBs9F0tfgeINoW8zorz9XPmzevA0uYPbxp06YH0bi5EVIjoV3s7UQQHHURAtoalT4QIo3HjBlT1dfXN4EzHl/Ph/t+ML/vwoULJfUg79O/ePHiB73tw6B7YAZE2o0gDxIpzCeNIp2DUPmhMngY7p55QIULFz6DKu+CVFrI4P0zZcp0w+6AHyY9JlF6ol8jxdzx0K/D+eYFJRqnPCMvTf+U6/K39skZIwKJ71/ZmRMSt3Tnzp0bY261E+aTZ/fs2VNHFoC0HRgYKIlsx4Fb0BmttPbs2bP/IIqXqnhv3769kbx3GOGc1ZxwNyIp2VqOudjY6n5YWNg2GOl17jkxqJkWfywKDbcVBmwg8B48eLDKggULapmZT+iJpkZRtUJX4S2xAHKToyuPhbbPG6zxWWvKPDjjhH758uWd+BBekfdsvGujcMAQqPHly5ff7U37ZpoHZkDUeyf8j+lIYK1dPsWszCh/U6y6/uuvv3YaU/369dfBgEvWrVvXuVChQk7+ikEIaNXQPJ0wSYpkzpz5OnmWtdQJzse0tdIodufsNT2CRRa4w1fx+kEvCdu3F/fF3sEC7QZuJzCLtsiTSPqsYFqHPwNYhEfxAU+YW2TRX6dCYwRaYynPHbfq7fz587nmz5/fg8VcWaR72bJlw/GfZqKdL9oZHb5ZJugDFy9e/Bom5dLQ0FCX/ghmbMOPy/r999+7NI11JKacscjdvmu9akYYJIH8W3ipUqUsNU/69Ok1ASVtXrlyJZe3c0HIVZK25WzduvWsvn37igbV2tE/5V4c5XNDeB89+DsxS5YsFxiLbQ34QD4gJk02Ot2OY7/AmByOvkiLxzjvYG7Mt5o0z+ySyQHcgaT3J0yYMKhXr16LeXlHcbr7sxBmzJkzpw9Sf71ET70F8a9KJxrupZdemmTMb/Xq1W2xJqQS3xe8Z7nBWypMfDBN9yW9v3fv3rA2bdrsOXXqVCmYdPjQoUOHYcXkR+CFb9myRfw1r4/SpUvLtpwE3lOBDh06bBk2bNgkYgGd8E8rEInVopos6IUEWCTA4XKI5eBNZzCqaHlNSxYpUuSIu2cIxAiNxjRg5PVap6azKI/IWBIQdBsJGF7Xz2t8yhnBeQstLOantJsofrg3Y09VGqReQZjrohTTwjBuo22YRUOoLDgTFxfnlDfB1q7Hs9d5QQPNA/3111/zod4vEGRw8itSdTKPSOMwTziYJaK17mBm5rMaNn5hGWhiwVdMRMdBICOAhXMKZhOB6HRg1ayuVq3aSTSsaDWvDnz6vFg9v9JXPKdoJymsviHrAR/wMoGSz2B0WdyWB9ZTQ70g++aHH374b3d0n3/+eW+93Rvjxo0b5o4Ot2iK7F6QLUNr165t6s0kwDAP9KLNrnHicl7ObvUcVkNOnSaCzyu7du0SrWn78FoqeNMy2k/MT4lgxROIcbY9TQ0gdWsQsdqYLl06J4lHzZ0wnh8LYp65v4IFC5576qmntmG2tCAS5vYFejPGvxINUeWS4FGeOcWVKVNme/78+S19L/CuIsEvzL8fzPPHt+kCgxXAgpmbFBfKquZJpBHTtKe3mGGynoc5mjOO/Twj5qT4pZJ/zBATE/M4wZYu7dq124H70SSZNs1+VnJda2sHi0D8aMtD16hC53WCHH9Rqlo0rYYfeRmf86pV4wgLmYPMzxctfAj/1bb/J+2mKAMiZTrQplQFxOCXWGpACfHiEFcnV7PaPDFJ1HK9Bkx5J1++fC6+B0woIV5/IqvNvV0Qf3U6FnIz/R3Gg/f/3M2XXGFTFsgGI2hj0BEQayULTcfW6XH8RcE7EbyftYMjZugB4gJhpAY6I4Rn45dKRDaSU6KxiTBiJiLlM3nfstCTHgazJMswummpMWByZit0EijRgiTeVqkQoRdTWesfN8gRTU46UNZ6G65pm3BxCSbawchM+8BBGKMxUclEDEU7xRHtPII0vG41KNmyIUxGCN6JAXF8KwKSP4vkptVzRPDkuh90YUnv03dueSlsDbl8v0C4ew5HeyCawFwgbF4c7tIM7ppzpCAgSCBcv5DQ9bH7HTO5qjr6AhNfxTWqwU00XJYGDRrUY39dbyKnTl0ZWFpFR3W8ffCHihMFTsd3LSKY3AFT5SDwEU10V5htiX5qY8D8bUKaYhBmalGiy5kI1HTj/n/dtJcsA5o0m6ch2b6PRpXIvfZeER6/WTUAJgWwEKrJPXJ/R3mPMtf7OlKMAbHtizMCAS5OnPFvvvnGckBEN1/E71hFdDPKTEAOq7A8nzR1YdDo1/2gc4pKEtae8Oqrr9bkJefE6f/fBx98IGFsxyGBBPyJD0aMGPEGZu+PdlAih+TXpUuXlizAHPpzxsKQTzPzWTGimdbcrQQGtH1vMJ+YavfNgBQKl9AxiyLActhqbitWrOgEdtGkhpab7+sCU8zDRD0d4vS4jneCCEX8omLcdBvsMB5k0+qXRF3FeulubgxTLpLvC8jXLSXyu4MgTxECMx7L0dy9K8rMJEdnmKqezEt378GyeUzO87KGOSVNJuN2Ocj9dQUX4Z2oIUOG/BPz3qvgkVVbKcaALFZjq0Yimuh3q87Ir4Tx+xll33777UEff/yxEwn1e7LI4/UQs8vjXBdQ/LDRHTk52SgJc9zB96zQp0+f+StXrnyJqoqJZq0yb968Xiyg4kThbP9mB9JcmMVWJNDdorG6jhljh9yFVkq35CKLxtL3k3vkyF7D75qWtJIfZhC8NUGiY+vUPlaK+HCysPxwG4TWIwOSnE5HMKKW1PmSMhIh43RQlnaX8rllc+fOHezGdPTETFp70o8+9mTpYRJxsYRW5uLVAZaRpL0ug08+K7MVQZ+RBL/EOnzRfLMoU9vkVcNuiFLMB8yaNas4q5qJBTNaFv6iiUbj8C8iauSSfkCqSerCSFa7DNcwO3i5QueDKZMb6d6eSNdw+U7ZkVRTBLGYnJK4EvDh2TiihLa034OA+rCepfbwko63ZXqGhPUgfK4ALASXn3cwCSStcMDNmLXrusbxZlrxmOuZsXI6uiPGx9IKl0uUKLEvKY04ajqzGKa6u2YcgRWpRnFL9MfuBM2n+6Np7w4i9FqOFZM6d9InRo8e/R/Wdzb8wz0oErcRWO96SsEgDFG4vUg40Xz+JNKlSsHpIMc0iZcegJkou4tdDqNKRJdaLvd1oGWxaL4IVRe1KfhejKSNQepWRoMWJnCwD2AciWiuh9FnCMnpI4zNSMp6i02ap6tZs6YUGScglfOQaihpHjBWQUtK1fqPHDmyB+a++GROh850WmWO1UTN0l8PeniDhyx4f9JMo/AvyyV9AE0aTPSwFSbbbXbAOyKvLOgANE6wvrNAIovpcDVCKV3LQXJfE7hyQBfIXEN001vM0CBqQ0vJJl7oHNYclkEgzz9BIYe4RXIEEy0uQ/+ZxK3wNBH8OylbS6CQXSpiHMdnn33WR/KuUvBAzWlnCjWcqo48tWt1P8VMUHyGRKJyfbGJZ0tSl2LcOajqr0VjUQ3TlSqLzISo22NXWzIC5p62SNwlTHWzw4faRs13xKxyFB6jCUXi+sKQ8/nbMU9M3hpynRzUViJz94NPmn4Gs3sMgZh6LLSS5EgXY9qNpSLjmtQyEml8Tvxe8nJOqQdjQjqOGgMa2JonS47WWBuJEljxEghNGyHsrhAZXEvgZx7Yh4tbAdOE8s66wAS5GVdvIq9nhRbGy8KuBrGIpD9hDjEXY3744YcmBI+kZO0eWrUwAqYsdMv4rjEop5Z+IErbWq85jkEot4PxCqHBxnJLNK0wr7QXSwBoIKfEB+7C2GFSIeRuTjVq1NjKDo1vEBYt3njjjSlEmFfxd6PJkyc3Q9HsRMD04PlrXmKSLFmKMaD0gqO/ju0Zdb744ou+1CdWp5JlDA74Ja6vxAyagCR2q4WoLBBzykcPA7sMWjeDJDfjkqLgBUhIOJYorLwgx8GPp9bnS6KUP6UEWGmtDanKoOi9PjsNXiNH2pKF8W8sAkl6b+P3K5uyWNyG0TFfBUfNT7PCHNPVCHQI5tq78XTAqLfefPPNofx2yjRKtDpLnlFSHaJBpQ18qzVUyMzE/DxqtEXUMVrK3oh+R0kwyKidFUGMEAhAm2XEH43HN7vUtWvXSczvjqQXpE0xZxEe/pwBrI9ACQDRXiz9j5cgkpGuEDra85H2UAhB3ggU4guvUpU1gJ0+bRDk1chtnibg93anTp1wqx2FX54geXTus5+wBr7hTSKVmmRMeui/vxiBz+cowxKan376qYI8RxmWk6TH1PCngv4Svt8l6gClOEAdSRBAOx6XShFSBC4uA+ZXmPzcHhhaBtQUmCmDgEd7OGW68dwKleq7xTeQzZYwj4tjjaki0U8xJ8PNreEDiJ0fz/NOO5Ylr4jECyQneUzq9jyP4O9HIaY5s06U7TxJZ4+pqOGNANv590Pm4c04zTAgYfK72NqS0PQjR+Ty825EOStiVkRhZjolGHVTyQ+H2CmvSPWHVveI+bn54cH5aPVEsEFsqViElbYfz3zgs1cQ5oTG1napRwsBNVonBKgwyIcJegJb36mOlCBOeyl4JQrVLylkEv1DSkewIXiFbJKU+/gerdGIUkx7k1zbMwpm9wiwV3AJZWpn5ScfDCpSPLkIRBzhJyW+U9ilLgJeJT5TdwjOrZO3K8uWmM8J2ERSL7qKCF8hoqstWCiT2Zc13mosJNu7kvMaIXkxcbzz5MlzlgBMAxx62QEQSlTOSTs+zPmk9b4I4gQRXJiKL10dbTdXtvpQxdSR1M1x8rY9CX5EpPU5PMrjS3MMaIBJzWgDJHF+YUS04nZqS5ONxEn1BRUvoZiyEeSTylEWtQjNuAXmlIJjdXhAAMFXgQh2WckPUtZ2kN0n2h5CdSgE3CJAQW9HSoEOo/0GmInIQc7F/LxEMlp2C6hDIaAQSA0E2FGxF0aLZKPnBKN9zNVGspGSJPX01OhTtakQUAjoCFDOtAG/ZbNsg5FLaDzZ93aEKoZJ8l9MFVAKgbSOQJr1Ab0BjtRECRL0o/EV80mNKOVNp9k+NI1/8Ljem+cVjUJAIZACCMhPr6dAM6oJhYBCQCGgEFAIKAQUAgoBhYBCQCGgEFAIKAQUAgoBhYBCQCGgEFAIKAQUAgoBhYBCQCGgEFAIKAQUAgqBRxmB/wMe0z1R9QlsxgAAAABJRU5ErkJggg==;" vertex="1" parent="1">
                    <mxGeometry y="536.8" width="108.91" height="28.2" as="geometry"/>
                </mxCell>
                <mxCell id="FWLjK4Na1bXz4KOxD3bO-17" value="" style="shape=image;verticalLabelPosition=bottom;labelBackgroundColor=default;verticalAlign=top;aspect=fixed;imageAspect=0;image=data:image/png,iVBORw0KGgoAAAANSUhEUgAAAOAAAAA6CAYAAACpiFWoAAABWGlDQ1BJQ0MgUHJvZmlsZQAAeJx1kEFLAlEUhc/khJFCErUICqRlWYi2iwIzsMDFOBVUq8anaaD2ejMRQX9AimhZi6BFPyEiXAVt2wVFEG1bhyBByes+p1KLLlzux+G8x+EAHV0W5wUdQLHkCDMxE1xeWQ16X6BhAAHoGLWYzWOGkSQLvm/71O7JTXM3pv46OJzueb7ZvwiI3tTrZHXkr79tujNZm9H9oA0zLhxACxEbOw5XvEfcJygU8ZHinMvnitMuXzU8i2ac+JY4wPJWhviJOJRu0XMtXCxss68MKr0/W1paUP/QDiKJBIKYwyxMuilF//gnGv44NsGxC4EN5JCHQ69ipHAUkCWeRwkM4wgRRxCmjaqef/fX1BzqbaoMeHxNbe0YuHwA+k+a2jDl9Z0BlTK3hPXTqlbT7fVoxGW/ADrfpKwOAd4KUBdSvp9KWacOPY/A9dYnwiph00vHiA0AABSySURBVHhe7ZwHeFTFFsezSUhCR7p0HlV9EKVJU3pVMFTh0QIqT5oUQcqjPkBAeCgIAgJKkCYYqiDNSJESqdJbgIQWAgFCCYGQ7Pud/fbm293cTfYGMJjM/b77bbh3Zu7Mf+acOed/zuDmpi6FgEJAIaAQUAgoBBQCCgGFgEJAIaAQUAgoBBQCCgGFgEJAIaAQUAgoBBQCzwUB03NpVTWqEEgHCBw8ePCNyMjI3CVLljxdvHjxsHQwZDVEhUDqI7B69Wq/+vXrB5crVy7U19f3Ar/hgwcPnpL6PVM9UAikcQSGDRs2BYG70aNHj++uXr2aLyYmxn3gwIHTeHZr4sSJw9L48NXwFAKphwC7nAja7c6dO/9k24sLFy4U4Pn1N954I/T69evZU6+H6ssKgTSKwNy5c3sgZHeqVKkScuXKlbyOw6xUqdJZ2QUXLlzYyQgE7kYKq7IKgfSIwNGjR/85c+bMkYzd1KVLlxkFCxaMcMQhS5Ys9+T9oUOHqhjBSAmgEbRU2XSJwOjRo7+Ki4vLnDFjxsiOHTvO0QPhyZMnXjw3X7p0qbgRkJQAGkFLlU13CAQGBrY9c+ZMBQYe16hRo5XZs2eP1gPh7t27uXjuzm9OIyApATSCliqb7hDA9xvEoIVYiWvWrJkd+aKBcfLkydJms1l2QA9+PYyA5GmksCqrEHAVgdu3b2eFrCgRHx9vypYtW2SBAgUueXl5mV2tf+3atVw3btwo6OPj87BIkSLn+Y1zta6UCw0NLfzw4UNcsyxRhQoVuirPaC+bu7t7fK5cue670taWLVsaDhgwoLTsbLlz546AgNmrV+/UqVP/5LkktZilv660rZVJ0Q547Nixot27d1/05ptvHq1Tp87BL7/8crDeRxcvXtxB2KHmzZtvvnnzZhYjHVNlEyPw4MED05QpU4bVq1fvCNhf+uijj1ZCgRdzLHnx4sWCYL6jYsWKoevWrfP7K7H85ZdfWrRr125brVq1wtu3bx/coUOH3ewcJ6tVqxbRv3//AImdOesPAuP+7bff9sHUO9CwYcNT1A1q1arV3urVq1/q06dPAOtOFrrTKyQkpPiQIUNmgE3ou+++e+j999/f0aRJk+OCF2t0SIsWLYJXrFjR2VU8Vq1a1ZGymbljateuvcFZvRMnTpQT4eN+gnBfd7X9FJXbtWsX81rxfL9+/eYDdq0aNWqckNjIN99809u2QRZBYbIEwnkXxX1tzpw5/07RB1UlCwIifCzsDQ0aNDiEX9IB/BeAq5nFetIRog8//HA57+5yR1P+4F8BYXR0tHvfvn0X8s3HxMOiCUp/sXfv3trHjx9/fefOnY0QyAhrf4/fu3fP27FPCE+xd9555w+h+mVs1K0RERGR89y5cyVgIAdUrlz5CuspCpOwj954SAurSJlr4HHit99+a0R/Mkk5BD7/1KlT/1O+fPk7tH1v9uzZvVzB486dO96M4zJ14rlvshs2dVaPeVkrIQjuyBEjRkx0pX2tjGETdOjQoQsbN268bvz48X2/+uort/feey8MxzP3+vXrW9HoDK1hWCOt7ViexYeFhRlih4wM4lmX3b17d01MKHGmRas9y3xZM5O6D3Ms3GifwXoMZlnxpUuX1pH6P/zwg8+vv/76PgusVHBwcE20/u9am5h94ocI7o/Cw8MLPnr0yOTt7e2y+We0b1K+d+/eK/bt29cUEy9m2rRpbd5+++1NWjvbt2+ve+vWLdlJRCDKIiAt+HOZ9p61kb9Tp06bKFO4Z8+ew8kymSpry3rd4ncqRMiabt26bZo+ffoXs2bNyiBlbPs5atSo6WSl5Bg3blxrBHGX9s6K9Xj69HjevHlDrHOa7BB///33hjCb0ud4bq8///yzKvX/ISasyWRiecd5gLObmNhsLpUpI+s9rnTp0ieSbdymgCEBZJcbtGTJEpMIn9YGJtAr8jcde2z74RIlSlxYu3btx8OHD5+NY+qWOXPmB0Y6lpplSS2aiZbObe2DJoC2gqj3TOuyxRew6b9MYMKN2fg//j3dyPhYtHnZHT4Ay4Ga8B4+fLiqtd0nLAhpP+Fi9+nWtWvXDSzsEvhdMc9b+Nih+rGzNJAOtG7derat8Mkz/KIYG0xipU+2/R00aNAPCF+RwoULH3MULK0cCzskICBgIib4dARwJEpnD0pnj7wXawsztyx/PmLd6QoA2SvfzJ8/vz9lXFKotP+2LGtpU77Bt3vq1NX80gzW8cWxSx8wMreGBFDsZ3a8QLSD5RskpbZmy83Gn3FVq1bdib9h9238kNWYJU2CgoKaFy1a9IJex3BgS61Zs6YN8ZNiOOt3mLwgdtiNRgbxrMvS3wrsGpa4jk3bthOXaDdBCMzardWxeRZPDMlS55NPPjHcXUzOjiiwu/g1y7XKuAJiEpl4fhPzyo4cyJs3bxRzNJjFvIpFffHAgcRr4v79+574OP4iyGh6z9dee+2gn5/fUureMNJBrB9PzNwe1BG8ohHAANaEXRMIym52rrHs2C0gMrYxv6u1AqyhVpSXHeTRW2+9tWnDBqeullvdunV/RgAnodBzYlaOo049aYc+5LC254kiGMjf/3Ecw0svvfQAU/EPfiNdGd+RI0cqUc4igAj3IhSapjS1uZdf8/fff9+Lde8vMpAjR47LzMVxV9o3XIYct0xt2rQJhHItoVVGm68QP0N8PBzkMnqNkprjz/urcnTD8T27aUc0RtiECRNG7t+/vyI7ZnMc5mCCnT8BqmgVdYHA2LFjx3399deysCzX5s2b37HiHo3pZWeK2QImWfq4DNMcQYQhLISvdBRh2YFQNMHfqonf9R2Ccn7Hjh11jIAucyZ5kNwPIVrOG6krZdmZVlP3gfhPy5cvF9IjyQsT/or4klIes1QYShFAH3gJOZUgfl4E5M8WTPQPWXOVeGfxBY1erMtLVj/65qZNm5o4qw+GP4uPKBhgoUww+p0Ul4dizkYnLwp4aM7NzhrCbP0EcM5hn9vFRwCH6r6XP//889G2dc+ePVuC56GYJYkWToo7m8YqsrMtBfcY7vuyyPSGB4GRi/c3sFr+5fieRRMEq3cmKirK4pdpF1o+EEsmBL9RgsouXczfKCsB8RAF/atLlWwKIVBh1rFEstCdEh1aFemflRiJwh/2157jMw7i+W3uWOstJNR9IV/atm0bxE7bxtW+oaBeFuXFfU8ES8ggvboSKqF9UQhSLhxFZigNTdpMURhCKkK6dMEBzcGfsZgUq5wNTkwcBDDYMY4D3dxfyALACbCtW6pUqRDK72IyWsKAFXMVtPRSjnBOjj179jSUucufP39ohQoV9uuNHdJAzDoTu9J22/dbt25tcPr06QrM2RKyOuz8cgRoPmxr9gULFoi/49LF4ixAQbFWTMTc7rpUyVpIkpoxf32s69AkBIcL9cX0k3LuCEBhrTw7+GR2vq8x+yUnU/w2US6ZMVezY7XVwcxdAImzEnY0WbcLAi4PdaWcOU+ePNcwy4UISnRBJjWmfem/By7WGZTDHy70365IigUQM0hYT4ntPcRs1DXcITK88D9qom0TGDH5OprXk0VUH8BjOU2cyDfkdPFZBuaeFPVrdKBppTwmYzMYODGrzPhEq52NC+axMcrsJEHoK7ZlmLf3RFiKFSt21rEuuJ+TxQ3uUsbVS3xji39sZV9drecmcyyLl1t+hVp0NYtEBNDM9+zWL2f1RrIrvoUgfgkZswthlKTp29yiaLxgaRvjO0pSdZLX48ePJUwifYlnfTr16TZu3OhHmYzcDzGlEyIAybVv+z5ZbaDXGMfwvQjAW1inl19++QITHapXDjKjKRrOndPDP9u+J7u8MuB5C4GgV0/IGHmOFtc1r+Sd0No5c+a00+AIvGfWrFmfGAFAr6yceGaMogWTou6dsWnacztn3dqWGaJhO4yeYV9J6yeKqzZ/y7zF1qxZc6uzsYJ9M1kUK1eutCuCRVKNB+7sfrIw7S5wl2fx7GqF2J1yk/WvOz+2lfLlyydZJiIQHuwciY7pJDUXKIfw119//ZFw+pQzsfsmm6wBOSbCYdkF2Zmuae3j62Wm/w8gk0RgLCwQRJMX430Tkq8dFlUb2a0gtPxZO5Mc145tPzNkyKAx+vFgoLu2YZjzQYqJlREPM30acnJFStZdigSQoGl5BiNmxyNs331oVd1vM/B/kcUQ5LiFQxuXFMCt9HSiutDmQlOb9GKHixYt6oKJ1APT1Y0F6E12xTh2gvVkQMxp2bLlqyxwD2JSE8mCSGAMjQJDXKcnkySmlaOQ2YYfkgpL2IYiZLHIApP7MYpHME+xAGKWSzaItPkY7IP1xgaT2Aw8ssLeLfv444/tiuDfidkWTyjALmwkhZgPUWgWYYKV/ge/yQogArQPMk3GZqkjJl6mTJlcVoKMYT9CUl/qkyrmNEtG+kdw3If5TWCn8R8t44cALEdCyGp2uLbEABMoX0xiGeNOuSED902ePHmSmLwwnBV5tsPZusDslDitjMkdZlOXNYUw6mKVgSjCViNSGupJkQCiqbIKYNxP2AEv6w0Eu7sMQlAVX68tcRu7IuwuoilNHh4euvl9np6eEkQ2IQRaLM5SH8HoDb1ebdmyZU3IzbtN/KnvmDFjZhGjOcm3vuPv/vgCiyZNmjSG4ikWQDJ8xMd6Lhfxpadq14p9nIQlWBy6mfkoqV6EBtagvRN2CPko8cRcsJ8yb2Y97HkmgmPZucHeJSKGsNEGdp7r7EBZWdze27ZtEyJlrbNBwniPFb+R1LAPpAypZgEIYA3+9CYkJSldTi+yakRwLP3HxDyG8P4phTEZZTPIRGimLr+6cTisgQWkRQ5hB83paLo6fpCd+Tr+XCRY50XIElk6YJOxadOmwtiKdbccrA2TT9o3U+QDWs0Xix0eGxsrGinRBdAT0FZBDCRRAiuMqNjNmOj6VpzEz6RtSabVGpY8QDS7H2yXvwifPCdJ94L4ESKw5A0GkHv6AZPkS32XNXBSE/4ivgN72ZXiwF1XeRLbayX0PPHG/zr23wZPXcLDirtlUijrEn2PIjCTvfI5VYSAyYSSHOTIeGv9gEDKSv86w3Lv057BoAdiNu7m3/FkINWVMs5wxzVozztv+hnNrmP7/69YFDnvOyRFsrBWLFYIft2Z5OaWnVR2SLPVFbErzhocinDmYv0d5azg0OTaSup9igQQ5u0wC0G0qxfxu5qOHyAdaBTmSEFiVP2S+HiC8+5Yxqqh7ASULd8fIZuPmSS7o+UiZPGqLEYt8wKTdDuB3p3shLrJ4U8D1ItSF1ZzC315gtb34fS1XWyVf/sSFphACGc4rNwlJ322KDc9zW4lRSzVrMLo0rCZl4UkPS+m8N3z58/7fvrpp/NYoIkU88iRI2dg3oUREJ9r2zDB9W4o1dMI/UufffbZt3q5oghXS/w4EcAnvXr1GsVcJzIhEZaizP1kvU5j1TQGs+wI1m8IjuV0RFIXmUdy9CgeErG6bTmsi/YokS6M4wwhts7Ozgcm1/5TvycA+641WHkTwGfAutWCPatPcD6AnS+YDHFLkFTvIitigMRs8N0O6b0nm0H+/40IFluSeXVMvCTBXoeYsAPpqQf3AjeA+ZOFEMIuwY8TAwclG0lyV8l1/FROnvA7wFn3MUFzC65SFwpdzDW7S3Yf3l0TTLE2nAafnbWP6S9Jz5LAHAkzfpCdYjA8QCuC4l2JPW7k2V45saBXH16gAOboeomnQfAdQCiH/Pjjjx1IH+thTS6/xfgu4n4kimtKTJl6V7G2zhLCugg/8Avxz3bE5aoTdmkoiR4SqOf729kYkvQzbfvm7++/RPBCqMeK64MCGcO/QyBc1hArzJ/qywR/phICt5jBSXA0DAAOk3nxhUx0Up3DVOxE+TsIqi7Fi4D24/1NWCa7GJZtm2jYDJKtLkH+VAfiL+4AbGMmWVQs1MOy8CRxgV1lHYtNyIwkL6uA3JKzbo4Fmbc8mgAyt8LwGb4gOMqxi03HKjlqDWZfZeH/Af3/GSRKsmYtu0sLWVOQd6ekvswxC36nHMOSnFi9DsGWC/m2DXb9Vczvkpzhm8lalPpXsNbOY+ZuweccIMrLyIAkXQ+hG0uG0BHaOo3/vBU+ozs7dYq4EyPfNlwWs8Hl1DGc5WoiYHJeTe9DJBMP5/0N2Mx5zjpCylQt0U78Jzm6p5QNDyCdVGAR7RbssWASxfrkSJBVAC9DlEiO71Nd+GMZUJSJjh49VaMGKmNypsjFMvCJpy76zDpI/C3BN0uuV5I8DHFyF4C8mKBEwVc0pSX1B+2VQBnClJVHMEewSIQed5MjOPyYoMHtsg/wExrCvHZPrg/p9b1kGTH2OOtxKzsYeGZhPkngDiF0ZCirRQ9PwhGxkDSW0wSpcRFqcSWzJjW6lvDNZyaARkaBsJo5oLle6uAr+jrWJYThCyUeg6+zRntH/uNPmK4D0Nx+8gyfU0woU9myZY/Z1hefAZNM17c00se0WhZyIZCxxVpPcdsNE9xf44EZ0z9FQeW0itnzHFeqCKAMCCbrCzRUFIcc7U4448fUg0krS1xvLhkGkkrkJj6PxL/IurhAcDkQRqsJ9rw4wSZhAzWAYF3HQzGfw2ZPoLmfJ3h/x7YJWO/FP9oqKW0E9S3WhFy4EB4QHMJGhkJu2bGUf8dx/l367NLhxOc1GJilKpA2MwmqniWguR4nuzDMV1c08E8wT3Znuoi3jMPsrEvZ45Ihw/Gcrvz3BL0Q2GYsqG0432VhTXeSdDv6efU3rbRLLq4PcbRZEvgmb/I7TMUHsKltCaRngCz5N6lyumc308r4X6RxpKoAChD4e174bX7kHhYhpnIH9mvHK6+8ohsoFY0NM5Wd90dJ/bEE26Gvi3BWMb8kcOO3JMpvfJHAftH6ItQ6vnUlibuWKVPmBASNxBjVpRBQCCgEFAIKAYWAQkAhoBBQCCgEFAIKAYWAQkAhoBBQCCgEFAIKAYWAQkAhoBBQCCgEFAIKAYWAQkAhoBBQCCgEFAIKAYWAQkAhoBBQCCgEFAIKAYWAQkAhoBBQCCgEFAIKAYWAQkAhoBBQCCgEFAIKAYWAQkAhoBBQCKQeAv8HlhpYh6tGeKcAAAAASUVORK5CYII=;" vertex="1" parent="1">
                    <mxGeometry x="170" y="610" width="115.86" height="30" as="geometry"/>
                </mxCell>
                <mxCell id="FWLjK4Na1bXz4KOxD3bO-18" value="" style="shape=image;verticalLabelPosition=bottom;labelBackgroundColor=default;verticalAlign=top;aspect=fixed;imageAspect=0;image=data:image/png,iVBORw0KGgoAAAANSUhEUgAAARUAAAA6CAYAAACeY821AAABWGlDQ1BJQ0MgUHJvZmlsZQAAeJx1kEFLAlEUhc/khJFCErUICqRlWYi2iwIzsMDFOBVUq8anaaD2ejMRQX9AimhZi6BFPyEiXAVt2wVFEG1bhyBByes+p1KLLlzux+G8x+EAHV0W5wUdQLHkCDMxE1xeWQ16X6BhAAHoGLWYzWOGkSQLvm/71O7JTXM3pv46OJzueb7ZvwiI3tTrZHXkr79tujNZm9H9oA0zLhxACxEbOw5XvEfcJygU8ZHinMvnitMuXzU8i2ac+JY4wPJWhviJOJRu0XMtXCxss68MKr0/W1paUP/QDiKJBIKYwyxMuilF//gnGv44NsGxC4EN5JCHQ69ipHAUkCWeRwkM4wgRRxCmjaqef/fX1BzqbaoMeHxNbe0YuHwA+k+a2jDl9Z0BlTK3hPXTqlbT7fVoxGW/ADrfpKwOAd4KUBdSvp9KWacOPY/A9dYnwiph00vHiA0AABlWSURBVHhe7Z0HmBTFEscvcUc6koBkjnhwEgQkSRCUoCRRkkQBQTICoqIEUUB4gvgUQUBARAQl44lIBgMCKjmDZJCgZLiDC/t+NW9m3TB7N7uCl3q+b7/dm+npqf53d3XVv6rn/PzUoRBQCCgEFAIKAYWAQkAhoBBQCCgEFAIKAYWAQkAhoBBQCCgEFAIKAYWAQkAhoBBQCCgEFAIKAYWAQkAhoBBQCCgEFAIKAYWAQkAhoBBIywj4p+XGq7anPQS+/fbb5t988027s2fPFs+TJ8/xDh06fFSrVq0NaQ+J+9figPtXtao5LSGwd+/eiPHjxw/96quv2iXHdp8/fz5nx44dVw0ZMuTL9OnT327cuPGcM2fOhPfp02f14sWLn0uOMiuZFAJpFoETJ04UrFSp0qmyZcte5XNt3LhxI5MTGKdPn85Xv379fcgWgwJpb8j2+++/h5UrVy6qatWq5//6668syUnm5CBLdHR0Ol/kUJaKL6ipe5wQ2LVr1yN37959gJMhfDL/8ssvjycXiK5du5a+Z8+ekVgqEW3atJnYokWLLwzZihUrdqJgwYJ7b9++nWvZsmV2ZZNcZE9KOaZPn96vSpUq53r37j3HWzmUUvEWMVXeDYFSpUrtDQgIuMGFu3yiS5QosSe5wDRixIipp06dKpczZ87DAwYMeNNVrgcffPAc5+J/+umnBslF5qSW48aNG8Eff/zxcJvNlh3uqZi38iil4i1iqrwbAuHh4Uc++OCDtvAUc7t27TrmjTfeGJwcYIqMjHxm/fr1LZElrnv37v/JnDlztKtcgYGBsXLu0KFD5ZODzMlBBhRsvdjY2MyCW5kyZX7xVqYgb29Q5RUCZgjUqVNHIihaFGXgwIFJDtKtW7cCmzZtOgpBglAmF5o3b253exyFY1XOzt+B169fzw6HEACJG5/kwiexAL/99lsNRBA+xVahQoVt3oqjLBVvEVPlUwQC8+bN63Xp0qWCsto2bNhwYcaMGe+YCU4EKIzzklphu3PnjnBCaf5AqdTSQYivXLnyT94CopSKt4ip8ikCgblz5/ZB0PSiVHDLFpsJ/ccff+SGyM3JNc06CQoK0lyhtHyARzBRsVJgcDdfvny/Fy5c+KS3ePwj94dEoiZo+iIw6MeeeuqpFWYP3717d9m1a9c2YbVY/tBDD+33VsDUWv7y5cuZ8PebXblyJVdERMTuGjVqbDRr65o1axru37+/PJGLGSRrXf438KC/GhLBqX3u3DltFWdwnXjiiScic+TIcRHuZPS7777bIUOGDHEiC0RefiIrBW/evBmKyxGKG5GNa7eefvrprxxlPXDgQIRco0wmymbld9bSpUvvJhSt+ewnT54stHnz5rpYF3kkj0QwqVmz5iZf2rtixYpm5KPk594AkdmTCX/w4MFylAnUFUpMpkyZYnx5XnK9ByxDwbSBzFFcwBvMwWWMoQuu8qJcc8GhpIuPj/dbt25dTb4zSb/Dle0gCqThyMeGgjljpa0+KZUjR44U6t+//+IxY8ZkQ9jbDL7izz333KYvv/yykeNDUShlOnfuvComJibbwoULu+K/PhQaGioRgjR9bNiwoR6r53QGMRb3nWxXr17NM3To0CngKaur/ViwYEG7QYMGTeZEyM8///wE3w3vJ3D018OvvvrqbIjWnI8//vjXQtLFxcUF7dixowbuxABW8ngGX3rCxy8gx22R5fXXX5/FdYmc2PRPwKOPPrqc33alguIMrV27tiiIjPokFn894OWXX+7NmNg9ceLEUSihDvnz5z/LM2KOHz8eQeQhsFmzZnsnTZrUmsF82pt2Q9C2Fcz4RKOsV1GnpgBdDxL2KnBOyypnskkUKFUc4J3h/fffH9WgQYOOENExRYoU+R3FUXjy5MlvsWB0wRrJQb5Ot/bt23+AYi1DOSHBgvX+EwxE0doYpy34NOa3WHDXUDjdWVwSzT72San06NHju+LFix9Ei1VmhcnapEmTE/v27av7xRdfdETQz42eWb169TMolBzSwaxOeRm0Vfj9Y6roOR8bIRMXRfsFlsd0JtUIMHr2tddeW/T111/3Jt9jRvny5XcYVa9cuVImhyRlBYBvNQZDxqxZs2qT+V4fkvwFmbkYhZFl/vz51cnhOOrwjAmS3i7ZqA4DT7vMPXNIINvK4GtO6Lasfo/T9o+QkJCoXr16jWXxKczAbMlYyEe5GKyW7F26dFlPuPcsqfNVChQooK2EWHANCP/OQ7lU4Hs+p2paba+EQ1FgdSgvY/s2iW0/eLoXvKvp5WxMvANWn5Gcyx0+fLhY69atF2E9hqMs5g0fPnxQtmzZrrN4+Q8bNmzaK6+8soiFIkSU9nfffXeevJ1Z8E1jaRMGSrw/buMg+kdcwtgXX3xxFApZ46JIGYipVq2aRywdMfFaqYwdO3Yc2s723nvvtUKp+F24cKGE3jEBZFaWdKwcZbNwyZIl3ejovJz3p2Hi4/5rBwN5AQPzIYeJ4DjYZWV1PYxzZtekrPje8oljZZ1D/ZO8bQyuw1jM8Z9RJMP5+H366acPGnWAX3F+25UKg2P69u3bH6WzZYUXIlHwuy9KZfny5e2xmPJjoSxwUSiaeI0aNVo2ePDguatWreoofWnI/Oyzz2pRFayVZZ06dZIFI4MD3loxBq2sdBPlNxbPDsbQFClH24dUrFhx7dSpU1vzsUOJDKv79u27YtOmTc2PHj1aftu2bdVIxNpiBestW7bUEWtKlyE9E+ljFPUUJkWsv7+/TJwAJpT8CNi6dasW4ZA+xSr71Ur9ybnMsWPHCj///PMr6MeiROMWMEe78dFERrHbcDn7gGlT8JExF437uZ1ya/gtHz/uC542bdpQ6V+sw0P9+vX7j2N7MSYsNd8rpYJZFUS6c6eXXnppFG6MZlLiszXlS2LasWFhYUccn0pS1EE6rk23bt1E6AA90ciSYPei0GOPPfZt0aJFD+sDx9PmSRlUGvvPoJOPPaQov41z8q3XI2XimAxeh9p+/fXXyqzMtefMmVNn5syZWhN//PFHwU8OG/g5Wgd+8FSRs2bNGoop+266dOmic+fO7ZFTwSUtQUg0AyvuIVxS00hHQpgyeUX5Bly8eLGAp3LVq1dfh1KRvA+3I0uWLFd1fLS2eKqDVVPaoGGMVRTAStpXFifXQ/qNCSCn/eFjhPuwpFRECUs7+MRg1V1AZm3CGBjr3/G0Mz9l6+p/xz3yyCObE8InuV8jKziARehLFEMYbvX5kSNH9sV1dBKbPoohX2czireJwM/i5oQpUZ/aKFxt4SfqswHr0adme6VUMEtb4M5EYYF8ajwNIlHbjIXvFo3C+dpVCszPLc8888xeLIaSrIAHfZLSx5vgeWb7eOt9uQ0CsRWk9n46UyMncTmy4qNqpj2m/wFH18cQADdpGuToKCbZISaBm1xYgm0//PDDt3BNLkJKnheegCxSsSqGMojckr08NQxr4pZ0I/fXweX4nPtfQyYnnoHdvGuxMrowWaWs02EkkSUGHMpRyFBN6RQqVOgQeJhyGXokRpSDP8pSLDVLBwpIeBLhBO7iBkW+8847/cxunDJlykDwrCOysEBesGoJWRIiCQp99NFHw6AiZGGIF5fmgQceuGomBouHuKjp6K8b4rY6loGcl1Cy6IQYlKzPNIVXSgWtvwmTtVX27Nm1wYpmqwI/ECa/YeojWUlNG0L5S0LApfXEIpTczLZt286An9D6kpWgLf6tMO1+uFMz4VDcxgGrjo0BH81muG2LFi1yug4x3vnNN9+cgp88CNdD8x9woQpjDa0hLCiDx3Lq+ZNPPrmEHcYyATPAe3RgAXkWMvkwKfe7idr9Vrdu3ZX0r1iiSxOYM4aV59FS0S1BuR6XN2/eU57qYtCLJSwWpOauWJ2nugspSiWWieExx+KHH354SiYXH1u9evWWYHFbfYRWjglYCf4iQpfRuNdRzsRkdnS1td9gfYC+9toNw+rKRv/1lL7jc0doB8aEW3twj8IYZ4XkAq7PHsaWU9AES7o2lwS7qH9NqRBaPM8D5aMd+OESBRDW2I8BOB9tadoxNCZcrhMB8qrjUlthQnSHHNsEfl31QRkDZ+EUgjXKQW7mJRQYymBzIslwRTMykMYzOH4zFIrcgwt1Et7iHSyKqRDnXSDO7VZlQngyiLbiZr2DuzVc+pSJnBHi9WH5iJLBlH6PgTpHUvBZJK7cg76xMaive6pHdzdlYvoji+V8KkL1srFRO1DEO83qZxI+gFVdlWvaBIJsnvf222971aTPPvvsxe+//14Uk9RhyKfJq3+kPte/HZ/hqFQ0no6o2Sq+u3glCIVZnFrjQQgFEUgU6zRjYp9ZHShCsYpF1jv090YIeXsx3KYQ6AJRkjasxxNQFX96K4dR3itLxfUhuD5PyzlIoKuYmo6+q70oIavwVq1a5cSSWeurkKnxPla5cMxU4Qr8yMnYgitw1qydhJLrSFgQK9EplIdV0xo/OhvKZi2hZ6dbOfc9J2I5L8yaJaUiFZBeP5oBegDXYCSvCxDS3ZgUQTKxiRZ0xY0tA2Fcgz7/p4li/gm5TBCrRhhYlEpiq77WfqJjIYwzLe8kODg4ipXf1N1GSTaBqJXFMBDebyf8mNfWAQuoNdbSi8FLZNCL0n8XhSORXeHSHrHONjAvTevBEhGlIspM3BsnKw6vQ/JTpA7hlzYa1rQvAlleAVwrZ9NRbUJP2jso4E1WseqY+u/SgZBzlxIyRX0RPKXfs3Hjxidpg0YowsAv89QeIm3NxRQFQ9kFbD8w1+vLpMd3dktmypUrlyioWCzEskTnZG+L5QPTeTEDqix5DOWJnHSDD/uIVUssrCgZcGy8q4KyMltNE4usaTKIG6wLk6CicCDGLcuuWzSiVPxltfV0I+1rI6LwuQ1xOc7yA5JpQVw+icDKcRdezmMAAUuljhRCYd9FkTpxJigc2e8j2MWQkOgzn6L1sa84oVUrc6+m2YQp9lQP5GR74uXLIejc/Gwx4YmL95MMS8z/hWZEJdGRWvj0v2Jyy6D26mjZsuV6iCmxBowIj3G/MaA9fUs510GvhR6lvXzuwI9MhRwd7ZVADoUdciSiwc+0E8mIzI6Z3gDitdeMGTOcHoWlI+3yh2C96SoDROodTH+xJIKJCgl5l+ggwfJpKtm97dq1myX1lSxZUlZ5+cj7NAaiZNqOHj16MuHIrExKIec/8dB2j3yKlJfMTR1bRzfBE4yWLBTjZhRvFORjPMrFBv9javkxHoqjKCVCJO7RZsbm/wmuFHxgsQqRraU74GKbuj60uxjtlvygeMlkhpx2MgIkg1rvl1gUjlNUiPmZTrK6rfI9PisVVkAJPWqaTQgmsz5hNa3JC3IKMbk/I3ToVERengOhuApeYBGMfSVJgmJlrUiU47hRkBfntCQXZCrXJnDO6xWFe8fBSWjElA6YmZhmA9c45zhB7CFl6RiJ4KBUfB6KOn4yEGJJJDTdvrB06dIOWICX4VTcyFHulwFiQ1mbZigLIcrc8iMJSsolepC81gSOoBm++WzqdNupi6s2n9dFliQcPoI6DUxd601UURBGlpClZk0kIlRi101vh/c7xdaB0pJwZ1aARawX50OwmK5giQ2Ef0oUm+RegCjfdeaTiGmTLRVm8uqWiGYZY/lK9ru9GHxKevgUWXyCsHLPY+U5ZTDPnj27NyS+LCTVrWDhs1KRZCL9ATY9HOn2PHzzYSQyRaIZ3SYNROJEuJbZRENmEsEIYzCHkkAlGY52pYKLIDkcGT35xok1kHDt6sTKJNV1yVDk2aIQ4llh3awNOjoDW/f7olAnSjq/o5wkMQWRfi4TM94TL0H9NiJLcSQeZrXSRlFAkuGKZSjbAUydcqwXWQVjCV27uVwyoB2e41Eh6PyIq4XoJqIkp7nUaaUZYn1sRamER0VFaVE1xwM+qDDJepK8F8eCMwouy3RVt/SgZFQI6+wXODDNcjXjn0hdyMQ8e5nrsnXhpqtlLF6HnmDpj7ewmcifvXV//vlnKOOwC1HeaUTMLLXaZ06FJCsxjWVixGMNuCVMffLJJ32wPIqxl8RtOWeDUz7MraqiUERKLBrZMxTHoHWyePTXEor/5/X2a0utT8JCWGQyoMWViie/wA0/kpcmYcL/wcuaP3YVExdCi7gldOiDSxSLRlxaOEQpBLA/ZDhErOk99KdG3kIau5HuyCSKQiNXEyFWDTfSj4XE4ztQxYURbKQ66rbaBj9C37KxNQ4FUsq1zexTmkFdmbD85pKC7nU2tAUMk6QIVqRsjZG5mG7Pnj2POAqBC50Zb2EZe3/C5bwsQq7zif6WULQYGHESTXS8nz1pH8q+KDJ1/055TqSVPisVQsQLMbtkr0bw559/3p8VMdR4FtmiPXkd3RBegNwdc8xtVRO/mhT1YVIes6wq5nRRQqF7HEOA7HUpw4qcgwadZKPZpSTprfv4ULIfZ2JNSBJZMCnqg/VJ6Yf/GkzYdiKJWdVIse6EGe/mijiQnTZWGNMJp5OWNoeyVloTABFbjRT5hbL72PEGrMZ6mMwvYaWcYtX6r3ENd+IFFNHgCRMmjOechDX9du7cWZe+HyPvOZXwrZyTRUbKkeckCRRaMhsRhwa08U0px2QoyzPzUK4354bi+nbWy4UQdWpHAuAQyvWhjGz58HjAzX1D/stRnluUKIi2wZUwc0ayuhcxpqpgvc5HVsnpSDUHlsdWkiRl60M820AmsJ+sCZxdRdyWF6EetjC/inBNrN27KI1drnyK/jpQ2f4RiIUse/UkZT8jSZCT4VLKkGrQnRyzBLkyRzB98luNCnBXKmCJfIbQJTDRL7L67pdNY7LBAlKvj74zNcHOw/WZSFZoX8zR13nJ7v83KnAw+Hqwe/U9ohEzcJUGpJoR4NAQ8lSa07YJuB05ZFOdJIOJNSC5Bgz8bnAtxzy1GzP1T2DOAn7PM3D+TjjQb0BB/8XPdG+99VZXTH7nrDmTSslBmUpa/NMolJHkL/Rm8hahP/cKEUz/FmDFy48luRN5u/MtWx+0gz7eAcFblJ8GGS4LlREOjiZXph6LwkkiXGKZidLREtr0b6OaWMbRQCEZX3jhBeGPjJclGTkgBp8Vi2JphqXklAnq2hwUVBnG0mIWuhxMmO2SzY3SDsA6Gc/+FfNkqlQwwMgx6o0iGUR/5JbmMKZOk8M0SXaXo2xkH086Xvc5ltSBMa7NZc9PX9nFzEInRO42kieLk+ZwlPt6Mg6cOJbEoPpHSsWonLBxfVa4spBwIbhFh1kNvrG6/wSC6DgrST4US1m4E/tgpfMX4BY1xg3ojHmXarPmhDuBIG0oYUEJo7KxbTsm/N9OrYcexITfhQIvDVncwzXBDWsniIl3kVuDWfnrsbs00X0z7OlphFI7i3++Sx6JZSJ9WkbcJ6yTS0TgdqCo3BIpSI4rwCoWJe9Q0cPA4v5oUR7hNYjaXeSaDVlz8X3bsJykXv0TLOQtq+cVolZR8v95pD4x06lPc5GEX6FsMOn66Zko51B0btabK0xMrExYKs1RhnlxI8+h1FZCQt6LpL3E5lSSX9etzACUuaYMUCLTSU1oJ0oFq7g+fJzkMbkdBExKMRbryx4yCU2D2cYkb4y3ArCChDFQ7xA2dUtSYiKc49oN+Z8y3tabFspjms4Cn9viOri2lwmcW/4HDwriskyutICHaqNnBFi4DzEeouBSLhF+9jk4YxVjnzkVqw9IqJweFvXDunGKDuHHRchbxEi6OgHX4pXpdS/kSgl1sLnvO+SMY1UKc5VX3sTGOX+UymYsBbfNfymhfUpGawjIwox1UVde2m12BxntpfAEhB8LfPjhh3/QX0NhrXIfSyWpUoGHkQFvvCfE3gT4lP4CAgRUom6Aj+1O8bfhEi7AFTghG+NcBxQhQXlDXAz/J1jIO3WkUgTYUtGUDYLb+detK4lsub8/gnaTtNiJL4myxRJcMd1flurgYeCvIZHsGqRlSwkz4//NFFNNTHt4FtN3d6Q6EHxsEFslHiWR6RQk62QiZZqbQ7ZrY/A8ySB738dq1W0pBAGUxI/ME9nBbiM9w20BZnGpDzdyU7KrCQlHppBm/XMxJQUY5rk/xOxCNO5cQomt2RR2UqIXcAP2Haf//EmpswbItZLsX5lPCvUReKgDvNd1A9mP8hpKdaRyBLBS1skCjJsbTRi5mdFckt1C2fA4GHfnFtfvStCDRcfyO2lSNGzy1nYmRWnHRkgkCSBuYcGkHc2aontRCZ9UCJDnU4ko4DbmyxUWlTOE9/cR2TnA3xeFqCcXaj1777Q3Cfybxz0JKfsiMMlRI8hheIW3i+1lM5t9TwEb2lbw9rEahL4a8X4J796c44sg6h6FQApHgKS+CKKkxcjL0d4aANd2UV7CREjZ/u6jFN5Ea+Lj4y0V3mTUqFH2nb5kTQ7m3CX2DJm+AtBazaqUQkAhkCYRIMLTDXNtL2+Da42J1oiXaU8lTLoTwvZfN9fSZAeoRisE7hMCSeb+SHuIr9ciJFpP/t8IGZu7SIKLVP9s7D71tKpWIaAQUAgoBBQCCgGFgEJAIaAQUAgoBBQCCgGFgEJAIaAQUAgoBBQCCgGFgEJAIaAQUAgoBBQCCgGFgEJAIaAQUAgoBBQCCgGFgEJAIaAQUAgoBBQCCgGFgEJAIaAQUAgoBNI0Av8DoCwf8F781jUAAAAASUVORK5CYII=;" vertex="1" parent="1">
                    <mxGeometry x="260" y="277.78" width="130" height="27.22" as="geometry"/>
                </mxCell>
                <mxCell id="FWLjK4Na1bXz4KOxD3bO-19" value="" style="shape=image;verticalLabelPosition=bottom;labelBackgroundColor=default;verticalAlign=top;aspect=fixed;imageAspect=0;image=data:image/png,iVBORw0KGgoAAAANSUhEUgAAANwAAAA6CAYAAADbRzceAAABWGlDQ1BJQ0MgUHJvZmlsZQAAeJx1kEFLAlEUhc/khJFCErUICqRlWYi2iwIzsMDFOBVUq8anaaD2ejMRQX9AimhZi6BFPyEiXAVt2wVFEG1bhyBByes+p1KLLlzux+G8x+EAHV0W5wUdQLHkCDMxE1xeWQ16X6BhAAHoGLWYzWOGkSQLvm/71O7JTXM3pv46OJzueb7ZvwiI3tTrZHXkr79tujNZm9H9oA0zLhxACxEbOw5XvEfcJygU8ZHinMvnitMuXzU8i2ac+JY4wPJWhviJOJRu0XMtXCxss68MKr0/W1paUP/QDiKJBIKYwyxMuilF//gnGv44NsGxC4EN5JCHQ69ipHAUkCWeRwkM4wgRRxCmjaqef/fX1BzqbaoMeHxNbe0YuHwA+k+a2jDl9Z0BlTK3hPXTqlbT7fVoxGW/ADrfpKwOAd4KUBdSvp9KWacOPY/A9dYnwiph00vHiA0AABOQSURBVHhe7ZwHeFRV2seTEEroNfQqHaT3llAFQpXeRaogotIV+FgFWVbaEhSpUgSVIiCwSDegwIJApIP0lkIJJZVkJvt755uZZ2ZyJzOZJOwmnPs8l8nMPefcc/73vO3/vhc3N3UoBBQCCgGFgEJAIaAQUAgoBBQCCgGFgEJAIaAQUAgoBBQCCgGFgEJAIaAQUAgoBBQCCgGFgEJAIaAQUAgoBBQCCgGFgEJAIaAQeH0RcH99l65WrhCwj8Dz588zb9myZdCJEyd8Xr58mblevXoB/fv3X5ItW7a45ODmmZzOqq9CID0icOjQoZYdOnRYjKBlateu3eanT5/mWbx48Yx9+/Z1DA8P98uePXtsely3WpNC4JUjsHnz5t7VqlV70qZNmzN3794taprAxIkT/d98883nc+fO/eSVT0rdUCGQHhE4cOBAa4TtUc2aNYPPnTv3puUasW5tROAaNGhwMyoqysPV9SuX0lXkVL90hQDWrHCPHj2WxsfHZ+nXr9/fEa5zlgssVKjQA/keERGR//Tp0w3486grALgsqa7cTPVRCPyvIjBt2rSvESZvSJHgYcOGzbedZ8aMGSVuE5LR/dKlS1bWLylrUgKXFLRU23SJwM6dOzufOnWqNYvTd+7ceUOuXLkibReKMGY3CpxbaGhoEVeBUALnKnKqX7pBAAby/1hMNs64t99++zuthd27d6+E8XdddHS0l6uLVwLnKnKqX7pAAOvW6f79+xVkMeXKlTtXoUKFq1oL++uvvyqJQHLqMmTIoHN18SlOmuzatatNbGxsxtq1a/+rePHi8VoT27Nnjx+JxTwEqZraxNXFpJd+bICCf/zxRxMerB5W7GD+/Pmfaa2NxGyvrFmzRpIr2vGq1w5r1wHyoOHjx48LMs+4vHnzhlaqVOlPHx+fnTly5IhJbD5PnjzJRq6r88WLF2u9ePEiNy7ckypVqpxu0aLF9pw5c0Y5Wsvly5crHj16tOWdO3fK6nS6DOAT1LRp0z1ly5Y9v2jRoqnvvvvuoiJFijxyNI5c//HHH4fzkZUzulWrVjt++uknzW7MtRoX9HKyvufOjJ2qbXj4XevWrXuNhd+oUaNGGGfQjh07OtrelDzGdKFXOcPnzZs3LVUnlQYH9/f3n1C9evXQ5s2bX4aijkbgQhG+erZLef/991eDYTTnC7Dv/aqWiqD5tWzZ8hL3jahTp05onz59DlGBsa9t27YXmG9Ms2bNbp05c6a2vfmwvkn0C4Z6Dxk4cOAvEyZMWNWrV68AxotkrUHffvvtaHt9Hz58mHP48OGbuM/TAQMG7Pniiy/+zjFr0KBBuyR3Rv9bjBMGpV/ZGTxu375dlPZPOPWcD8+fP1/VXr+GDRtelLE5H61fv36QM+OnWptffvnFhwU/B6zxcpPZs2d/JpsBABKYZ0pkbnMtSq6Tzf93qk0qDQ68bNmyMbVq1QrZvXt3V5n+iBEjtoJTfJcuXU5aLickJCQfvz/jfCk4jh49et2rWO5XX3013njfqM8//3w+1kmIBMMhVRjG+cRjKS5rzWfIkCGynmgs0I6goKCClm3Onj1bg/1wSsYYP378Sq3+COYBuY6H1MX2+q+//toCIX4qytxZgVu5cuUIo/J/2aRJkxv2MLx27Vox2gWLUhBDgXVt7CreKeJSzpkzZ2n37t2/Gzx48FyZyLNnzwTMKJidrEy2IKY+xDTB9u3bb0Qjv8t3j8jISJeDT1cXLP1u3bpVeurUqf7ijvBV3ATbQ6vG1PY3y+/iOhvcZ3GvZsyYMY41/5WUOeJGenfq1GnyRx99NB0XcasRxxwyv+vXr9ewHKtgwYKP2bT7T548KcxaPIlYcYlS9RAryrqmcxMvrNkaaPSPOc33PHz4cBu+ZJQfUAhlyGsRURS/a2rw4YcfriKx3K5UqVJnv/7667ezZMliVR6Fwg7Egvl27do1EIHqj/UK+YTD1D8gIMAXq16f/ufeeuutbbaL9fX1Pfjll1/OX7t27TjZW86A8dtvvwl+mTl1lGx5Y52venp6xri7u5OOi5d/3Nkjeix4JtoIxp5cixLX2ZnxtdokW+C+//77wbiJeaZPnz7KdIPjx4+3kL+ZfISlsMlvPLQJI0eOLPz777+39fb2vu/qxJPTj7gnokyZMlfi4uJkg2gJnAxvJWDyEAw/8slp+DTNgb/1xlOuxVNr9yKp82OjjM6TJ8/D3r17r8BdciPOyYFbWYdx4gsXLnwdrW015KpVq7pBYf9+48aN6gUKFAhK7H4wbEW9vLzC8+XLpxkLOpprWFiYF0pgNu1yeHh4hCE809jcVt2wEHu2bdv2jmzgN95444SlsBFadEV2unMtFiu1zFbYTAOxjhco7+84pvzwww+joOq3wgUYrPvVq1fFTYyHIczGmZkxEsSJCMxecHzf9tnZWx+Y1uWaCGe0CLLEgsa+sidMz1dP3q0G32WvxLOfT/Ocwh1hlmrX+/btu58HYHZp0Lq1jX5xGBppudaNEcgGtHmMlZmXahNLYwOzYf9cuHDhZNO0N23aNACM4jhjUWh/01oOm1LavFi+fLlm3DN//vxPGjVqdAOqO4DawNPyuX///nZJhQbhFtcrXNxbYrb99voTa9ZlTgNRFmZXU9qiGI7IOiQGYpPL5rV74Jq2Nd0LV3mDqeHq1auHyVrFpXzvvfc2PXjwwMollXYQcV5r1qwZioIQzyDRAxKkouxBI8ZBFy5cqGKvA7zEOaM7GcEzmuho7MSuO2V6ExsAv3zeBx98MMnUZvv27YP5W0xwLO6BGTDLMdBk4mLGV61a9UxyJp+e+k6aNGk6ysscu/z888/9WZ/B5SWGW6u1VjyEYH53ZzME2l4fM2bMmo0bN44i7uoF8+azd+/eWgjdto8//ng935NEshhdL0OeqmLFinbdKciQk1jotTCWZgtASFEGKyxkhHhT8bCH1xN7bljhh7JmaUOs9BZhh8FNxWXcg7tu8ByYjx8W90LPnj0DcGsXYRGHESaUFIYTAmUFFsihh0H7sgwl+1+PRxIOS3pBa17EllV5W8Ak3DFgmCxGONkCB2O1G/fMUGcmhxR5yiZg8cFcO6S1CNih0vweC6vpUj1aehI001o6duy4HQGSzeZ28+bN0oGBgU1kg7LB/40bo7lJwbFspkyZImE1T1hiAunSHhKhE3HeHIgEM+GCK7+APFPgPziwQk7HfQhMeeP4OtwuczzuzHPAFRTLIYrDcGTOnDlR2l9iYBECaYvLn4n41cA44vLdGTt2rCSopQrES6/X58PVa4YbOwY3dDHx71nIlhXEgXmcmRdxZmFjuzgU/2l7fUhftJVpyxrA7lTlypUvOTO+vTbJFjjLgcnBdUEjyYL15FT+Ze+muJQ+aLrb+Pp2maHkLCqt9zWylBJDxkAQbEwExxZYlcPEZ1YEBJZNvAw3qOwECg8Xcx9kVk4saD9ncYJQEOsmhx6BiXa2n7SDQJP9YNpnZnLJwRjm+Ak3MZepLaTccnRFf/ZOIL+JFTMJbyYIjpyQLUOwcAdhT8XDSvSgTU4aCMaxCJJ1gGzRE6KnPV9FOUXhTmuGSI7uZXk9RQXu4MGDknfLzRmHC7DX3kTQGpLL2ZWUib5ObcHRj/XKpouBONFUXGxkL+Jl9FqLnbbYkAcT66iHzbxjew0rKt5IPO6agdhy5kCgI4zzcU9qWRPFwOJemgkmiiISFQYjcyztxcq5Q45YWURcyZ0IVk3cSB8Y3fG4eCtxIa/RVu6jhx2ttHTpUodxFgJqVgKlS5fWZJSJ88rjbVQUjMDyOmmLTc7glVibZLOUloMb3SBPmKwo3MUArRvzynod4r5CALeNl/o05/bo0aPsxBxdCX7zk5c6jqY+Jg2hhpsSdNdEI11s3bq13eDdEShXrlwpC6GzAZclizxUjfaWFTKmv03t5FMelqWyMm2QOFyiCKodhuF6XHQ0D63rWBOPxo0bixumx327a88LEHzYNDo23BbLcRC2aiSUDVS3MJO29xCGVtZMtUZ1Z+fHhrzOuFL+5AlZYaopdKo7879CQ3ETX0oHFEV+PszpAttBSHGYUkVSPqXDlTS4cJKnkxOKfrV8x42W+N/MAeBa9pg1a9YCFEIBWNG+XJuZ2AQtmGR3hMkcEln22bp1ax++Swz5YtSoUV9g3TUrp5wCwtgoRQUO/9lbgOXdoTvEcJr1ZrxRO0ACbwJ9TTNOuqAJ5ME8XKntbJhI/Pb1+OjfSk6EDH8FNuM+gJ1FLqccICxJymJNbZlfEETEBrSpaFsB0d7/7WIJsOHVDOMYtu1NrlI8ykbH+EJmuHQEBweXIj6R56IrX778n3gDmuOA41C8hG22BAEJ5eLGeUoJUoKUBzGf0Ol6lFleZycIg7oPgfOhfW4+GzrqR8jQCGIsFGG7JmQEyvEa6xKBjSdFUYpPuwJHuZbE94KvjtjqJCSKQWlAlPguWbJkEsp4C4ooASnC89xESiAX6YoFxKd5UVzuCJVdASlatKjMQfDxsLWicj8UQ0b2YA/+zEgcvB+G10qxOcLA3vUUFTgBiTOKBx2mdUMYq9IkyP2gq0dAeydoAglQAiGavWLFim4lSpS4Jw2mTJlSBvdhAsnG48Qmbcjv/I36veKQAq247JLAUbsnWn6hq6A56of1dNTE0XXZCDp7OLL25iiiCjNnzhxJysBqLGPMJL9phguiEGTjy6ZGQWZFMBK8imI7uW7duq0lNTBaChkQmJLHjh1rhNehSXhJnSSKYPPkyZPFfRFXz+2dd97xpwRLJuqBGyxVGkfsAcDYzbkm+zIGS72YPK+hKQrX8Akp14mP9Vr9SZ4LQRSDJYpMTNikr5EokdjXMyYmRjwCq4MqlDGsNy8u8QOqasYizI6emVPXUzSGM1K+sUZLl2AC5N0WkdM4RNxxQGt2bJ7PqJX7p0nYpI3xPSR5bcKwYtwKSQa/hCxIl2VhYHiTlx0lQR3He1eFbHFC2XghaHNIji+huj1B6ZwxmW9pje1uBOKpBBtNq7FYmXHjxs3gmhQEZ+L+c6HKTUSKVZdvvvlmQu7cuYOJdzabLvAG9VpCAzHVHuLhYO00mURipnKEDUJSuLNHthJ2/GwxuMEaUT74kT1ShPitJG0ykCw3hCCJHcWKFQuC/T1LGx2KvpRlWxLuVdatWzcS5RSOohhRsmTJ/0qBhqM1uFELOBxX8YGc5ONEExkOHk5GKOmVfn5+B6Vqwd5AJBXN+TxTG8gXKRoNBhRxldwogSp85MgRIQXS7fHpp5/KK/7BxCn3qcivZVooa8+Lh7ALtu5He4vfsGGDJMOlzvKxVhuY5A7GhG8IAq0pNPbGxo0fTd+7ksAmmR3AxjTPTfpgBYcw55u4wQkIGZ57Zua+k74PEcbDJMmtCpzp44uQneX606FDh26E7bbyvsgnjuXaI7mO5dsmpXCW8ySvVoiyweMUzd+DS5DKfocHHlNv2avkDrebGoN3ZcKW47iR53l1R1ICKXrYi11cvgklXp8TbA6UUicWc0JeZQCAOhJ4L1iwYBjxjaa7qXVDcjBv4Jsfo7TpJiRBfZcnlcY6osHdpYAXJrEt5XFxPPyj4goSP9WB1g+gOHwULpPm/48IYdCZMirxBnQQTAniNMiFriSLV3A9hutJfnMZl64lMfVnUi/JGHpc0ruSmyN2LMIz1+HFTIfIsctQM/dPCSeGiHXFEoYSg4bhERUh5soHofMMZbIQ5bzY9pEhcB9gPSdCmnyDFWzH/YrhFp4iPHiG1ffGOtZgrz1m/43j/vucfeS8rTCP4vvu7M8rWPIglEgd4SBwI6fUr18/0NlxnG2X4gInNyYhWZY4o7WAIu9rwVgew68/6OykTO0oE+oPPzKXpOY6PicktX9aby+MLjGNj7xzBgn1FHf8AJsgUVdaLAeb1sDgQjR4syGtcnS8/9UHl9CfzX4fT8FpptIWS55vMxRAPWK2AkLEQI4EstF3oQgSfRdOxpE4j7m1QqFWIGTIhaA8hUg7h2U5ZK8/xdHN5P+HZC8YrBGpgbYSXhB/ebHGMAim85A7B4i5rNbrzB7AujYD68YSJyLEgVjg3c70S3dtyLMsw0qGUKkuha/mA/ehKGyVw3q5dAeIEwuCNPHErRO3/gluVwHbLpAB4vaH8h/lvJJXepyY8mvVJEVJk+QgR0VBBmrjdvO+HJVENyT4dUPr+MonG+iU5di4W/PZTEnKByVnbmmpL9o+DrbuOHN2x+0rZjt3CIui/KYTa5CW1pVe5vo/I3C4DO1xRZuQuMwu1Qh8b4oQ5gZoPWzSTRPgxCAdca+eIYSaxabp5cEkZx3kMaUEKQa3T+parQ7ynM1xu0Jxzf6fb1fH64mAVGXj6gQJU0kwXw0/+gjB/T/47Q5Bdk8qHPLyGspQft+JlpY6OHUkggBvBfiTOrmB4vI1NYPinoqiukUdZYL/+kKB+WoQSBXSxNWpQ2n3g7buKQWyVLr74/b8Jv9XClatL8Gxp7xdQFmYP69/JKmA1tX5pPV+pGlGkLAdKeVc8nY9bG8QcfFMmE5xOdWhEFAIpAYC5NtySY1maoytxlQIKAQUAgoBhYBCQCGgEFAIKAQUAgoBhYBCQCGgEFAIKAQUAgoBhYBCQCGgEFAIKAQUAgoBhYBCQCGgEFAIKAQUAgoBhYBCQCGgEFAIKAQUAgoBhYBCQCHweiPwH4jqbMu7WDCaAAAAAElFTkSuQmCC;" vertex="1" parent="1">
                    <mxGeometry x="400" y="320" width="113.8" height="30" as="geometry"/>
                </mxCell>
                <mxCell id="FWLjK4Na1bXz4KOxD3bO-20" value="" style="shape=image;verticalLabelPosition=bottom;labelBackgroundColor=default;verticalAlign=top;aspect=fixed;imageAspect=0;image=data:image/png,iVBORw0KGgoAAAANSUhEUgAAADgAAAA6CAYAAADlTpoVAAABWGlDQ1BJQ0MgUHJvZmlsZQAAeJx1kEFLAlEUhc/khJFCErUICqRlWYi2iwIzsMDFOBVUq8anaaD2ejMRQX9AimhZi6BFPyEiXAVt2wVFEG1bhyBByes+p1KLLlzux+G8x+EAHV0W5wUdQLHkCDMxE1xeWQ16X6BhAAHoGLWYzWOGkSQLvm/71O7JTXM3pv46OJzueb7ZvwiI3tTrZHXkr79tujNZm9H9oA0zLhxACxEbOw5XvEfcJygU8ZHinMvnitMuXzU8i2ac+JY4wPJWhviJOJRu0XMtXCxss68MKr0/W1paUP/QDiKJBIKYwyxMuilF//gnGv44NsGxC4EN5JCHQ69ipHAUkCWeRwkM4wgRRxCmjaqef/fX1BzqbaoMeHxNbe0YuHwA+k+a2jDl9Z0BlTK3hPXTqlbT7fVoxGW/ADrfpKwOAd4KUBdSvp9KWacOPY/A9dYnwiph00vHiA0AAATmSURBVHhe7VhtLGRXGB41jI/FCNuqSKNRU1qfMUEUHRSRIBqJ0AqRNNj4M5KmbNIgfvCjTSvqo0nLNvERraAZqvjBJGXQVuMjvtqlyYpKJZZdZS1mbp8zmVG9uVfjzozZNOcmNzP3Pfc97/M8573vee8ViehBFaAKUAWoAlQBqgBVgCpAFbhagYWFBdn+/r74f6tTRkbGd7W1tXfNTfA5c08odL74+Hj18PBwhlB/Pj+LpURjY2Pp6empoyGwDQsAuTae+qGDgwOXo6MjeXp6+rdDQ0NZ5iJqMYJqtTr57OzMUafTESL40YkYhrEhpwE8yR7jf93e3t6ruD7c2dl5Eb63FArFX+YiafV5RkdHI8PDw3/Oz8//0upgLAEgIiJitqSk5GNLzP1MzFlVVXXnmQBCQVAFbl4B9v4kCMHKysprU1NTb8HZLjY2diwwMHCJPdHx8bFjV1fXe7AzhYWFn9vb258LCnbTTvX19R+GhoYyOTk586iGTEhICKNSqd5l4ygtLf06ODiYIWdTU1P5TeMUFK+lpeUOSD2cnJxUkA28srJSRQjExcUx5+fnF9mBDsUB9qdGgtjvBgUFFOAkuBdFx+HV1tamLC8vfx9pqSaxYQswtF2iw8NDiRGPs7PzSXZ29ie41ncnaOEs1kGxNRBMsLOzs8jNze0RUvMrMikIuSwuLvqT/x4eHiJ3d/eTy8FqamruRkdH98Om9fLy+l3AYghyEUwQnX9uWlpaL4qFjkQeHx9PRlrqQaSmpn7KhQZi3IN909/ff5lrvLq6WhkZGalBV/NRQUFBI1J9vL29/R1BzEx1mpubi8AL6sVzVlRU1GN8xtbW1vSpyj5mZ2dluGcBzXQEewykGmJiYn5YX1+/EH1sbCwARWu+oaFBaSpek/y3tra8AeQ+IZiVlTXBN1l3d3dyWFjYL+xxNNu34TuPopXPHisrK/sMVfrB5ubmy0JACk7Ry8FGRkZSUUWlsO2lpKR8wwdEo9Eo8NbwI3u8r6/vA9huy+XyPvYYbBq8ajH9/f25ViM4MTGRiOAeOLcTEhJ4CU5PTyckJSV1soEi3d+AzQbP3xP2mKen5wPYmJmZmTetRnB1dTWQBHdxcXmELmaPC8jAwIBYq9WKsQdOssexbdjDdszl5+Tk9Cfsjzc2NnytRhDVU7/n+fn5rfKB6O3tbU1MTPyeZ9yWz8/Ozm6XrCBinFqF4O7urvG7iwhqc35mQNV8ZXl5WY52rZkNcnBwUAabKx94fIx6TAjitMUq2l2XpMlFBpv6U6lUqiWBUU05Kx0+B7ZiG7knk8nIavzrwMq8BIPzfwAnBBmkOPm91mEyQVtbW11eXl4bot4HwefZ0TMzM5uxsf+kVCobuZAhBUl6k/S76s1GLyAEuvYbiFl6wuLi4mZ89jvp6enJxX6m8vHxWZdIJFrsXa8HBQUN19XVtfLJ7urqSionKTJXYSHjZ9daOsPNZiEoFotJu/aF4RQtLf3zOoj+9Epc3t7ef+AG8gxyVlGDs42Dg8NDIQRNTlEhQS/7+Pr6/oriRAqVBNuNlGe+WwEBAUNCYlmdIFl99KBk9Z9sb2/zVcnfOjo6OBt4IaSt4oNeVlNRURHEFTwqKuptq4Ayd1CQfMHcc9L5qAJUAaoAVYAqQBWgClAFqAJUAaoAVYBTgb8B4IusWmkhsZUAAAAASUVORK5CYII=;" vertex="1" parent="1">
                    <mxGeometry x="130" y="530" width="24.14" height="25" as="geometry"/>
                </mxCell>
                <mxCell id="FWLjK4Na1bXz4KOxD3bO-21" value="" style="shape=image;verticalLabelPosition=bottom;labelBackgroundColor=default;verticalAlign=top;aspect=fixed;imageAspect=0;image=data:image/png,iVBORw0KGgoAAAANSUhEUgAAAO0AAAA6CAYAAABcdt4YAAABWGlDQ1BJQ0MgUHJvZmlsZQAAeJx1kEFLAlEUhc/khJFCErUICqRlWYi2iwIzsMDFOBVUq8anaaD2ejMRQX9AimhZi6BFPyEiXAVt2wVFEG1bhyBByes+p1KLLlzux+G8x+EAHV0W5wUdQLHkCDMxE1xeWQ16X6BhAAHoGLWYzWOGkSQLvm/71O7JTXM3pv46OJzueb7ZvwiI3tTrZHXkr79tujNZm9H9oA0zLhxACxEbOw5XvEfcJygU8ZHinMvnitMuXzU8i2ac+JY4wPJWhviJOJRu0XMtXCxss68MKr0/W1paUP/QDiKJBIKYwyxMuilF//gnGv44NsGxC4EN5JCHQ69ipHAUkCWeRwkM4wgRRxCmjaqef/fX1BzqbaoMeHxNbe0YuHwA+k+a2jDl9Z0BlTK3hPXTqlbT7fVoxGW/ADrfpKwOAd4KUBdSvp9KWacOPY/A9dYnwiph00vHiA0AABRmSURBVHhe7ZwJdEzXH8clSBpqXxuK2tfWvq8VpWKJtdpjV7XXVnupLn9UWsuh9r0UJSi1lRYV1FZKkVojEdQSIdYkZv6f3zvz5kwmL2YmaWJa953zTibz7vK733t/++9NmjTqUggoBBQCCgGFgEJAIaAQUAgoBBQCCgGFgEJAIaAQUAgoBBQCCgGFgEJAIaAQUAgoBBQCCgGFgEJAIaAQUAgoBBQCCgGFgEJAIaAQUAgoBBQCCgGFgELgP4eAx39uRWpBCgELAmfOnCn9119/lc2UKdO9GjVq7MyQIUOcAkchoBBwQwROnTpV9r333ttWrly527Vq1Tr3+uuv32nQoMHpY8eOVXBDchVJCoEXG4HNmze3qlixYmTDhg1Djh49Wk3QOHjwYE0Y937dunVD7ty589KLjZBavULAjRD46aef/N94442oqlWrXj1//nwxW9K6d+++Bs378JtvvhnsDiSvXr26w+TJk0dFRkZmdAd6FA0KgVRH4OzZs8WrVKkSIYy5fPny9+0JmDhx4mc8e9C8efP9qU6c3YQ7duzwg5Zr3BEw7zuu0uPpagfVXiHgjgiMGDFi0ePHj3MUKlToZMeOHRfY00gQ6j7fmUNDQ0thIns/zzVs3bo1gPnTCz3QG+oqLYppXUVMtXc7BObNmzcAc7gihMV27dp1uhGBsbGxXnxv4va8cuVKPNM5tReEj12fOeM8PT1NZcqUOe7q/IppXUVMtXcrBPAJMy1cuPAj0VwZM2a83bRp0zVGBN64cSMv3z8Vxo2Ojs78vBZBCqrYvXv38gi9pUqV+vPll19+4iotimldRUy1dysEvv322z4PHz7MCVExjRo1Wu/j4xNrRODFixdLWL43mc3m51af8Pvvv1eFjnSi8atVqxacFDClc6peSDkvkt0xqTqpm06Gb5U5W7Zs954HeexDRkzKUhz4jN7e3o9feeWVK/ny5YtwlhY0V9bLly8Xj4uLS5c3b96rr732WqizfaUdvmWhW7du5U2bNu3TggULns2ePftd+f6PP/54nQjwCWfHWrt2bQ9hAGHaxo0b//D5558bdr1w4UIZywMz/u0DZ8f/p9vBtNX1MWvWrLk7KeP/YxLnxx9/bL506dL+RPGKmUwmr8KFC4f36dNnUpMmTX4QwjBh+vC8Hwc1d9asWW8Sgp/arVu3BAGDpCzCnfqsX7++3YIFCwaHhYWVhCFvyTrxs2bb0/jRRx/N2r59e8cKFSrsXrZsWYvUWgNVQmVJe4wKDg72f/r0qQRDxM8TszENjBvau3fvL1u3br0yMXq2bdvWfNGiRQMYx7ZQwSNPnjzhHTp0mNepU6c5CAGzUX8EhTfnYAgYdecc5ER4RxM8ygTje1IEsfnu3bvZb968mYfUjVNFEFu2bGlGAGo5c6XDNI787bffChjNe/LkSSm2EAaR8x5HLrdCgQIFrqYG5giRz6OionKBdVqZD3/W7/79+zn4aKZKazuWQbSHh4cJ/MJGjRplLHFSgtDx48cHcvjCP/vssyk///xzw6CgoA716tULI6R9H/OlB3RPqF69+nlC8T1//fXXRjDzagl3065NStDzvMaUHGD58uWvzJo1awgHqhVrfML9iBB/U1uaNm7c2Jrvo7ljJQ2xZ88ev9SgWfCHviihq1evXmv37t3bEI1X+Ny5cyU4MLMt9ERDn+G+IGjm0uZey5Yt90lOFH8y84MHD7wYpx4R2008i2rbtu3Oa9eu5bZfDxrdk2d70KLRnIleMHAmacNh9jhw4EA9f3//4/Q3v/XWW386i8XAgQPn0+cud+SAAQOWJdZv5cqVnaQN9y0KLy45O35y24FPFs79Ke5QTOFQeERSUreFFj5f5/sL3Ge5QwYPHjzT2fmSbR7PnTt38OLFi9ugXRpWqlTprD7xihUrMkyaNGn6119//T80b1ratUKyBM+fP7/vvn376orUg8Hf5m+Qs8Tq7SRxfuTIkRoWyWnb3RXLwVYbWD/nzp372ptvvrnDVZookavYpUuXEQiuAQEBAWs4lCJZJc3gxQFvyd8t+pgvvfTSI5H43OImmK5evfqqq/O52v67777rRq5ymtDTqlWrmQjaIUQvretGyNYXWrh9MDm72e9L//79l2IZtC1btmww2jIAE1PWoF97+LBn5MiR09BiPd9///1NHFg/TN5ovQGM2p8gTBXmFm08V/8e81ho2ENE1x/cjltocGp5MHsjGoppbEZz55kyZcpYMbfRXLitZg/OnQgFT5SDrE3aPcUCPIOJ6tT4yW1kMfl1szwNOdn3vvjiC9kDj549e37Zt2/fqfocWAlOT5cspsVEyvfuu++O4TB0tmVYmZ2omGyYCdDSYbtvEYaV7+fMmTMaQDWzjI1/6DSlNg05GAEIieGyWZavjZjV9jv9M/vpYT2oYpZYbtloMRHNMO0F/rrMtGjX4ZUrVw4WhhWaOBj1ZHO449KnTx8vQog22TpjxowJpCo+ljaYdinq1yLkirRr124Cc6XLkSPHBZhrlC3DCr2ZM2eGzyILycFm7zT/Ur8wh3tPnTq1Nf/HDBs2bIwdw1rboa2H7dy5swWuQRmEl6ReuusPEdTCYKb8+fMbajq+j0CT/3DixAmrz/ess3H48OHKuB4SBdb2Fl+4Krf01YOr8r3stQgiPYZixtI4jFB61tAp9uzQoUNCn3b+KARJUhBK+iaLadGeU4oWLfrn22+/bdUi+ooxu4paAPVEiu+grfYIPyby9u3bvvg9dyQJ/tVXX7kMEmZRIJ3kdouLtRak0qY+kr4rB1yjadeuXWJFaH4M/tov9oRizgViErYT35cEuwiKBBf+Y0tM6xYSsMHnuUJ8YB1WwHZXF41w+BC/0Yd+D9mrVTDdY/sxELy9ESRjZM/GjRs3CCGkNSE94Y2QEQHpwd7dxLw8ktj8WbJkif3ggw9QgAeaYUW1g4lmYg5rag0/LouMgbbpzZrX41OG2Y+D4N+Hj+uDZeJwifipkpeVy4SQiUSb1hKJbPlOF8wm9qY4NFm5FAUiVoFLF4KkHOO8huLZlytXrtsudbZpjHXYQP718vK6j4l8LKnjJItp0SAPCbLMMJJcx48fl9C2HNpYbPZfdQIxmxtDfHU28yiHNcHGJXUhz7Pf33//nZfDsK127doac3Lw0lKwrvmFHPRbfN5kRB+m5mFM44LFihU7af98yJAhCzFhmwwdOnSkaAcOTvnRo0fPHjRo0M/Tpk3r6cp6ESD+lvZxMJ2hHQYtQkMHaacLWPmM0AjAb5XAiYko7/n9+59dBfjqq69egmlFu6XHN27PX41pS5cufRTfuRJR5/z4tgc++eST1Vgm+xH6IUWKFAnhIMdhtS2mqdwOL8YqKTRxy5r2+vr6XjPqRJBP4gma1sWiiYLxdjsc3KbBhg0bWqJcZmAd+iCUwjHjm2EVuBzEgt7CBPgkV2zm5YXDuEhJfk0wWXnawMDAbs2aNTP0STlklYRAiYrhR1zWcSCtcI1Axvr/CsPKuggyHOSgdyUSqJlhv/zySzM0VC75jJZaxwZp0Vn7S6KlVMQcpV+85/j9/WGW9p9++mkvzNpvYeqQNm3arMLk7IMGa8lc/Z09eLgwxSVCS3vN9wP/cGf7SjtLikKzGDChoxz1lfSRpY0Hgrum3h4fbhpMI4xlevToUe5169b1RQgtad++/RGE3fUxY8bMCA8Pd9q3R9jpkWITQu1QYnQR5GvMM6HfhPDcCNbC6E5fElSFYeXNoPTsly/70sTpzjYNLW8cifDwxDROVv1zspg2MeLFdo+JiRFzzAyBLpsjSQHFnfqQ/mqr06OnvIzoQ7DVQEMnMJ1JjY0QN4K844+2/RAA22Gcm0uWLPnQ2fWSQhHpLvusmY4wjks5yuvXr+e39McN9jQUPra02MQMzPS1pmDQ0pdnz57dnpyu+LS6jy9vuHjDxDnQyv3QRMfILrzpzNpIo4j21zQoWtwwr0twKgPMUkdnWgREohHmxObEctCtQa2aCi17xRn67Nvgg0vgVMx2D9yAg0kZQ++TIkwLgbVFMlmYNllSJTmLex59xQfEPBTp7kk++haugWHAQd7xJMKctX79+vF8VAI2dZDoOfH5/jKin0N0Af8wGyZvfWfWZ3HzrIE4Iqou7bkNE3pIUNHRnDbVRlJ5FC9fS5rjd5izGmZ/Tz8/vxU5c+Y8w3gS9JIo+yMsgsxo3/nOvK6GUtCL/s2Y2DJOggurpDk0a+/PMnewK0Ub+mC4KZOJI4hlGIJvHIi2djlIKWPhEorwSINL+VjMY0c4Puu5w01IyuAcSHG4hWljkSr/ONNisr0hOcZEaLOPJCeWBpIDpR8q/bMUCVynSCDR4gJHeCDZaxP0ySDtMJt3QqdhF9InATDgObREPH+W4E0VoYvgimFE2WKimi3ux25H9Ei1km0bgoBS8nfRUT/9Ob6iaBrNpMS3fdlRvydPnggzab4mc1vdIubNgWn6gFvMZ8FXwxgz1xcB1IS04UBiA/kRWLkwSTvzKEFBiu3c+MCirc0wQQx7dsuILgSE+OhaBL9fv36T8G8dkZ/gOYJFAk+95MGmTZvSEEB0eQyi94VIdUnu2sR+H7J3h1wdMFlMi/mTQ6QZWuFinTp1tGATWsCTz5UFUNILVzGLEpgTmM+ViLQOJ9/XAXPNsHrmWQvhYFdgQ8QE1fw0u7aySVbNYnlmlP7Ru1kjjXzxlJSPHNIkM+2lS5fkDRKNLoI7hglBzEFPJHY7gnjTKMKIRz6lgRJ1T4MfbJgOw2eUw+qB/1fQmc3GHz7PftzAnPQVukJCQkrzN1Ef0H5M3Jt9VDB9IHMKUzma02KOC6YSINqH76p1waddIzlSPvazHQOhIEJlEf2C8N/3wtwFEEhyfp55sU9XqScuhxC7Y9SQdZZgvFo8E182SOIOjsZMqecSeGVsza9G4x+kyCXeVKTgvia2cYL89VJnaEgy01L1khNQDnAYXmGiGKJjVTggF9CyDdE08hpULIQc2r17dwI61qxZ05k23klhWBmM8scl/JHb7S6LNtIEgdTzGhHIQe6CmWomiroEkyteE0xDCWCZpUjAqC/fS9TRZGnn1PoJFq7koAyUg0MgpfmzsMO1qUbSfyk0NsISCMeM3UDAMQz/MD+RX1/ST5nQPtaiCXsC+H0mLRWDWR2Hdln18ceSitYqn9JZLDBDmkml3KVybuP333/f15lFFS9e/DQFCU3B0fAME8wbxDg+uChhmNyjiLg7M2yKtAFTYVqxPjxg2ngpMxi6Eue5A/78amcnd8m/sR2UAoe2FobVN0XMYUkRyKEQqWJGsibwy4golpMSuB49esxxlsh/UzvqjcWc0up58dES/B4RBz8bAZnRlBEG6kXytuvDvJQ+ZtsiENvn+veWdk5BI5Fb5pLIrQeuRS3M0USDPVLqiHUUJgwrg2PKmSmxGy/rkbQHWldMV8OLSG09SenIPC1atFiB0LY1/WM4L9lJobRKrL+8fCBrL1GihMNSRj2NiDmdzX480lI1OIdtEXBRkn9GK0c6BVQKNYqIiBCrSHPByM8etZ1mwoQJX1DHsJmfyHHa+kky01oCDpq/gMadVbJkyZDTp0+XlFI3S9hfQuTZbQnEZCnGAViIY7+NJP+2FMLouQ5LIcUuoqxi2po5PFIVZb0IUqWlMOQ7DuVJpKuhz2aJ3djHcKxj6LgnxtRGi5dyQopYumNyiynpTeXSXLRUgsoj8u3vwNCNKcKXIgvrhcZcS+RVqi1MpJvGEuGtbz8PbkF+NKWU5XkRaAlGu400oMULOiZxDiTHGu/CcvCB6f3xVaNJCTrUOpj8e9H4ofJyCi8/aEEeuSiVLAL9i8EnliKRwaSTjIMKqXhKMOEl2OYhL71jUVjNeYJc0+CRzATmhrlCTmJBGodj4HvlQ6UfJNgQwZshk2VyKm+GSmRMDiRmXxCAelNqNhlT5pTU5mIWd0Si7MWf7SUS3OEk/9IGM2fOHMThHg35aTGB54tWwGfLTf1tb/z8G2jad0jU29buWleKBl4Js/sjfdczThd7CKgBXsDhbsGY2zEBO7kCEbGAcpQhzsO1KSrlmwiYbZJ+kKAOAbTqMKOfMBtC2JBpqJL6UEov2df0Mr/kR8WMJ9BSgtx0ABHddFR5rRg7duxIXJ94pZsw4k7xQXEZwmBQX8o9l+LzHpKDzPdFMcc7C0bkpvvxbL0z66JirMnw4cOXSbAMk34iMZa8VKQNhT6T1ICTbtvqzDgp3QZsGiCsVzBPOvZ3orhNq1at6iZRcs5Cd/jDsCIuRehik+uywTthxEtoz2PTp08fhtmmCQLKzMrBuKsIZJzjYIQQkQ1CklvzlylCkBsNSoDODxfge3mLg1TDZfzKXTBZH0ckUmQwRd6WEeY1agumy3l+A+ZKchknJjAxj07r5M0rhOx1flr0T4Ih0+W1Skf0SckmvyI4DmG0mxzzJQI8YZRwHkCrBSKYyyfWn/ZBMFQPeY7w6sa52SV95Q0YTOn99P+KQpAEGtgRPfJWGVbADs5ZqJxBKq0mUbWUz1G/1H5OwNGfApmfOAsR/AbzUcz2MZJHTm061HwpgAAvQvSBKe907tx5g9Hwwmw8/xsBoKUh1PXiIZBkn/bFgyp1VoxVIrXBJqSwVPwkuCx51jhLu9QhSs3iVggopnWr7dAqd46R9z5DHrYIjBvvh6zl1/GJRPK4QAj+4B9uRroiJ5UQUEybSkC7Mg1v9oyTckOCFPGiiryLLEGWNLzpI+/GqkshoBBwJwTIZwYQ4DvHT/MsJmLbmzK8eQRuTlDiJy+jq+sFRiDJKZ8XGLNUWzopkGzym1pStyupNXKOu2x/wiXVCFETKQQUAgoBhYBCQCGgEFAIKAQUAgoBhYBCQCGgEFAIKAQUAgoBhYBCQCGgEFAIKAQUAgoBhYBCQCGgEFAIKAQUAgoBhYBCQCGgEFAIKAQUAgoBhYBCQCGgEFAIpCwC/wfHJeHmsuKdewAAAABJRU5ErkJggg==;" vertex="1" parent="1">
                    <mxGeometry x="720" y="600" width="122.59" height="30" as="geometry"/>
                </mxCell>
                <mxCell id="FWLjK4Na1bXz4KOxD3bO-23" value="" style="endArrow=none;dashed=1;html=1;dashPattern=1 4;strokeWidth=1;rounded=0;fontSize=16;" edge="1" parent="1" target="FWLjK4Na1bXz4KOxD3bO-22">
                    <mxGeometry width="50" height="50" relative="1" as="geometry">
                        <mxPoint x="180" y="600" as="sourcePoint"/>
                        <mxPoint x="180" y="510" as="targetPoint"/>
                    </mxGeometry>
                </mxCell>
                <mxCell id="FWLjK4Na1bXz4KOxD3bO-26" value="" style="endArrow=none;dashed=1;html=1;dashPattern=1 4;strokeWidth=1;rounded=0;fontSize=16;" edge="1" parent="1" target="FWLjK4Na1bXz4KOxD3bO-24">
                    <mxGeometry width="50" height="50" relative="1" as="geometry">
                        <mxPoint x="120" y="360" as="sourcePoint"/>
                        <mxPoint x="720" y="360" as="targetPoint"/>
                    </mxGeometry>
                </mxCell>
                <mxCell id="FWLjK4Na1bXz4KOxD3bO-24" value="" style="ellipse;whiteSpace=wrap;html=1;fontSize=16;" vertex="1" parent="1">
                    <mxGeometry x="710" y="350" width="20" height="20" as="geometry"/>
                </mxCell>
                <mxCell id="FWLjK4Na1bXz4KOxD3bO-27" value="" style="ellipse;whiteSpace=wrap;html=1;fontSize=16;" vertex="1" parent="1">
                    <mxGeometry x="390" y="300" width="20" height="20" as="geometry"/>
                </mxCell>
                <mxCell id="FWLjK4Na1bXz4KOxD3bO-28" value="" style="endArrow=classic;html=1;rounded=0;strokeWidth=3;fontSize=16;strokeColor=#FF3333;" edge="1" parent="1">
                    <mxGeometry width="50" height="50" relative="1" as="geometry">
                        <mxPoint x="399.67" y="310" as="sourcePoint"/>
                        <mxPoint x="400" y="280" as="targetPoint"/>
                    </mxGeometry>
                </mxCell>
                <mxCell id="FWLjK4Na1bXz4KOxD3bO-30" value="" style="endArrow=classic;html=1;rounded=0;fontSize=16;strokeWidth=3;" edge="1" parent="1">
                    <mxGeometry width="50" height="50" relative="1" as="geometry">
                        <mxPoint x="400" y="310" as="sourcePoint"/>
                        <mxPoint x="460" y="280" as="targetPoint"/>
                    </mxGeometry>
                </mxCell>
                <mxCell id="FWLjK4Na1bXz4KOxD3bO-31" value="" style="endArrow=classic;html=1;rounded=0;strokeWidth=3;fontSize=16;strokeColor=#3333FF;" edge="1" parent="1">
                    <mxGeometry width="50" height="50" relative="1" as="geometry">
                        <mxPoint x="400" y="309.67" as="sourcePoint"/>
                        <mxPoint x="460" y="309.67" as="targetPoint"/>
                    </mxGeometry>
                </mxCell>
                <mxCell id="FWLjK4Na1bXz4KOxD3bO-32" value="" style="endArrow=none;dashed=1;html=1;dashPattern=1 4;strokeWidth=1;rounded=0;fontSize=16;" edge="1" parent="1">
                    <mxGeometry width="50" height="50" relative="1" as="geometry">
                        <mxPoint x="400" y="280" as="sourcePoint"/>
                        <mxPoint x="460" y="280" as="targetPoint"/>
                    </mxGeometry>
                </mxCell>
                <mxCell id="FWLjK4Na1bXz4KOxD3bO-33" value="" style="endArrow=none;dashed=1;html=1;dashPattern=1 4;strokeWidth=1;rounded=0;fontSize=16;" edge="1" parent="1">
                    <mxGeometry width="50" height="50" relative="1" as="geometry">
                        <mxPoint x="460" y="310" as="sourcePoint"/>
                        <mxPoint x="460" y="280" as="targetPoint"/>
                    </mxGeometry>
                </mxCell>
                <mxCell id="FWLjK4Na1bXz4KOxD3bO-34" value="" style="ellipse;whiteSpace=wrap;html=1;fontSize=16;" vertex="1" parent="1">
                    <mxGeometry x="510" y="270" width="20" height="20" as="geometry"/>
                </mxCell>
                <mxCell id="FWLjK4Na1bXz4KOxD3bO-37" value="" style="endArrow=classic;startArrow=classic;html=1;rounded=0;strokeColor=#1A1A1A;strokeWidth=1;fontSize=16;entryX=0.5;entryY=1;entryDx=0;entryDy=0;" edge="1" parent="1" target="FWLjK4Na1bXz4KOxD3bO-34">
                    <mxGeometry width="50" height="50" relative="1" as="geometry">
                        <mxPoint x="520" y="600" as="sourcePoint"/>
                        <mxPoint x="570" y="450" as="targetPoint"/>
                    </mxGeometry>
                </mxCell>
                <mxCell id="FWLjK4Na1bXz4KOxD3bO-38" value="" style="shape=image;verticalLabelPosition=bottom;labelBackgroundColor=default;verticalAlign=top;aspect=fixed;imageAspect=0;image=data:image/png,iVBORw0KGgoAAAANSUhEUgAAAO0AAABrCAYAAACbpAVKAAABWGlDQ1BJQ0MgUHJvZmlsZQAAeJx1kEFLAlEUhc/khJFCErUICqRlWYi2iwIzsMDFOBVUq8anaaD2ejMRQX9AimhZi6BFPyEiXAVt2wVFEG1bhyBByes+p1KLLlzux+G8x+EAHV0W5wUdQLHkCDMxE1xeWQ16X6BhAAHoGLWYzWOGkSQLvm/71O7JTXM3pv46OJzueb7ZvwiI3tTrZHXkr79tujNZm9H9oA0zLhxACxEbOw5XvEfcJygU8ZHinMvnitMuXzU8i2ac+JY4wPJWhviJOJRu0XMtXCxss68MKr0/W1paUP/QDiKJBIKYwyxMuilF//gnGv44NsGxC4EN5JCHQ69ipHAUkCWeRwkM4wgRRxCmjaqef/fX1BzqbaoMeHxNbe0YuHwA+k+a2jDl9Z0BlTK3hPXTqlbT7fVoxGW/ADrfpKwOAd4KUBdSvp9KWacOPY/A9dYnwiph00vHiA0AAB8YSURBVHhe7Z0JnE1l3MdnxjZjG4PsRZEtSlJIky0p+5JSESVLIyVR0hsVWlDkJVuJbCVZIpKQXSh7ZN+y7zGM2d7v/7znzOfOnXPvPXeZO3PvPOfzua6551l/5/mf578/ISHqUggoBBQCCgGFgEJAIaAQUAgoBBQCCgGFgEJAIaAQUAgoBBQCCgGFgEJAIaAQUAgoBBQCCgGFgEJAIaAQUAgoBBQCCgGFgEJAIaAQUAgoBBQCCgGFgEIg6BAIDboZqQkpBFwgcPLkyZJr165tdPny5cIFCxY8/9BDD62+4447DgUKcIpoA+VJ+Wict27dyrF79+7qLNhCsmArVqy4LVeuXLd81HymbiYpKSn0yy+/fHvGjBk9q1atujUuLi5i+/bttfk9d7NmzSa+++67ffLkyRObqSehBpe1EPjll19a16tX72iDBg2OPfLII2dYuMl8n//mm29eS0xMDAt2NJhnz9atW28+ffp0SWOuBw4cqFi/fv1DgsVLL730c0JCQrZgx0HNL0AQ+PXXX1uyOI9s2bLlERmy7DrLli1r9eCDD8bKgh00aNCYAJmKR8O8efNm9lq1ah3t3bv3dNjjoraNLFmypDUYJAkOCxcufNqjDlQlhYCvEWB3PfThhx+OiY2NzW3b9vTp07vLYpXPunXrGvq638zS3p49eyozx2tCnK+88spc23GJyPDAAw+cEwzeeOONaZllzI7GEfQsUWZ/AP4Y3/79+yueO3fuzh9++KHn+++/P862z1atWk3Nli2bJsctWrToGX+MJyP6iIqKupA9e/bL9J2A3HrVdgw5c+aML1So0AX5DZxSWOeMGKeVPrNbKaTKBDYCOXLkEEXTDT4RV69ejbKdTd68eW82atToJHJeuRMnTpQN7Jk6Hn2xYsXO/Pnnn214gVVu0qTJ3BEjRqQURo4Ne/jhhwvLD4ULFz7lKwz27t1bdcGCBR2OHDlSkXZPtm3bdkq1atX+8FX7qp0gR+DHH3/sMHjw4JEsoDSEyYI9LayhPduYnpDAitdHi9vt33//LZWe/VhpGzm/DvNPEAyWLl3aykodZ2WQn3OC9ah77703rk2bNls++OCD0Q0bNjzA3/EQcdByM97ipupbROCff/6pwmKNlwX73XffdbFYzatiaHFj6C9O+kQ5dOb48eN3eNWgl5W7deu2UMbSpUuXJV42FXL9+vXcnTp1Wi7tCeEaWvmjR4+Wue+++25gE7509uzZIt72o+pnYQTeeeedybLAkG3FbpnTH1A8//zzKwzll3wja7/gj37N+kBb/IyMAdZ1y6VLlwp6O44ePXr8pJuPltqbj9q3b79S7o0dO/Ztb/pRiihv0AvwumL++fnnnzujhDkxcuTIp/3lZFG6dOl9QBfPJ4HPreLFi/+bEVDu27evMrvhGOTMlV9//XUjlFUXvRnHmDFjBsD2N0ex9R8Kv24ovhJt2ytRosRR+fv3339v4U0/qm4WRQAtaVHMQEcef/zx/YcPH77bnzBcuHAhasCAAeM6duy4DFb5VX/2bfQFi1q0cePGOzHxzEAGDfd2DDt37qwO+3tddtKPP/54mFl7/fv3Hy/3eUlcj4+PV0pgb0HPSvVv3LgR/uyzz65t167dJhZvsaw0d5krGvT8sMMbUBCNsWVh0Z6XnjNnTgdP8ID1XSsEKYRLO7ebtfHqq6/O0J04bp06daq4J/1IHcUee4pcgNaTN3zfvn2/i4iIiJs8efJjRYoUOS1TuXjxYuENGzbUD9BpWR627Ko9e/aci8b89/fee6+XLQtLEMFjmzdvrme5Mb0g3mYt8OeuyZ/JeJitLFWq1HGzNvDEKqP/nsw4Ujm5uNOnIlp30AqCsgMHDpzANLLhON80X758KU4Ga9asaTx79uxuQTBFp1N4++23vy5XrtzeF1544QsUT4URE4qdOXOmmGh3V61a1fT2228/6C4GyMOiWBJ2N5HAg1lm9fG6CsPcliKGhIWFJbnbj1Fe8dWeIudBvU2bNkXDjpYoW7bs3kqVKm03awIH9vKiIELWXEAUjual46vrs88+G4ITRe5Ro0a1weFCFEEpF2NrQHjaAXf7gtWOQPnSADfB+2E7C4aHh99gbluRlxexcz1+7dq1fGimZxjtEl1UQBw8MI3k/e+//6L4u2DlypW3sjtpShrjgphuo24kn/zyzd9FWrRo8b1xX+Twv//++z52rAgcF87cf//9G/Pnz5/K08l+LiidRvBiek5+hw2WF1QOmzIaET3xxBPfuYMBUUI1OnTo8IDUYdeOxb97kYPnWgUuJw/3JLIumbF6rPRSROvOE/Kw7MGDByv06dNnZvfu3cvyhg3nrZtL5Cmc9HvZNgmx1n7mmWcWcb8gi6or92p72GWaavgY9/j0008HsLtew9B/vG7duqHJycm5sCMmiqnnp59+yst4OrvTHw4bz/NyGUI7YTVq1FgroX7sWHdDGF0/+eST/4Ugi6HskZ1HI1qxCUdHR4tHUAQfIRItooaXSDO+Uoh2/Pjx/SD6D/gtFx/RwApxXeUFsUAUaEOHDv0CAq6LO+J1YXeZQiQviytTpkwZ1Llz57Fmc+Clcs/TTz8t8xPvsGShMf1bxmF8bpYpU8atFxe4iQws40sQb6fIyMgrZv3DPlfjd42zRbt8jXJOXzDOnoMiWndWqQdlRUsJIS6GJduHprQxD69GTEzMEojy1Y0bN87BuWCV0ez333/fTQhWX+A1IYC7MI94HZzNrlSuZcuWn9JuKLtbPr7lY38l0ZflBbt48eLWsJqTqlevvg67YxvcIf8zGjx//nxhlC4LYT9TKbnYXS5DbDOQ7e7ApbA+xG6EwaWK665QocIudrwfBCscLyrr7ebcsWNHLaJ0viW8bia7Zg+Rx5HFC/Db7K1btzaCkxjJuE6Jm6L95GB7j0ybNu0JwUAnVrNY8mS4hG3uPObly5e31Inxeu3atVfwjE2rM3aReWW+iXfeeec/vLzlxeHRpYjWI9isVxo9evT72D9vsps8JTsDMa3CImmXsHd8pRAtrNVClBqtCJsrwO8Jwlpa78lxSZFdkWVtd3XbBWssHrcW7IQJEwbQY05iUEfYEqyMAnZVdtznmjdv/g9/pshu2GNP8LcmN2NqmfLbb789a0NEKRMAB/FMWsIOGkobOyHce/g7/M0335yNEmkQ7Oi4t956SyvP7n750KFDMbyUdvBnxNSpU/vwnYZoGeN1ft/iCzyNNnbt2lUNLXwJ/e+8vBT6PPnkky9BkCGhocLIJIcwh2QJg+RlIuVkR45HHPBqHIpoffkU7dpiRynFW78DhvZXhGDl9vr16+Vtr136Ik6pJTsEb+rin3/+uebNftttt510NDxC7ML55BW519VbGyI6Szvf+mqqsKm5cMcTQkrm/6ZaUHbtw5hVtjrqk7mJY768MIydL01Roo+ScQk8rRNtyF133bVTCNa+IL8fqFmz5hXwiMBJ/wFY5lywy3G+mq+jduAWHtbHH4KO4CY6gb3638IGy9zkkyThkJh4DCVUEmGA67wZmyJab9BzURdvo7bsshdh9eZIUbEJIqtp3jCYXC6RNWKZfRO4+I2TXQylRgLs3zn7+7BZDxCh8gmRORXw4Dkv7C5EPh33uWG5c+eWSJ50v+QlwSeeHSQc+XIUCqf/mMtv9h2//PLLw5jn9eHDh5sRpOzADgnWqCA46P+PZwee/+235u8eoxxjyiZES510J1ph3/WxJSHPrsaElvJCtp3w/Pnz22Ne+prfcrMDx9WpU2eFNw9JEa036Lmoi3Jmw913392Nt/5NKbp69eonkPO00DiIbg5sa4ocaDSFkiKpadOm59CmHoIYUvWADbHOiy++uBjlz+yJEyc2l3ZRsFSV6Jxt27ZFIw83pn4q17n0mJ64O/KSWIHWuBXKpjvofz5s4TEcBzYy310s4E3IuuvZKX900b+x0zosRhuGljupZMmSqTTMtpVsTSiiGEuPedu3ia6ggv7iucXuuQqiNe0Wc5oQs3hdJbMm1oj44M34/DI5bwYYyHUxQ2wiJ9NSYw6EZXXi/yLXJEOYpvY8dokcmGWKY6RPkXWN+rDZ45HNrqLl7Wm8CFCc7Hz99dcHoYiJJtQtxl94EWjwJjv9Yb2/PHgBVSJtS2dk+KHIuStRFm0TZwUL43GlkDHuh9rLzrZtQ9yG7CzCpF8SFmLfNdLWJOEJtdlsrrxIs/Nya8o9obUkZO/pFjBxWkQRrbcIWqx/5cqV/Lxxn5TiLPaTkrbTrCrEV1tMQvYsFLt0w2PHjpWHmH+DYFNlT4Q1lRdD0qxZs/zmxytabV4SDRjnfPo2dkMhFtlRsrMLVUVptMBJfKoh81lEMCQUwjRY5TR1YDtTfvPXTouiUJSKwtkkkdXS1O6OhaA+NmmNu+K5n8AENs/qhB2VU+yxtwharC8EqxvXQx599NGf7CNAjGZWrFjRHNb4mOygtk1Lnl55WxctWjSNixxKnQvs6jdQdpQT5wwxL1kcllfFxIxCA615mdzJ4qyLNrUGbPrDEKyYabJLalJk3nEs2mWGIs6kQ6c7LWyvJXZftLU2bftlp0UzLCacUExZV2B50+gfZDxojSXoXTP1oEQb7QsFmdppvVq21iuzgxqaxkR22TSsr7QEUYeyM7UzFFe2rSO7VheiZfGnkYOlHEqoa7KAJMWJ9VF5VlICu1EI9RAHe2kBrelhHBemkDjuVZwNqhMf+2CVKlU0gVxstbgHmipo9N6dEpjdrukXYrSKis6uZ+NFapqiBs+vfNhx20p7EPVxlIziQur1pYjWawitNYD5506jpDgPmNVil20BG10AeTBNRkDSskj9UHboVO6HRjuSnEz+L44L1kbkeSlxQUQjPGTu3LmmETGwijvxbW7BC0ZbzOzEZrmnhABtP6YDwlvL1qTkjGhdycaeT9hBTeJjxSQXhobcNME5HmOd0FFEUia+X79+fZ1wG26NTRGtW3B5XlgM7HrtRFzYLpm1NGnSpHdQUM2Wncv+vhAzvyU7kusM7SkmIFkk6XqJ0wBXTnaRNjbzStUn8ttV7Kcam46W3My1z9bc45AYxYSjNyzyrJWd1hI77QuA4Cb+lDHJSQX27fEcInCrfE3uwzlNxwbvSpNueUiKaC1D5V1BCFG8g2RBJUtkiX1r48aN64s2sggueQPNeoJ1llQwiG6pZDfbotqC1st5N1jXtTWqxROpqpxa4Kg4WnAtaRtmjjTOBLo8KO2Ycg42bRo7qLhJOyRavT2pdstZOddTs14C3cQv8jwli6X9CQ0fffTRCFwsy8BVrUfrn8rH3HoP5iUV0XqLoMX6uOPNZDcUJ/FcaHm7GjuUfOPM35Vdth9O9l2M+Fb7Zg3Flc3Ok6qI8bsj9tniMN0pJjtgDgl8YMdtbltRFjD+yO/ycipLcMJsQxxAUVYKh5N2+Fh3wTNMNOmyQ+WBjXyJT2dMI5qJSNKcSjnZqQi2EFlerrzIyj3mzZvXiXvaKQB//fVXbWTo50jz8j/Yi42sjvkIleuLee1Z0ro0dmdC7pYVrT22412ICwVFtJH6Mnee4xBySHcimmsLwQ+tfMUWG+Ozwm44nYsMUjIB8Ckgp5CJ84BESvBJw+K5C0qwlSfbYedhw4YNZzeMRMO7g89O8hTdS1DBbWhZu+EtJW9u04u3+jGwvR1H/L5EC31mX4jomePgX4L7/bj/eXpiB6seyYI9Cft7sHz58n+y27ZhgR5hPrswV4XjU30/XEMpIokWkXqlsxG3K8Hi+A+LvC5cgxC94RUlww3FJ/cPCDoaebg/nMd7/CbWDbFr26/Ti7gQ3oateCpttue+7MaG66BGO/IP3M1uCFwLm0uvC235gziazMfbLR+Y/IT2vpIEeuA8M5cd9g1X4YKejMsrosU5uyuRFUORccSxXQCWzy3evp3I9+pWXKIngw/EOiiUSrLI2/Jw72V3DENps5XIl1kkV3PqJYN2dj0a5Nqk+3y3V69eH9nPHfvtOZQeUUS/PE/8akrcaXpgJG6CsH8jhZWXcDxcK2usXLmyJYR6uwRHoKA5TMTLb7rMlzIECavDHFSeneeankBduyesLS8ycT0MITfwZhRXd0mAOsq1ON3kEypsv+AFceSQcDwyT6zghXePyJNwF7cMmV5s3OJcIeURJZLwzNqYHhjYtonyr4RwADzbMuBx9rHHHluAV5hXQQHOxuyVnVZiM2V3gKcvT6ykhB7JFYp3yF/pDVSgtg87JZkHR7s7fljMbRDtQ7Bi+c3qsnhl0SdTbre7bbtbXrc1xmDi0apCaLJAXS5S7MlnKCcfp5d+VqzLkER2+XSfq6uxyn1di/yxlbKZpgzZ9fLjd3pFElvBEh1wpFHMNAMOwIHgIthKEnyzu820H75k6edeLC/Q/f5SwgQghEEzZJ8oomCPxHFAZBTNIdpVqFjQoOfHiUCQCzDiH0KWi5bQONuuUeo0EOzJrjhBwtn8OCzVVQYg4BOiJU3Ko4xdjOCJZo7uGTCvoOsSWTEZxUYM/q4RctyEcRoAmtZKaE/fQzb+i1QrbrPdQQeUmpA1BFCSbNCPeYjFdufXxNfWRhg8pdhpaxJcvh5t8RGUfRsI/j4OEQ/DmJ83eGapZpKuCIi5B0XEZYj2FiycOBCoyw8ISHZCcdSXA5H90J3qIhMh4DV7LCk3JKsfcwpTrLH/niya2LPi7mj4HPuvZ9VTRiPglclHBi85evnSDOVEr2iRHZILF2+VmuIBI8Ha2Ou24mzhdhLojAZH9a8QyIwIeE20pECpq0/sGvbZjbivvUUunxhJZkX0ww2+IzFy5yDKQdJeSsaFVAHcmREUNSaFQNAiIPGCyLMXkGflsNzTpJNcgfvWTvxBn9Hz64ZwPkw9sSGKjZFk2f9vjVeXQkAh4DECXu20yLN1kGc131BYYi3JNtnl69qe84k72++k2DiEq1d5ovjF0ds0isXKDHAq74gvqeRZsnW/tHfFdHYvJcev3l9KyhM8lQ7CCXS3Mg5VRiGQkQh4RbTIs3UYvLQRVqxYsf2wxu3MDubVk24l4E9aSLylPHW+IDtDbIECBSQW1cxn2pRYJZRNfFD15NFaaJv+t/wmDuva3yh2tNPj1KUQCGoEsM+u0c/bvEHiMclhlObCCSAH+YsuCQuNSShT+IoG9UNRkwt6BDzeaSU8CwP/vbJTEdlw0ixZtaBHmFZ1IjO0yH68dnYQdxi0oOKx9Lmc8iaYOOAGHM3d4BIcfUs9TyOyPK3nr+dkPz5nbpj291y5bDoTnWR+ZuKS2e8GFq76s8XMfg3YP1ujbCgRT3GEMPawCrjHRCsByLo8m4i/8WpHLC+KKPGLFXuwJDRbTayk1bEFXDmCrpsQPCEeYUZ8p/3DdpQ21PaBGnmTAm7+JgO2X+TevkBs27MnODO8nL0EzZ6NM0K2b9+MgJ0Rtf1YpKyIZ2FYVCQsM/2JFlNPNB0Z9tlVjlYYO2tLvdxNIoDSHIMRDCvTmEPXrl2Ho5ATd0J3d1p7GJwtbtvcSr6Gz1ui8vV4HLVnhWDcmYvZy8B+1/R2bmbj0daJxAPjN+5t+67r6/JsIrLqdVKClDerIUcscl9cHOPxk13vulVVQiGgEHCFgEfssdhnkWfl1DQtnyvnbe436wgTTzt+l4zziZz18gMpN7ViaJELSkY/ZGG3TsMm908fzD7CRtimFrFlk8w0yI7euAarqrGyJN7ey8FXqXIduQJP3VcIZAQCHhGtyLOYbrRTujl4aK0jeXbZsmVtKCMsdBxpJOcZEySP0fcQiRC6W2fPkENoKzLjAmEp+DhiaTxhi0I5dvIoRJsRz0D1qRBIfwQ4WnGgmHDkI8nKzHo8cuRIWT2bRTysdIrMK5EpeFFdJJO+lr1OXQoBhYB7CHgU5cNOK5kq5JKgd1NZlWMwJGeUZN1LhJVOOTnuq6++ep1d7TA228XuDVWVVggoBAQBt4mWTHg5sb3eJ3XxIjpG6kzTw55sPIxCSa25RzpDxm0l+Wg5YLcvtimHJ6CpR6MQUAj4EAEItgps73nRGnNOqtP8uh07dlxKuZucyfkHp4LPJQroFMcjdvHhcFRTCoEsh4A7SpsUcEaNGjWAVJ6RnAD+MRrgy45Qo0wuyRxPHqMqctobGuQfIVw5/0RdQYSAN/7kQQSD36biEdH6bXSqo0yJgBApmf3bYsLrypm0NeXQL4I5rmP62y1n76J4nIQp8GymHHwQDEoRbRA8RH9OAd/qfJLQgEOum0lScTkWhEQHebZv3/4wnFUBGQtc1VWO7HgFsShNjmZ/jlX1pRDI8gjIuU24ai7GNp8wf/78jrZJ6SHm3AMHDvxSz8qZzHcC5kClv8jyq0YBkKEISBICIUrOrXFIjDExMfMMwiUkMxZ9RsUMHXQQdu62yScIMVBTsojAnDlzNGKdNm1a74ULFz5nVq1Pnz7v8LuWB0xCMidPntzHYvOqmEUElExrEShVLCREkhlAiJrcKhlAcFMtyVElp+yx4dS+PwgieUh+56jHU2vWrCnpabYShXtaBNROq1aFJQQ4OjIMGTbF31uOk5TjKM0qky5XHG60E94JLoni3FyN0NXlGwQU0foGx6BvBQ+2pCZNmsxmotqBzWQh2Yin299mE5dMDPwuAd5yJbM7izur5UtOTdCP7rRcRxVUCCgETBCA+LItX768qZz8LnmtHYEkqXQlZa5okGvVqnVC6rkClOitgl988cXA5s2b7ySg5DpOOFdRav0ox3iyy4eSg+xxTlgv66qdrHDfo9C8rACMmmNaBMiwILvsz86wwdEiNw4Wmm+67MpkK1ms13NYDUeNFlwTxAaMPDwVO3BfcpBFjR8/fkCHDh3WsqNv27hxY0syfgrbXUE9G4WAQsCHCEydOjVG/M35JFarVu3igQMHnBLZrFmzurCzxrKzxpHT+inboVy8eDGKnfqUnvEz+amnnvrDh0MN2KaUTBuwjy7zDRyPqAiyi/RjZJIgIa5bt26fsEs6PEkR7XNzshCORakVQY6kj5o2bTrHdlb4tV8iecIsfpOIsAQIWzsrKqtfimiz+grw4fxJjjAEjXIpmoxv1qzZtO7du49w1Pzp06eLESU2QU5cjIyMPA6BDzcry2HaN3VWOzsmp40+HG7ANqWINmAfXeYa+KJFi57iSBhJH5RIEr/xQ4YMeUU/WcJ0oKNHj/4Q+be4lIfAZ+GvHGtWkFMs6vG7KLISq1evrpIDZq7HrkYTqAjs2bOnKjmtz0j6IYjxXVfzOHv2bBF2TcnSKT7KcXLGsVkdZNqCokmWcpwHtddVu1nlvtpps8qTTqd5cgZxCRL1zcG2Gg672/21114b6qqrVatWPWmcOkFI3yUIc5NZHYhZEuJrNl4S4q901W5Wua9MPlnlSafDPPF0ikSBNJfvQsizz9rn/YKQs2PGyYsr41XMPoazRQgxuDX04SQIwTpKPURC/EcpJ2s0AaJdkw5TCMgm1U4bkI8t4wctzhU9e/aci0KpNEe9tDFL1EdQQft69ertwbsp1eZw/vz5YsxA/N6TqlSpstnRbCDa+vq9eBIIKqLVwVBEm/HrP+BGIG6GvXv3nkma3PITJ05sVrNmzdVmk9ixY0etQoUKxaJk0qJ+jAsFlThpaMEqZLswTQyIh1QUQQdaWJ/kpC5VqtTxgAMqnQasiDadgA3mZpFdx+7bt+9BbLJNYW8d5vxC8/soSenTEFvp0qUlUb120Bis8xUzrPCSao08Kzu07LLLgxlPd+emZFp3Ecvi5UeOHDmIGNmunPbwF0T7Vv/+/eMJ0wuRY14kkwXZLbKxE+eUCCBS0FTCK2qqPWS4Nv4yZcoUccLIdu7cuaL29yH2Wth4RaElR8rEKdY4NUKKaLM4EbozfUkfM3To0Peljpw7zEfOJ3a6hsgjlYb9Ram0rkePHkvXrVvXgsD6rpw0ODsiIuKGpLMhL3Z7snyOgPAL6buxHJGq5FmbB6WC4N1ZtVm4rGiCxQ+YiBsjhlYL0eMSEctYR8aZq6Ip1o5BHTFiRDtsrPPtoWMnLtCrV6+57MbRyL3HSXr/NzJyOQkaIJvjN+zEr1EnomTJkruJKqqWhaFPM3W106rVYAkBCXonb7Uce+js5Hbbkwi1cjhGmMq8UVFRl9lZG3J+cQuRfdlt88A2L8H/eBZ/y9nHciWwy66EaC2NURVSCCgEMgiBwYMHj9Djca/hHiknL6rLBgGlPVbLIdMhgCeU7LTot0Lj2GlNzUmZbtB+HJAiWj+CndW7Qi4O/YSLQPfNOGT0N8OD7BRlsM9KDG6SaKiLFClyPqvjpuavEMgwBCZNmvQGbO8tCQDAvnsVT6k0aWjwXZ6pl7lMvG2TDBtsJu5Y7bSZ+OEE29DwOa7FnHLIvPCE+odYWUMDHcIRquGcUDB25cqV7UUBxSmLwxo1aqTOMDZZBEp7HGyUkYnnU79+/floi5vLEDkDaBdmnV7y/zNnzpQkoVsr/JjLcnDXQXJEvUXmx3mZeCoZOjRlp81Q+LNe55s2baqDRrg9bpBViZctJB5UmH8uycHj0dHRvzRs2HBheHi4pGBVl0JAIaAQUAgoBBQCCgGFgEJAIaAQUAgoBBQCCgGFgEJAIaAQUAgoBBQCCgGFgEIgWBH4P94/Acdi1OZ2AAAAAElFTkSuQmCC;" vertex="1" parent="1">
                    <mxGeometry x="520" y="451.69" width="107" height="48.31" as="geometry"/>
                </mxCell>
            </root>
        </mxGraphModel>
    </diagram>
    <diagram id="OtVK1wq8r0WAdJd6XaXK" name="AWT Component">
        <mxGraphModel dx="1140" dy="884" grid="1" gridSize="10" guides="1" tooltips="1" connect="1" arrows="1" fold="1" page="1" pageScale="1" pageWidth="827" pageHeight="1169" math="0" shadow="0">
            <root>
                <mxCell id="0"/>
                <mxCell id="1" parent="0"/>
                <mxCell id="juVNCHWyonTqzWzH28HR-1" value="Object" style="rounded=1;whiteSpace=wrap;html=1;fontStyle=1" parent="1" vertex="1">
                    <mxGeometry x="280" y="40" width="80" height="40" as="geometry"/>
                </mxCell>
                <mxCell id="juVNCHWyonTqzWzH28HR-14" style="edgeStyle=none;html=1;exitX=0.5;exitY=0;exitDx=0;exitDy=0;fontStyle=1" parent="1" source="juVNCHWyonTqzWzH28HR-2" target="juVNCHWyonTqzWzH28HR-1" edge="1">
                    <mxGeometry relative="1" as="geometry"/>
                </mxCell>
                <mxCell id="juVNCHWyonTqzWzH28HR-2" value="Component" style="rounded=1;whiteSpace=wrap;html=1;fontStyle=1" parent="1" vertex="1">
                    <mxGeometry x="280" y="120" width="80" height="40" as="geometry"/>
                </mxCell>
                <mxCell id="juVNCHWyonTqzWzH28HR-26" style="edgeStyle=none;html=1;exitX=0;exitY=0.5;exitDx=0;exitDy=0;entryX=0.5;entryY=1;entryDx=0;entryDy=0;fontStyle=1" parent="1" source="juVNCHWyonTqzWzH28HR-3" target="juVNCHWyonTqzWzH28HR-2" edge="1">
                    <mxGeometry relative="1" as="geometry">
                        <mxPoint x="400" y="70" as="targetPoint"/>
                        <Array as="points">
                            <mxPoint x="400" y="80"/>
                            <mxPoint x="400" y="200"/>
                            <mxPoint x="320" y="200"/>
                        </Array>
                    </mxGeometry>
                </mxCell>
                <mxCell id="juVNCHWyonTqzWzH28HR-3" value="Button" style="rounded=1;whiteSpace=wrap;html=1;fontStyle=1" parent="1" vertex="1">
                    <mxGeometry x="440" y="60" width="80" height="40" as="geometry"/>
                </mxCell>
                <mxCell id="juVNCHWyonTqzWzH28HR-27" style="edgeStyle=none;html=1;exitX=0;exitY=0.5;exitDx=0;exitDy=0;endArrow=none;endFill=0;fontStyle=1" parent="1" source="juVNCHWyonTqzWzH28HR-4" edge="1">
                    <mxGeometry relative="1" as="geometry">
                        <mxPoint x="400" y="140" as="targetPoint"/>
                    </mxGeometry>
                </mxCell>
                <mxCell id="juVNCHWyonTqzWzH28HR-4" value="Label" style="rounded=1;whiteSpace=wrap;html=1;fontStyle=1" parent="1" vertex="1">
                    <mxGeometry x="440" y="120" width="80" height="40" as="geometry"/>
                </mxCell>
                <mxCell id="juVNCHWyonTqzWzH28HR-28" style="edgeStyle=none;html=1;exitX=0;exitY=0.5;exitDx=0;exitDy=0;endArrow=none;endFill=0;fontStyle=1" parent="1" source="juVNCHWyonTqzWzH28HR-5" edge="1">
                    <mxGeometry relative="1" as="geometry">
                        <mxPoint x="390" y="200" as="targetPoint"/>
                    </mxGeometry>
                </mxCell>
                <mxCell id="juVNCHWyonTqzWzH28HR-5" value="CheckBox" style="rounded=1;whiteSpace=wrap;html=1;fontStyle=1" parent="1" vertex="1">
                    <mxGeometry x="440" y="180" width="80" height="40" as="geometry"/>
                </mxCell>
                <mxCell id="juVNCHWyonTqzWzH28HR-29" style="edgeStyle=none;html=1;exitX=0;exitY=0.5;exitDx=0;exitDy=0;endArrow=none;endFill=0;fontStyle=1" parent="1" source="juVNCHWyonTqzWzH28HR-6" edge="1">
                    <mxGeometry relative="1" as="geometry">
                        <mxPoint x="400" y="260" as="targetPoint"/>
                    </mxGeometry>
                </mxCell>
                <mxCell id="juVNCHWyonTqzWzH28HR-6" value="Choice" style="rounded=1;whiteSpace=wrap;html=1;fontStyle=1" parent="1" vertex="1">
                    <mxGeometry x="440" y="240" width="80" height="40" as="geometry"/>
                </mxCell>
                <mxCell id="juVNCHWyonTqzWzH28HR-22" style="edgeStyle=none;html=1;exitX=0;exitY=0.5;exitDx=0;exitDy=0;entryX=0.5;entryY=1;entryDx=0;entryDy=0;fontStyle=1" parent="1" source="juVNCHWyonTqzWzH28HR-7" target="juVNCHWyonTqzWzH28HR-2" edge="1">
                    <mxGeometry relative="1" as="geometry">
                        <Array as="points">
                            <mxPoint x="400" y="320"/>
                            <mxPoint x="400" y="200"/>
                            <mxPoint x="320" y="200"/>
                        </Array>
                    </mxGeometry>
                </mxCell>
                <mxCell id="juVNCHWyonTqzWzH28HR-7" value="List" style="rounded=1;whiteSpace=wrap;html=1;fontStyle=1" parent="1" vertex="1">
                    <mxGeometry x="440" y="300" width="80" height="40" as="geometry"/>
                </mxCell>
                <mxCell id="juVNCHWyonTqzWzH28HR-15" style="edgeStyle=none;html=1;exitX=0.5;exitY=0;exitDx=0;exitDy=0;entryX=0.5;entryY=1;entryDx=0;entryDy=0;fontStyle=1" parent="1" source="juVNCHWyonTqzWzH28HR-8" target="juVNCHWyonTqzWzH28HR-2" edge="1">
                    <mxGeometry relative="1" as="geometry">
                        <Array as="points">
                            <mxPoint x="260" y="200"/>
                            <mxPoint x="320" y="200"/>
                        </Array>
                    </mxGeometry>
                </mxCell>
                <mxCell id="juVNCHWyonTqzWzH28HR-8" value="Container" style="rounded=1;whiteSpace=wrap;html=1;fontStyle=1" parent="1" vertex="1">
                    <mxGeometry x="220" y="240" width="80" height="40" as="geometry"/>
                </mxCell>
                <mxCell id="juVNCHWyonTqzWzH28HR-20" style="edgeStyle=none;html=1;exitX=0.5;exitY=0;exitDx=0;exitDy=0;entryX=0.5;entryY=1;entryDx=0;entryDy=0;fontStyle=1" parent="1" source="juVNCHWyonTqzWzH28HR-9" target="juVNCHWyonTqzWzH28HR-8" edge="1">
                    <mxGeometry relative="1" as="geometry">
                        <Array as="points">
                            <mxPoint x="160" y="300"/>
                            <mxPoint x="260" y="300"/>
                        </Array>
                    </mxGeometry>
                </mxCell>
                <mxCell id="juVNCHWyonTqzWzH28HR-9" value="Window" style="rounded=1;whiteSpace=wrap;html=1;fontStyle=1" parent="1" vertex="1">
                    <mxGeometry x="120" y="320" width="80" height="40" as="geometry"/>
                </mxCell>
                <mxCell id="juVNCHWyonTqzWzH28HR-21" style="edgeStyle=none;html=1;exitX=0.5;exitY=0;exitDx=0;exitDy=0;fontStyle=1" parent="1" source="juVNCHWyonTqzWzH28HR-10" edge="1">
                    <mxGeometry relative="1" as="geometry">
                        <mxPoint x="260" y="280" as="targetPoint"/>
                        <Array as="points">
                            <mxPoint x="360" y="300"/>
                            <mxPoint x="260" y="300"/>
                        </Array>
                    </mxGeometry>
                </mxCell>
                <mxCell id="juVNCHWyonTqzWzH28HR-10" value="Panel" style="rounded=1;whiteSpace=wrap;html=1;fontStyle=1" parent="1" vertex="1">
                    <mxGeometry x="320" y="320" width="80" height="40" as="geometry"/>
                </mxCell>
                <mxCell id="juVNCHWyonTqzWzH28HR-16" style="edgeStyle=none;html=1;exitX=0.5;exitY=0;exitDx=0;exitDy=0;entryX=0.5;entryY=1;entryDx=0;entryDy=0;fontStyle=1" parent="1" source="juVNCHWyonTqzWzH28HR-11" target="juVNCHWyonTqzWzH28HR-9" edge="1">
                    <mxGeometry relative="1" as="geometry">
                        <Array as="points">
                            <mxPoint x="100" y="380"/>
                            <mxPoint x="160" y="380"/>
                        </Array>
                    </mxGeometry>
                </mxCell>
                <mxCell id="juVNCHWyonTqzWzH28HR-11" value="Frame" style="rounded=1;whiteSpace=wrap;html=1;fontStyle=1" parent="1" vertex="1">
                    <mxGeometry x="60" y="400" width="80" height="40" as="geometry"/>
                </mxCell>
                <mxCell id="juVNCHWyonTqzWzH28HR-18" style="edgeStyle=none;html=1;exitX=0.5;exitY=0;exitDx=0;exitDy=0;entryX=0.5;entryY=1;entryDx=0;entryDy=0;fontStyle=1" parent="1" source="juVNCHWyonTqzWzH28HR-12" target="juVNCHWyonTqzWzH28HR-9" edge="1">
                    <mxGeometry relative="1" as="geometry">
                        <Array as="points">
                            <mxPoint x="220" y="380"/>
                            <mxPoint x="160" y="380"/>
                        </Array>
                    </mxGeometry>
                </mxCell>
                <mxCell id="juVNCHWyonTqzWzH28HR-12" value="Dialog" style="rounded=1;whiteSpace=wrap;html=1;fontStyle=1" parent="1" vertex="1">
                    <mxGeometry x="180" y="400" width="80" height="40" as="geometry"/>
                </mxCell>
                <mxCell id="juVNCHWyonTqzWzH28HR-19" style="edgeStyle=none;html=1;exitX=0.5;exitY=0;exitDx=0;exitDy=0;entryX=0.5;entryY=1;entryDx=0;entryDy=0;fontStyle=1" parent="1" source="juVNCHWyonTqzWzH28HR-13" target="juVNCHWyonTqzWzH28HR-10" edge="1">
                    <mxGeometry relative="1" as="geometry"/>
                </mxCell>
                <mxCell id="juVNCHWyonTqzWzH28HR-13" value="Applet" style="rounded=1;whiteSpace=wrap;html=1;fontStyle=1" parent="1" vertex="1">
                    <mxGeometry x="320" y="400" width="80" height="40" as="geometry"/>
                </mxCell>
            </root>
        </mxGraphModel>
    </diagram>
    <diagram id="vCNrYYGv5jK-8xdwk948" name="Swing class hierachy">
        <mxGraphModel dx="1200" dy="931" grid="1" gridSize="10" guides="1" tooltips="1" connect="1" arrows="1" fold="1" page="1" pageScale="1" pageWidth="827" pageHeight="1169" math="0" shadow="0">
            <root>
                <mxCell id="0"/>
                <mxCell id="1" parent="0"/>
                <mxCell id="Qmcfci9mSeyro0QPV9Iz-1" value="Object" style="rounded=1;whiteSpace=wrap;html=1;fillColor=#f5f5f5;fontColor=#333333;strokeColor=#666666;fontStyle=1" vertex="1" parent="1">
                    <mxGeometry x="260" y="40" width="80" height="40" as="geometry"/>
                </mxCell>
                <mxCell id="r9NV4lGaVqrY5ZOaK-N--10" style="edgeStyle=none;html=1;exitX=0.5;exitY=0;exitDx=0;exitDy=0;entryX=0.5;entryY=1;entryDx=0;entryDy=0;fillColor=#f5f5f5;strokeColor=#666666;fontStyle=1" edge="1" parent="1" source="Qmcfci9mSeyro0QPV9Iz-2" target="Qmcfci9mSeyro0QPV9Iz-1">
                    <mxGeometry relative="1" as="geometry"/>
                </mxCell>
                <mxCell id="Qmcfci9mSeyro0QPV9Iz-2" value="Component" style="rounded=1;whiteSpace=wrap;html=1;fillColor=#f5f5f5;fontColor=#333333;strokeColor=#666666;fontStyle=1" vertex="1" parent="1">
                    <mxGeometry x="260" y="120" width="80" height="40" as="geometry"/>
                </mxCell>
                <mxCell id="r9NV4lGaVqrY5ZOaK-N--11" style="edgeStyle=none;html=1;exitX=0.5;exitY=0;exitDx=0;exitDy=0;entryX=0.5;entryY=1;entryDx=0;entryDy=0;fillColor=#f5f5f5;strokeColor=#666666;fontStyle=1" edge="1" parent="1" source="Qmcfci9mSeyro0QPV9Iz-3" target="Qmcfci9mSeyro0QPV9Iz-2">
                    <mxGeometry relative="1" as="geometry"/>
                </mxCell>
                <mxCell id="Qmcfci9mSeyro0QPV9Iz-3" value="Container" style="rounded=1;whiteSpace=wrap;html=1;fillColor=#f5f5f5;fontColor=#333333;strokeColor=#666666;fontStyle=1" vertex="1" parent="1">
                    <mxGeometry x="260" y="200" width="80" height="40" as="geometry"/>
                </mxCell>
                <mxCell id="r9NV4lGaVqrY5ZOaK-N--12" style="edgeStyle=none;html=1;exitX=0.5;exitY=0;exitDx=0;exitDy=0;entryX=0.5;entryY=1;entryDx=0;entryDy=0;fillColor=#f5f5f5;strokeColor=#666666;fontStyle=1" edge="1" parent="1" source="Qmcfci9mSeyro0QPV9Iz-4" target="Qmcfci9mSeyro0QPV9Iz-3">
                    <mxGeometry relative="1" as="geometry"/>
                </mxCell>
                <mxCell id="Qmcfci9mSeyro0QPV9Iz-4" value="Panel" style="rounded=1;whiteSpace=wrap;html=1;fillColor=#f5f5f5;fontColor=#333333;strokeColor=#666666;fontStyle=1" vertex="1" parent="1">
                    <mxGeometry x="260" y="280" width="80" height="40" as="geometry"/>
                </mxCell>
                <mxCell id="r9NV4lGaVqrY5ZOaK-N--14" style="edgeStyle=none;html=1;exitX=0.5;exitY=0;exitDx=0;exitDy=0;fillColor=#f5f5f5;strokeColor=#666666;fontStyle=1" edge="1" parent="1" source="Qmcfci9mSeyro0QPV9Iz-5" target="Qmcfci9mSeyro0QPV9Iz-4">
                    <mxGeometry relative="1" as="geometry"/>
                </mxCell>
                <mxCell id="Qmcfci9mSeyro0QPV9Iz-5" value="Applet" style="rounded=1;whiteSpace=wrap;html=1;fillColor=#f5f5f5;fontColor=#333333;strokeColor=#666666;fontStyle=1" vertex="1" parent="1">
                    <mxGeometry x="260" y="360" width="80" height="40" as="geometry"/>
                </mxCell>
                <mxCell id="r9NV4lGaVqrY5ZOaK-N--15" style="edgeStyle=none;html=1;exitX=0.5;exitY=0;exitDx=0;exitDy=0;entryX=0.5;entryY=1;entryDx=0;entryDy=0;fontStyle=1" edge="1" parent="1" source="Qmcfci9mSeyro0QPV9Iz-6" target="Qmcfci9mSeyro0QPV9Iz-5">
                    <mxGeometry relative="1" as="geometry"/>
                </mxCell>
                <mxCell id="Qmcfci9mSeyro0QPV9Iz-6" value="JApplet" style="rounded=1;whiteSpace=wrap;html=1;fillColor=#dae8fc;strokeColor=#6c8ebf;fontStyle=1" vertex="1" parent="1">
                    <mxGeometry x="260" y="440" width="80" height="40" as="geometry"/>
                </mxCell>
                <mxCell id="r9NV4lGaVqrY5ZOaK-N--13" style="edgeStyle=none;html=1;exitX=0.5;exitY=0;exitDx=0;exitDy=0;fillColor=#f5f5f5;strokeColor=#666666;fontStyle=1" edge="1" parent="1" source="Qmcfci9mSeyro0QPV9Iz-7">
                    <mxGeometry relative="1" as="geometry">
                        <mxPoint x="300" y="240" as="targetPoint"/>
                        <Array as="points">
                            <mxPoint x="180" y="260"/>
                            <mxPoint x="300" y="260"/>
                        </Array>
                    </mxGeometry>
                </mxCell>
                <mxCell id="Qmcfci9mSeyro0QPV9Iz-7" value="Window" style="rounded=1;whiteSpace=wrap;html=1;fillColor=#f5f5f5;fontColor=#333333;strokeColor=#666666;fontStyle=1" vertex="1" parent="1">
                    <mxGeometry x="140" y="280" width="80" height="40" as="geometry"/>
                </mxCell>
                <mxCell id="r9NV4lGaVqrY5ZOaK-N--18" style="edgeStyle=none;html=1;exitX=0.5;exitY=0;exitDx=0;exitDy=0;fillColor=#f5f5f5;strokeColor=#666666;fontStyle=1" edge="1" parent="1" source="Qmcfci9mSeyro0QPV9Iz-8">
                    <mxGeometry relative="1" as="geometry">
                        <mxPoint x="180" y="320" as="targetPoint"/>
                    </mxGeometry>
                </mxCell>
                <mxCell id="Qmcfci9mSeyro0QPV9Iz-8" value="Frame" style="rounded=1;whiteSpace=wrap;html=1;fillColor=#f5f5f5;fontColor=#333333;strokeColor=#666666;fontStyle=1" vertex="1" parent="1">
                    <mxGeometry x="140" y="360" width="80" height="40" as="geometry"/>
                </mxCell>
                <mxCell id="r9NV4lGaVqrY5ZOaK-N--16" style="edgeStyle=none;html=1;exitX=0.5;exitY=0;exitDx=0;exitDy=0;entryX=0.5;entryY=1;entryDx=0;entryDy=0;fontStyle=1" edge="1" parent="1" source="Qmcfci9mSeyro0QPV9Iz-9" target="Qmcfci9mSeyro0QPV9Iz-8">
                    <mxGeometry relative="1" as="geometry"/>
                </mxCell>
                <mxCell id="Qmcfci9mSeyro0QPV9Iz-9" value="JFrame" style="rounded=1;whiteSpace=wrap;html=1;fillColor=#dae8fc;strokeColor=#6c8ebf;fontStyle=1" vertex="1" parent="1">
                    <mxGeometry x="140" y="440" width="80" height="40" as="geometry"/>
                </mxCell>
                <mxCell id="r9NV4lGaVqrY5ZOaK-N--17" style="edgeStyle=none;html=1;exitX=0.5;exitY=0;exitDx=0;exitDy=0;entryX=0.5;entryY=1;entryDx=0;entryDy=0;fillColor=#f5f5f5;strokeColor=#666666;fontStyle=1" edge="1" parent="1" source="Qmcfci9mSeyro0QPV9Iz-10" target="Qmcfci9mSeyro0QPV9Iz-7">
                    <mxGeometry relative="1" as="geometry">
                        <Array as="points">
                            <mxPoint x="60" y="340"/>
                            <mxPoint x="180" y="340"/>
                        </Array>
                    </mxGeometry>
                </mxCell>
                <mxCell id="Qmcfci9mSeyro0QPV9Iz-10" value="Dialog" style="rounded=1;whiteSpace=wrap;html=1;fillColor=#f5f5f5;fontColor=#333333;strokeColor=#666666;fontStyle=1" vertex="1" parent="1">
                    <mxGeometry x="20" y="360" width="80" height="40" as="geometry"/>
                </mxCell>
                <mxCell id="r9NV4lGaVqrY5ZOaK-N--21" style="edgeStyle=none;html=1;exitX=0;exitY=0.5;exitDx=0;exitDy=0;entryX=0.5;entryY=1;entryDx=0;entryDy=0;fontStyle=1" edge="1" parent="1" source="r9NV4lGaVqrY5ZOaK-N--1" target="Qmcfci9mSeyro0QPV9Iz-2">
                    <mxGeometry relative="1" as="geometry">
                        <Array as="points">
                            <mxPoint x="380" y="180"/>
                            <mxPoint x="300" y="180"/>
                        </Array>
                    </mxGeometry>
                </mxCell>
                <mxCell id="r9NV4lGaVqrY5ZOaK-N--1" value="JComponent" style="rounded=1;whiteSpace=wrap;html=1;fillColor=#dae8fc;strokeColor=#6c8ebf;fontStyle=1" vertex="1" parent="1">
                    <mxGeometry x="360" y="160" width="80" height="40" as="geometry"/>
                </mxCell>
                <mxCell id="r9NV4lGaVqrY5ZOaK-N--22" style="edgeStyle=none;html=1;exitX=0;exitY=0.5;exitDx=0;exitDy=0;entryX=1;entryY=0.5;entryDx=0;entryDy=0;fillColor=#dae8fc;strokeColor=#6c8ebf;fontStyle=1" edge="1" parent="1" source="r9NV4lGaVqrY5ZOaK-N--2" target="r9NV4lGaVqrY5ZOaK-N--1">
                    <mxGeometry relative="1" as="geometry">
                        <Array as="points">
                            <mxPoint x="480" y="60"/>
                            <mxPoint x="480" y="180"/>
                        </Array>
                    </mxGeometry>
                </mxCell>
                <mxCell id="r9NV4lGaVqrY5ZOaK-N--2" value="JLabel" style="rounded=1;whiteSpace=wrap;html=1;fillColor=#dae8fc;strokeColor=#6c8ebf;fontStyle=1" vertex="1" parent="1">
                    <mxGeometry x="520" y="40" width="80" height="40" as="geometry"/>
                </mxCell>
                <mxCell id="r9NV4lGaVqrY5ZOaK-N--25" style="edgeStyle=none;html=1;exitX=0;exitY=0.5;exitDx=0;exitDy=0;endArrow=none;endFill=0;fillColor=#dae8fc;strokeColor=#6c8ebf;fontStyle=1" edge="1" parent="1" source="r9NV4lGaVqrY5ZOaK-N--3">
                    <mxGeometry relative="1" as="geometry">
                        <mxPoint x="479.9999999999998" y="119.71428571428578" as="targetPoint"/>
                    </mxGeometry>
                </mxCell>
                <mxCell id="r9NV4lGaVqrY5ZOaK-N--3" value="JList" style="rounded=1;whiteSpace=wrap;html=1;fillColor=#dae8fc;strokeColor=#6c8ebf;fontStyle=1" vertex="1" parent="1">
                    <mxGeometry x="520" y="100" width="80" height="40" as="geometry"/>
                </mxCell>
                <mxCell id="r9NV4lGaVqrY5ZOaK-N--26" style="edgeStyle=none;html=1;exitX=0;exitY=0.5;exitDx=0;exitDy=0;endArrow=none;endFill=0;fillColor=#dae8fc;strokeColor=#6c8ebf;fontStyle=1" edge="1" parent="1" source="r9NV4lGaVqrY5ZOaK-N--4">
                    <mxGeometry relative="1" as="geometry">
                        <mxPoint x="450" y="180" as="targetPoint"/>
                    </mxGeometry>
                </mxCell>
                <mxCell id="r9NV4lGaVqrY5ZOaK-N--4" value="JTable" style="rounded=1;whiteSpace=wrap;html=1;fillColor=#dae8fc;strokeColor=#6c8ebf;fontStyle=1" vertex="1" parent="1">
                    <mxGeometry x="520" y="160" width="80" height="40" as="geometry"/>
                </mxCell>
                <mxCell id="r9NV4lGaVqrY5ZOaK-N--27" style="edgeStyle=none;html=1;exitX=0;exitY=0.5;exitDx=0;exitDy=0;endArrow=none;endFill=0;fillColor=#dae8fc;strokeColor=#6c8ebf;fontStyle=1" edge="1" parent="1" source="r9NV4lGaVqrY5ZOaK-N--5">
                    <mxGeometry relative="1" as="geometry">
                        <mxPoint x="479.9999999999998" y="239.71428571428578" as="targetPoint"/>
                    </mxGeometry>
                </mxCell>
                <mxCell id="r9NV4lGaVqrY5ZOaK-N--5" value="JComboBox" style="rounded=1;whiteSpace=wrap;html=1;fillColor=#dae8fc;strokeColor=#6c8ebf;fontStyle=1" vertex="1" parent="1">
                    <mxGeometry x="520" y="220" width="80" height="40" as="geometry"/>
                </mxCell>
                <mxCell id="r9NV4lGaVqrY5ZOaK-N--28" style="edgeStyle=none;html=1;exitX=0;exitY=0.5;exitDx=0;exitDy=0;endArrow=none;endFill=0;fillColor=#dae8fc;strokeColor=#6c8ebf;fontStyle=1" edge="1" parent="1" source="r9NV4lGaVqrY5ZOaK-N--6">
                    <mxGeometry relative="1" as="geometry">
                        <mxPoint x="479.9999999999998" y="299.7142857142858" as="targetPoint"/>
                    </mxGeometry>
                </mxCell>
                <mxCell id="r9NV4lGaVqrY5ZOaK-N--6" value="JSlider" style="rounded=1;whiteSpace=wrap;html=1;fillColor=#dae8fc;strokeColor=#6c8ebf;fontStyle=1" vertex="1" parent="1">
                    <mxGeometry x="520" y="280" width="80" height="40" as="geometry"/>
                </mxCell>
                <mxCell id="r9NV4lGaVqrY5ZOaK-N--29" style="edgeStyle=none;html=1;exitX=0;exitY=0.5;exitDx=0;exitDy=0;endArrow=none;endFill=0;fillColor=#dae8fc;strokeColor=#6c8ebf;fontStyle=1" edge="1" parent="1" source="r9NV4lGaVqrY5ZOaK-N--7">
                    <mxGeometry relative="1" as="geometry">
                        <mxPoint x="479.9999999999998" y="359.7142857142858" as="targetPoint"/>
                    </mxGeometry>
                </mxCell>
                <mxCell id="r9NV4lGaVqrY5ZOaK-N--7" value="JMenu" style="rounded=1;whiteSpace=wrap;html=1;fillColor=#dae8fc;strokeColor=#6c8ebf;fontStyle=1" vertex="1" parent="1">
                    <mxGeometry x="520" y="340" width="80" height="40" as="geometry"/>
                </mxCell>
                <mxCell id="r9NV4lGaVqrY5ZOaK-N--23" style="edgeStyle=none;html=1;exitX=0;exitY=0.5;exitDx=0;exitDy=0;entryX=1;entryY=0.5;entryDx=0;entryDy=0;fillColor=#dae8fc;strokeColor=#6c8ebf;fontStyle=1" edge="1" parent="1" source="r9NV4lGaVqrY5ZOaK-N--8" target="r9NV4lGaVqrY5ZOaK-N--1">
                    <mxGeometry relative="1" as="geometry">
                        <Array as="points">
                            <mxPoint x="480" y="420"/>
                            <mxPoint x="480" y="180"/>
                        </Array>
                    </mxGeometry>
                </mxCell>
                <mxCell id="r9NV4lGaVqrY5ZOaK-N--8" value="AbstractButton" style="rounded=1;whiteSpace=wrap;html=1;fillColor=#dae8fc;strokeColor=#6c8ebf;fontStyle=1" vertex="1" parent="1">
                    <mxGeometry x="520" y="400" width="120" height="40" as="geometry"/>
                </mxCell>
                <mxCell id="r9NV4lGaVqrY5ZOaK-N--24" style="edgeStyle=none;html=1;exitX=0;exitY=0.5;exitDx=0;exitDy=0;entryX=1;entryY=0.5;entryDx=0;entryDy=0;fillColor=#dae8fc;strokeColor=#6c8ebf;fontStyle=1" edge="1" parent="1" source="r9NV4lGaVqrY5ZOaK-N--9" target="r9NV4lGaVqrY5ZOaK-N--8">
                    <mxGeometry relative="1" as="geometry"/>
                </mxCell>
                <mxCell id="r9NV4lGaVqrY5ZOaK-N--9" value="JButton" style="rounded=1;whiteSpace=wrap;html=1;fillColor=#dae8fc;strokeColor=#6c8ebf;fontStyle=1" vertex="1" parent="1">
                    <mxGeometry x="680" y="400" width="80" height="40" as="geometry"/>
                </mxCell>
            </root>
        </mxGraphModel>
    </diagram>
</mxfile>